<?xml version="1.0" encoding="UTF-8" standalone="no"?>
<svg
   width="64"
   height="63.999996"
   version="1.1"
   viewBox="0 0 16.933334 16.933333"
   id="svg220"
   sodipodi:docname="all-icons.svg"
   inkscape:version="1.2.1 (9c6d41e410, 2022-07-14)"
   xml:space="preserve"
   xmlns:inkscape="http://www.inkscape.org/namespaces/inkscape"
   xmlns:sodipodi="http://sodipodi.sourceforge.net/DTD/sodipodi-0.dtd"
   xmlns="http://www.w3.org/2000/svg"
   xmlns:svg="http://www.w3.org/2000/svg"><defs
     id="defs224">
	

		
		
		
		
		
		
		
		
	<style
   type="text/css"
   id="style9350">
   <![CDATA[
    .fil0 {fill:black}
   ]]>
  </style>
	

<style
   type="text/css"
   id="style30106">
   <![CDATA[
    .fil0 {fill:black}
   ]]>
  </style></defs><sodipodi:namedview
     id="namedview222"
     pagecolor="#ffffff"
     bordercolor="#666666"
     borderopacity="1.0"
     inkscape:showpageshadow="2"
     inkscape:pageopacity="0.0"
     inkscape:pagecheckerboard="0"
     inkscape:deskcolor="#d1d1d1"
     inkscape:document-units="mm"
     showgrid="false"
     inkscape:zoom="0.39852865"
     inkscape:cx="22.583069"
     inkscape:cy="474.24445"
     inkscape:window-width="1920"
     inkscape:window-height="1017"
     inkscape:window-x="-8"
     inkscape:window-y="-8"
     inkscape:window-maximized="1"
     inkscape:current-layer="svg220" /><rect
     width="115.82537"
     height="28.956343"
     ry="0.0062204017"
     display="none"
     stroke-linecap="round"
     stroke-linejoin="round"
     stroke-width="0.0862899"
     id="rect182"
     x="-41.315521"
     y="-12.141241" /><path
     d="m 12.806382,15.570546 2.677208,-1.366689 0.02949,-0.188136 c 0.167202,-1.066808 0.511485,-4.9626428 0.444583,-5.0311546 -0.02473,-0.025307 -0.506991,0.121996 -1.318803,0.4027977 -1.098525,0.3799425 -1.837817,0.6471479 -4.018977,1.4525649 -0.202379,0.07473 -0.390945,0.154257 -0.419079,0.176741 -0.03616,0.02892 -0.0509,0.19535 -0.05038,0.568789 4.46e-4,0.290366 -0.02118,1.596121 -0.04795,2.901657 -0.02973,1.449682 -0.03399,2.388531 -0.01095,2.411897 0.02285,0.02315 1.092999,-0.500517 2.714968,-1.328491 z m -3.4007878,1.302418 c 0.023854,-0.04618 0.051882,-1.23426 0.069871,-2.962753 0.025222,-2.423729 0.021063,-2.893065 -0.026096,-2.931616 -0.063421,-0.05198 -3.6432297,-1.272813 -3.6656204,-1.250094 -0.00795,0.00814 0.00497,0.781933 0.028564,1.719726 0.023595,0.937787 0.037718,1.710362 0.031368,1.716839 -0.00636,0.0064 -0.5349525,-0.199973 -1.1747319,-0.458755 L 3.5057263,12.235784 3.4794971,11.714841 C 3.4650558,11.42833 3.4392342,10.689057 3.4220993,10.072104 L 3.3909505,8.950323 3.2860193,8.9095277 C 3.1343389,8.85055 1.4030747,8.3260827 0.68853109,8.1225923 0.19115393,7.9809727 0.07016927,7.9591186 0.0307412,8.0037395 c -0.03557174,0.040237 -0.03965668,0.192684 -0.01544523,0.577271 0.08218573,1.3063609 0.38041681,4.2573435 0.43600772,4.3141995 0.0168864,0.01725 0.49947332,0.236512 1.07239101,0.487178 1.4191881,0.620955 2.3834246,1.059744 5.2528809,2.390473 1.3491956,0.625663 2.4836935,1.14662 2.5211069,1.157626 0.039319,0.01148 0.084869,-0.01262 0.1078781,-0.05716 z M 5.5117515,12.291135 C 5.4992884,12.078445 5.4777605,11.38507 5.4639053,10.750283 L 5.4387495,9.5961283 4.8810892,9.4166932 C 4.574371,9.3179974 4.1872723,9.1935847 4.0208673,9.1402121 L 3.718277,9.0431721 3.745301,9.9929694 c 0.014868,0.5223976 0.038573,1.1962956 0.052687,1.4975326 l 0.025692,0.547678 0.8222954,0.320703 c 0.4522621,0.176381 0.8372032,0.320299 0.8553914,0.319811 0.018218,-2.65e-4 0.022919,-0.174916 0.010456,-0.3876 z M 4.5519466,11.56659 c -0.1720512,-0.0704 -0.2489851,-0.208154 -0.2489851,-0.445848 0,-0.06774 -0.03905,-0.179264 -0.086778,-0.247805 -0.3475895,-0.499177 0.04423,-0.9889387 0.5538901,-0.69241 0.3204687,0.186494 0.4427652,0.653858 0.2312859,0.884052 -0.060111,0.06543 -0.085118,0.147724 -0.085118,0.280185 0,0.289425 -0.07995,0.338124 -0.3642939,0.221783 z M 15.031806,8.7768784 c 0.133221,-0.050359 0.248497,-0.1112533 0.256157,-0.1353152 0.008,-0.025023 -0.318039,-0.1303408 -0.763527,-0.2465634 -0.427598,-0.1115544 -0.777397,-0.2102123 -0.777397,-0.2192292 0,-0.00904 0.03574,-0.088043 0.07943,-0.1756218 l 0.07944,-0.1592294 0.830238,0.2230314 c 0.45662,0.1226733 0.862414,0.2232855 0.901784,0.223609 0.122523,0.00112 0.07898,-0.1085646 -0.104182,-0.2620249 C 15.395105,7.9093602 15.259236,7.8515666 14.889837,7.7516369 14.63232,7.681988 14.14565,7.5499941 13.80835,7.4583285 10.474907,6.5524976 7.5758066,5.8106474 6.0867414,5.4825711 5.954781,5.4535043 5.8146747,5.400279 5.7753789,5.3643071 5.7063822,5.301132 5.2216565,4.5101544 4.2621399,2.8950225 4.0094245,2.4696297 3.7975546,2.1157379 3.7913258,2.1085566 3.7563305,2.0683403 3.3216577,2.0525263 3.3216577,2.091472 c 0,0.045358 0.6438613,1.1704575 1.5843257,2.7684615 L 5.4349836,5.7588187 5.961331,5.8759928 c 0.2894895,0.064445 0.5344744,0.1254808 0.5443926,0.1356224 0.02939,0.030064 -0.1325427,0.3115905 -0.1792402,0.3115905 -0.023595,0 -0.3214476,-0.062768 -0.6618768,-0.1394708 L 5.0456117,6.044264 4.4800429,6.2213624 c -1.90355,0.5961175 -4.11090009,1.3092453 -4.13795309,1.3369087 -0.0110621,0.011309 -0.002882,0.036263 0.0180791,0.055501 0.0499535,0.045746 0.42547335,0.1487642 0.51665389,0.1417486 0.0390604,-0.00295 0.3981271,-0.108288 0.7979469,-0.2339388 3.009154,-0.9457361 3.3379339,-1.0403797 3.5231603,-1.0144827 0.5017116,0.070319 4.884673,1.1547422 8.11992,2.0090716 0.742057,0.195939 1.376765,0.3553807 1.410496,0.3542923 0.03373,-0.00112 0.17033,-0.043175 0.303541,-0.093533 z M 10.429002,7.3334369 C 9.4318994,7.0811932 8.4320904,6.8316628 8.2072632,6.7789022 7.982401,6.7261446 7.7909526,6.6774725 7.7817889,6.6707383 c -0.00914,-0.00671 0.016519,-0.087364 0.05699,-0.1791767 0.058998,-0.1337847 0.090713,-0.1628781 0.159716,-0.1465101 1.2210678,0.2896773 4.4422131,1.103124 4.4913681,1.1342011 0.05022,0.031739 -0.142465,0.3541205 -0.19851,0.3321252 -0.02712,-0.010656 -0.86512,-0.2257328 -1.862223,-0.4779531 z m 5.729704,0.6009432 C 16.26671,7.643903 16.546329,6.5090668 16.689607,5.7797529 16.900013,4.7087067 16.947422,4.279453 16.930044,3.6024059 16.916697,3.0826043 16.907593,3.0273303 16.805704,2.8501953 16.611872,2.5130433 16.336819,2.238481 16.046552,2.0923358 15.805779,1.9711345 15.729462,1.9542005 15.361133,1.9402514 c -0.471234,-0.017878 -0.871337,0.064962 -1.464432,0.3030734 -0.674366,0.2707247 -1.825842,0.9472665 -1.825842,1.0727527 0,0.099255 3.869265,4.6978384 3.966484,4.7138477 0.05626,0.00925 0.09351,-0.01993 0.121542,-0.095381 z M 7.8068211,2.8138209 c 0.329546,-0.4247037 0.3272551,-0.420366 0.222007,-0.420366 -0.045521,0 -0.092602,-0.016261 -0.1046261,-0.036192 C 7.9121758,2.3374145 8.1029761,2.1210177 8.3481974,1.8764849 8.5934178,1.631952 8.7907669,1.4306394 8.7867198,1.4290967 8.7826447,1.4276738 8.6076355,1.4032514 8.3977275,1.3749874 8.0245463,1.3247907 8.0132069,1.3257971 7.8866623,1.4203361 c -0.136399,0.1019012 -0.8096322,0.77228 -0.7927678,0.7894671 0.00537,0.00549 0.17326,0.0392 0.3730154,0.074862 0.1997713,0.035674 0.3714767,0.073275 0.3815904,0.083604 C 7.8586083,2.3786226 7.7690573,2.511854 7.6495223,2.664403 7.4790027,2.8819961 7.4143463,2.9368524 7.3494187,2.9190363 7.3038981,2.9065253 7.156261,2.8747041 7.0213528,2.8482695 6.8864335,2.8218752 6.7598712,2.7852671 6.7401055,2.7670039 6.7203366,2.74872 6.7797323,2.624879 6.8721582,2.4916414 7.0132943,2.2882027 7.0300842,2.2437241 6.9771699,2.2134406 6.9425324,2.1936119 6.8877088,2.1878189 6.8553573,2.2005028 6.7997681,2.2223229 6.387646,2.8319359 6.387646,2.8923241 c 0,0.015571 0.256876,0.084732 0.5708464,0.1537024 l 0.5708465,0.125398 z m 4.3251369,-0.020997 c 0.597238,-0.3828855 1.519572,-0.8569186 1.962434,-1.0085377 0.17989,-0.061599 0.465059,-0.1242317 0.633673,-0.1391821 l 0.306642,-0.027197 -0.204422,-0.070431 C 13.397338,1.0537002 7.5185004,0.01415603 6.0812393,3.2378659e-4 5.5902567,-0.00445295 5.4493503,0.03965574 4.80077,0.40077886 4.1155822,0.78235152 3.1872622,1.5202646 3.2538586,1.6304478 c 0.015445,0.02554 0.1335723,0.058611 0.2625172,0.07348 0.5029093,0.057981 2.1448396,0.2842977 2.7065052,0.3730619 l 0.5913664,0.093452 0.4102785,-0.423792 C 7.4501826,1.5135649 7.710536,1.2713267 7.8030574,1.2083662 l 0.1682457,-0.1144914 0.668669,0.087638 c 0.3677594,0.048194 0.6732739,0.092344 0.6789143,0.098116 0.00567,0.0058 -0.1538162,0.148129 -0.3543537,0.316358 -0.3958939,0.3321262 -0.8338069,0.7838166 -0.7867228,0.8114211 0.016141,0.00943 0.1213525,0.030642 0.2337834,0.047016 0.1523771,0.022228 2.3615517,0.468183 3.1479867,0.6355521 0.0516,0.010995 0.262731,-0.098614 0.572383,-0.2971337 z"
     stroke-width="0.0413438"
     id="path184" /><g
     id="g421"
     transform="matrix(0.14925096,0,0,0.14925096,-136.39861,9.6543908)"><g
       id="_x35_11_x2C__Chain_x2C__Fashion_x2C__Jewelry_x2C__Jewelry_x2C__Luxury">
	<g
   id="g401">
		<path
   d="m 453.8,96.8 c 0,-16.5 -13.2,-30.1 -29.6,-30.6 l -53.3,-8.9 c -3.8,-12.6 -15.5,-21.8 -29.3,-21.8 -13.8,0 -25.5,9.2 -29.3,21.8 L 259,66.2 c -16.4,0.5 -29.6,14 -29.6,30.6 0,13.3 8.5,24.6 20.4,28.9 v 23.9 c -11.9,4.2 -20.4,15.6 -20.4,28.9 0,13.3 8.5,24.6 20.4,28.9 v 23.9 c -11.9,4.2 -20.4,15.6 -20.4,28.9 0,13.3 8.5,24.6 20.4,28.9 V 313 c -11.9,4.2 -20.4,15.6 -20.4,28.9 0,13.3 8.5,24.6 20.4,28.9 v 23.9 c -17.8,6.3 -25.6,27 -16.7,43.4 l -26.4,4.4 c -4.6,-11.1 -15.5,-18.9 -28.3,-18.9 -12.6,0 -23.5,7.7 -28.2,18.6 l -26,-5.2 c 8,-16.3 0,-36.2 -17.3,-42.3 v -23.9 c 11.9,-4.2 20.4,-15.6 20.4,-28.9 0,-13.3 -8.5,-24.6 -20.4,-28.9 v -23.9 c 11.9,-4.2 20.4,-15.6 20.4,-28.9 0,-13.3 -8.5,-24.6 -20.4,-28.9 v -23.9 c 11.9,-4.2 20.4,-15.6 20.4,-28.9 0,-13.3 -8.5,-24.6 -20.4,-28.9 v -32.4 c 0,-5.6 -4.6,-10.2 -10.2,-10.2 -5.6,0 -10.2,-4.6 -10.2,-10.2 0,-5.6 4.6,-10.2 10.2,-10.2 5.6,0 10.2,-4.6 10.2,-10.2 0,-5.6 -4.6,-10.2 -10.2,-10.2 -16.9,0 -30.6,13.7 -30.6,30.6 0,13.3 8.5,24.6 20.4,28.9 v 23.9 c -11.9,4.2 -20.4,15.6 -20.4,28.9 0,13.3 8.5,24.6 20.4,28.9 v 23.9 c -11.9,4.2 -20.4,15.6 -20.4,28.9 0,13.3 8.5,24.6 20.4,28.9 V 313 c -11.9,4.2 -20.4,15.6 -20.4,28.9 0,13.3 8.5,24.6 20.4,28.9 v 23.9 c -11.9,4.2 -20.4,15.6 -20.4,28.9 0,19.4 18,34.1 37.1,29.9 1.7,0.7 -0.7,0 45.8,9.3 3.7,12.7 15.5,22 29.4,22 13.8,0 25.5,-9.2 29.3,-21.7 l 53.3,-8.9 c 16.4,-0.5 29.6,-14 29.6,-30.6 0,-13.3 -8.5,-24.6 -20.4,-28.9 v -23.9 c 11.9,-4.2 20.4,-15.6 20.4,-28.9 0,-13.3 -8.5,-24.6 -20.4,-28.9 v -23.9 c 11.9,-4.2 20.4,-15.6 20.4,-28.9 0,-13.3 -8.5,-24.6 -20.4,-28.9 v -23.9 c 11.9,-4.2 20.4,-15.6 20.4,-28.9 0,-13.3 -8.5,-24.6 -20.4,-28.9 v -23.9 c 17.8,-6.3 25.6,-27 16.7,-43.4 l 26.4,-4.4 c 4.6,11.1 15.5,19 28.3,19 12.8,0 23.7,-7.8 28.3,-19 l 26.4,4.4 c -8.9,16.4 -1,37.1 16.7,43.4 v 23.9 c -11.9,4.2 -20.4,15.6 -20.4,28.9 0,13.3 8.5,24.6 20.4,28.9 v 23.9 c -11.9,4.2 -20.4,15.6 -20.4,28.9 0,13.3 8.5,24.6 20.4,28.9 V 313 c -11.9,4.2 -20.4,15.6 -20.4,28.9 0,13.3 8.5,24.6 20.4,28.9 v 32.4 c 0,5.6 4.6,10.2 10.2,10.2 5.6,0 10.2,4.6 10.2,10.2 0,5.6 -4.6,10.2 -10.2,10.2 -5.6,0 -10.2,4.6 -10.2,10.2 0,5.6 4.6,10.2 10.2,10.2 16.9,0 30.6,-13.7 30.6,-30.6 0,-13.3 -8.5,-24.6 -20.4,-28.9 v -23.9 c 11.9,-4.2 20.4,-15.6 20.4,-28.9 0,-13.3 -8.5,-24.6 -20.4,-28.9 v -23.9 c 11.9,-4.2 20.4,-15.6 20.4,-28.9 0,-13.3 -8.5,-24.6 -20.4,-28.9 v -23.9 c 11.9,-4.2 20.4,-15.6 20.4,-28.9 0,-13.3 -8.5,-24.6 -20.4,-28.9 v -23.9 c 11.9,-4.3 20.4,-15.6 20.4,-28.9 z m -30.6,10.1 c -5.6,0 -10.2,-4.6 -10.2,-10.2 0,-5.6 4.6,-10.2 10.2,-10.2 v 0 c 5.6,0 10.2,4.6 10.2,10.2 0,5.7 -4.5,10.2 -10.2,10.2 z M 96.7,168.2 c 5.6,0 10.2,4.6 10.2,10.2 0,5.6 -4.6,10.2 -10.2,10.2 -5.6,0 -10.2,-4.6 -10.2,-10.2 0,-5.6 4.6,-10.2 10.2,-10.2 z m 0,81.6 c 5.6,0 10.2,4.6 10.2,10.2 0,5.6 -4.6,10.2 -10.2,10.2 -5.6,0 -10.2,-4.6 -10.2,-10.2 0,-5.6 4.6,-10.2 10.2,-10.2 z m 0,81.6 c 5.6,0 10.2,4.6 10.2,10.2 0,5.6 -4.6,10.2 -10.2,10.2 -5.6,0 -10.2,-4.6 -10.2,-10.2 0,-5.6 4.6,-10.2 10.2,-10.2 z m -10.2,91.9 c 0,-5.6 4.6,-10.2 10.2,-10.2 5.6,0 10.2,4.6 10.2,10.2 0,5.6 -4.6,10.2 -10.2,10.2 -5.6,0 -10.2,-4.6 -10.2,-10.2 z m 91.8,40.8 c -5.6,0 -10.2,-4.6 -10.2,-10.2 0,-5.6 4.6,-10.2 10.2,-10.2 5.6,0 10.2,4.6 10.2,10.2 0.1,5.6 -4.5,10.2 -10.2,10.2 z M 260,433.5 c -5.6,0 -10.2,-4.6 -10.2,-10.2 0,-5.6 4.6,-10.2 10.2,-10.2 5.6,0 10.2,4.6 10.2,10.2 0,5.6 -4.6,10.2 -10.2,10.2 z m 0,-81.7 c -5.6,0 -10.2,-4.6 -10.2,-10.2 0,-5.6 4.6,-10.2 10.2,-10.2 5.6,0 10.2,4.6 10.2,10.2 0,5.7 -4.6,10.2 -10.2,10.2 z m 0,-81.6 c -5.6,0 -10.2,-4.6 -10.2,-10.2 0,-5.6 4.6,-10.2 10.2,-10.2 5.6,0 10.2,4.6 10.2,10.2 0,5.6 -4.6,10.2 -10.2,10.2 z m 0,-81.6 c -5.6,0 -10.2,-4.6 -10.2,-10.2 0,-5.6 4.6,-10.2 10.2,-10.2 5.6,0 10.2,4.6 10.2,10.2 0,5.6 -4.6,10.2 -10.2,10.2 z m 0,-81.7 c -5.6,0 -10.2,-4.6 -10.2,-10.2 0,-5.6 4.5,-10.2 10.2,-10.2 5.6,0 10.2,4.6 10.2,10.2 0,5.6 -4.6,10.2 -10.2,10.2 z m 81.6,-30.6 c -5.6,0 -10.2,-4.6 -10.2,-10.2 0,-5.6 4.6,-10.2 10.2,-10.2 5.6,0 10.2,4.6 10.2,10.2 0,5.7 -4.6,10.2 -10.2,10.2 z m 81.6,275.5 c -5.6,0 -10.2,-4.6 -10.2,-10.2 0,-5.6 4.6,-10.2 10.2,-10.2 5.6,0 10.2,4.6 10.2,10.2 0,5.7 -4.5,10.2 -10.2,10.2 z m 0,-81.6 c -5.6,0 -10.2,-4.6 -10.2,-10.2 0,-5.6 4.6,-10.2 10.2,-10.2 5.6,0 10.2,4.6 10.2,10.2 0,5.6 -4.5,10.2 -10.2,10.2 z m 0,-81.6 c -5.6,0 -10.2,-4.6 -10.2,-10.2 0,-5.6 4.6,-10.2 10.2,-10.2 5.6,0 10.2,4.6 10.2,10.2 0,5.6 -4.5,10.2 -10.2,10.2 z"
   id="path385" />
		<path
   d="m 321.2,443.7 c -5.6,0 -10.2,4.6 -10.2,10.2 0,5.6 4.6,10.2 10.2,10.2 5.6,0 10.2,-4.6 10.2,-10.2 0,-5.7 -4.5,-10.2 -10.2,-10.2 z"
   id="path387" />
		<path
   d="m 351.8,290.6 c -5.6,0 -10.2,4.6 -10.2,10.2 0,5.6 4.6,10.2 10.2,10.2 5.6,0 10.2,-4.6 10.2,-10.2 0,-5.6 -4.5,-10.2 -10.2,-10.2 z"
   id="path389" />
		<circle
   cx="168.2"
   cy="290.60001"
   r="10.2"
   id="circle391" />
		<path
   d="m 168.2,96.8 c 5.6,0 10.2,-4.6 10.2,-10.2 0,-5.6 -4.6,-10.2 -10.2,-10.2 -5.6,0 -10.2,4.6 -10.2,10.2 0,5.6 4.5,10.2 10.2,10.2 z"
   id="path393" />
		<path
   d="m 45.7,219.2 c -5.6,0 -10.2,4.6 -10.2,10.2 0,5.6 4.6,10.2 10.2,10.2 5.6,0 10.2,-4.6 10.2,-10.2 0,-5.6 -4.5,-10.2 -10.2,-10.2 z"
   id="path395" />
		<path
   d="m 474.3,362 c -5.6,0 -10.2,4.6 -10.2,10.2 0,5.6 4.6,10.2 10.2,10.2 5.6,0 10.2,-4.6 10.2,-10.2 0,-5.6 -4.6,-10.2 -10.2,-10.2 z"
   id="path397" />
		<path
   d="m 474.3,45.7 c 0,-5.6 -4.6,-10.2 -10.2,-10.2 -5.6,0 -10.2,4.6 -10.2,10.2 0,5.6 4.6,10.2 10.2,10.2 5.6,0 10.2,-4.5 10.2,-10.2 z"
   id="path399" />
	</g>
</g><g
       id="Layer_1_1_">
</g></g><g
     id="Layer_1_1_-5"
     transform="matrix(0.26458333,0,0,0.26458333,19.507088,-49.246291)">
</g><path
     id="path681"
     style="fill:#000000;fill-opacity:1;fill-rule:evenodd;stroke:#000000;stroke-width:0.264583;stroke-dasharray:none;stroke-opacity:1"
     d="m 24.355561,54.83221 c -3.098587,0 -5.618453,-2.517523 -5.618453,-5.613177 0,-3.095656 2.519866,-5.613178 5.618453,-5.613178 3.098587,0 5.618453,2.517522 5.618453,5.613178 0,3.095654 -2.519866,5.613177 -5.618453,5.613177 M 45.511434,29.951388 c -0.646427,0.0023 -1.298361,0.202091 -1.859835,0.614433 -1.107335,0.813217 -1.528708,2.211727 -1.159102,3.465421 l -1.989543,1.46141 c -1.0773,-0.73397 -2.546188,-0.74449 -3.653524,0.06873 -1.107336,0.813219 -1.528707,2.211728 -1.159102,3.465422 l -1.989543,1.461409 c -1.077301,-0.733967 -2.54619,-0.744489 -3.653523,0.06873 -0.5574,0.409349 -0.940567,0.966888 -1.136882,1.579749 -1.313631,-0.844872 -2.876156,-1.337386 -4.554761,-1.337386 -4.654904,0 -8.427909,3.769265 -8.427909,8.419641 0,1.82429 0.587119,3.509639 1.574581,4.889104 l -12.9154909,12.90309 1.9864421,1.98438 2.0029785,-2.00092 1.9466513,1.94511 1.987475,-1.98438 -1.948201,-1.9451 2.779675,-2.77709 1.975074,1.973 1.985925,-1.98437 -1.974557,-1.97301 4.164604,-4.16047 c 1.375105,0.97388 3.049386,1.55081 4.862752,1.55081 4.654906,0 8.427393,-3.76961 8.427393,-8.420154 0,-1.045968 -0.192218,-2.046407 -0.541052,-2.970362 0.542457,-0.0561 1.077376,-0.251316 1.547192,-0.596346 1.107335,-0.813218 1.52819,-2.211729 1.158586,-3.465421 l 1.990059,-1.46141 c 1.077301,0.733969 2.546188,0.74449 3.653524,-0.06873 1.107335,-0.81322 1.528191,-2.211728 1.158585,-3.465422 l 1.99006,-1.461409 c 1.612893,1.096787 3.813089,0.480274 4.634342,-1.263489 l 1.980758,1.929081 c -0.642903,1.061689 -0.626067,2.446224 0.15658,3.51193 0.770416,1.049055 2.078291,1.485938 3.273185,1.210779 l 1.156518,2.482536 c -1.846264,0.330584 -3.01385,2.213279 -2.463932,4.026628 l -1.989543,1.461409 c -1.077301,-0.733967 -2.54619,-0.744489 -3.653523,0.06873 -0.725252,0.532618 -1.154812,1.316527 -1.261939,2.146122 -3.936201,-1.302266 -8.434427,2.673367 -5.683891,7.971087 1.673077,3.21747 6.14865,7.59307 8.694043,9.92394 0.272126,0.24591 0.685685,0.24591 0.958081,0 2.531125,-2.33087 7.007014,-6.70647 8.680091,-9.92394 2.909422,-5.60375 -2.291474,-9.726976 -6.358785,-7.690484 -0.0093,-0.2675 -0.05002,-0.535326 -0.127124,-0.796851 l 1.990059,-1.461409 c 1.077301,0.733968 2.546188,0.744489 3.653524,-0.06873 1.61521,-1.186198 1.738713,-3.583585 0.221175,-4.917012 -0.04566,-0.18434 0.04267,0.05851 -2.026233,-4.381645 0.831147,-1.084587 0.884015,-2.635759 0.03411,-3.79305 -0.84379,-1.148965 -2.325154,-1.560514 -3.598229,-1.112594 L 48.00896,31.159066 c -0.620109,-0.792575 -1.552744,-1.210972 -2.497522,-1.207678 z m 2.319479,22.395765 c -0.342408,-0.466248 -0.240683,-1.130501 0.225564,-1.472909 0.466248,-0.342408 1.1305,-0.240683 1.472908,0.225565 0.342409,0.466247 0.240683,1.1305 -0.225564,1.472908 -0.466247,0.342413 -1.1305,0.240683 -1.472908,-0.225564 z m 8.275124,-4.769926 c -0.466247,0.342408 -1.1305,0.240683 -1.472908,-0.225565 -0.342408,-0.466247 -0.240683,-1.1305 0.225564,-1.472908 0.466248,-0.342408 1.1305,-0.240683 1.472909,0.225565 0.342408,0.466247 0.240683,1.1305 -0.225565,1.472908 z M 53.889935,37.439412 c 0.342408,0.466248 0.240683,1.1305 -0.225565,1.472909 -0.466247,0.342408 -1.1305,0.240683 -1.472908,-0.225565 -0.342408,-0.466247 -0.240683,-1.1305 0.225565,-1.472908 0.460133,-0.350734 1.124385,-0.249009 1.472908,0.225564 z m -7.543199,-4.9312 c 0.342408,0.466247 0.240683,1.1305 -0.225565,1.472908 -0.466247,0.342408 -1.1305,0.240683 -1.472908,-0.225564 -0.342408,-0.466247 -0.240683,-1.1305 0.225565,-1.472908 0.466247,-0.342408 1.1305,-0.240683 1.472908,0.225564 z m -6.802216,4.99549 c 0.342408,0.466248 0.240683,1.1305 -0.225565,1.472908 -0.466247,0.342409 -1.1305,0.240683 -1.472908,-0.225564 -0.342408,-0.466247 -0.240683,-1.1305 0.225564,-1.472908 0.474574,-0.348523 1.1305,-0.240683 1.472909,0.225564 z m -6.793891,4.989376 c 0.342408,0.466247 0.240683,1.1305 -0.225564,1.472908 -0.466247,0.342408 -1.1305,0.240683 -1.472908,-0.225564 -0.342408,-0.466248 -0.240683,-1.1305 0.225564,-1.472908 0.466247,-0.342409 1.1305,-0.240684 1.472908,0.225564 z" /><path
     d="m 56.233461,2.2159879 c 0,4.0605035 -3.291658,7.3521364 -7.352167,7.3521364 -4.06051,0 -7.352106,-3.2916329 -7.352106,-7.3521364 0,-3.019767 1.823978,-5.6086996 4.42743,-6.740275 l 0.287756,0.2238322 1.264397,0.9833891 c -2.488781,0.6188861 -4.345795,2.8554058 -4.345795,5.5330537 0,3.1530864 2.565227,5.7183285 5.718318,5.7183285 3.15309,0 5.718379,-2.5652421 5.718379,-5.7183285 0,-2.6776479 -1.857014,-4.9141676 -4.345795,-5.5330543 l 1.552092,-1.2070577 c 2.603513,1.131576 4.427491,3.720345 4.427491,6.740112 z m -7.352167,-6.5352321 4.08453,-3.1769399 -1.633787,-2.5413889 h -4.901425 l -1.633787,2.5413889 2.450681,1.9061641 z"
     id="path6336"
     style="stroke-width:1.63381" /><g
     style="clip-rule:evenodd;fill-rule:evenodd;image-rendering:optimizeQuality;shape-rendering:geometricPrecision;text-rendering:geometricPrecision"
     id="g9381"
     transform="matrix(0.0254,0,0,0.0254,-46.403865,26.826653)"><g
       id="Layer_x0020_1"
       inkscape:label="Layer 1"
       inkscape:groupmode="layer">
  <metadata
   id="CorelCorpID_0Corel-Layer" />
  <path
   class="fil0"
   d="m 1402.96,1319.33 c 44.57,-131.35 13.74,-339.76 -183.2,-623.62 -31.9,31.88 -58.69,31.79 -90.54,-0.06 -196.98,283.9 -227.8,492.31 -183.23,623.68 77.59,228.68 379.38,228.68 456.98,0 z"
   id="path9355" />
  <path
   class="fil0"
   d="m 1222.4,1519.43 c -31.65,5.7 -64.13,5.71 -95.78,0.02 -110.78,250.16 206.58,250.14 95.78,-0.02 z"
   id="path9357" />
  <path
   class="fil0"
   d="m 1160.49,680.24 c 7.69,7.7 20.35,7.7 28.06,0 l 80.18,-80.19 c 7.7,-7.69 7.69,-20.36 0,-28.06 l -58.68,-58.68 0.77,-73.47 c 54.51,-29.11 54.52,-107.35 0,-136.46 v -79.73 c 117.85,-36.67 97.58,-223.66 -36.31,-223.66 -63.23,0 -114.7,51.48 -114.7,114.7 0,47.81 72.61,47.81 72.61,0 0,-23.21 18.87,-42.09 42.09,-42.09 37.36,0 56.16,45.37 29.73,71.81 -20.14,20.14 -66.04,3.89 -66.04,48.67 v 110.29 c -54.52,29.11 -54.51,107.35 0,136.46 l 0.76,73.48 -58.67,58.67 c -7.7,7.84 -7.7,20.35 0,28.06 l 80.19,80.19 z"
   id="path9359" />
  <path
   class="fil0"
   d="m 760.68,1319.33 c 44.57,-131.35 13.74,-339.76 -183.2,-623.62 -31.9,31.88 -58.69,31.79 -90.54,-0.06 -196.98,283.9 -227.8,492.31 -183.23,623.68 77.59,228.68 379.38,228.68 456.98,0 z"
   id="path9361" />
  <path
   class="fil0"
   d="m 580.12,1519.43 c -31.65,5.7 -64.13,5.71 -95.78,0.02 -110.78,250.16 206.58,250.14 95.78,-0.02 z"
   id="path9363" />
  <path
   class="fil0"
   d="m 518.2,680.24 c 7.69,7.7 20.35,7.7 28.06,0 l 80.18,-80.19 c 7.7,-7.69 7.69,-20.36 0,-28.06 l -58.68,-58.68 0.77,-73.47 c 54.51,-29.11 54.52,-107.35 0,-136.46 V 223.65 C 686.38,186.98 666.11,-0.01 532.22,-0.01 c -63.23,0 -114.7,51.48 -114.7,114.7 0,47.81 72.61,47.81 72.61,0 0,-23.21 18.87,-42.09 42.09,-42.09 37.36,0 56.16,45.37 29.73,71.81 -20.14,20.14 -66.04,3.89 -66.04,48.67 v 110.29 c -54.52,29.11 -54.51,107.35 0,136.46 l 0.76,73.48 -58.67,58.67 c -7.7,7.84 -7.7,20.35 0,28.06 l 80.19,80.19 z"
   id="path9365" />
 </g></g><g
     id="g10943"
     transform="matrix(0.26458333,0,0,0.26458333,-141.08262,-52.667171)"><rect
       fill="none"
       width="100"
       height="100"
       id="rect10932"
       x="0"
       y="0" /><path
       d="m 58.595,30.662 c 0,-7.615 -3.848,-13.787 -8.595,-13.787 -4.746,0 -8.595,6.172 -8.595,13.787 0,6.486 2.797,11.911 6.558,13.381 -2.075,9.197 -3.544,29.227 -3.544,32.157 0,3.825 2.499,6.925 5.582,6.925 3.082,0 5.58,-3.1 5.58,-6.925 0,-2.93 -1.469,-22.96 -3.543,-32.157 3.762,-1.47 6.557,-6.895 6.557,-13.381 z"
       id="path10934" /><g
       id="g16229"
       transform="matrix(0.57141928,0,0,0.57141928,205.22778,-144.38159)">
		<path
   d="m 168.375,54.215 c -2.669,0 -5.312,0.711 -7.642,2.057 -7.32,4.229 -9.836,13.625 -5.607,20.945 2.729,4.731 7.823,7.669 13.296,7.669 2.672,0 5.318,-0.711 7.652,-2.056 3.542,-2.046 6.078,-5.353 7.137,-9.308 1.059,-3.955 0.514,-8.087 -1.534,-11.633 -2.734,-4.733 -7.831,-7.674 -13.302,-7.674 z"
   id="path16790" />
		<path
   d="m 212.566,66.584 c 1.336,0 2.676,-0.178 3.983,-0.528 8.166,-2.188 13.029,-10.608 10.842,-18.772 -1.793,-6.693 -7.879,-11.368 -14.799,-11.368 -1.335,0 -2.676,0.177 -3.983,0.527 -3.954,1.059 -7.258,3.595 -9.303,7.14 -2.046,3.545 -2.589,7.676 -1.529,11.632 1.793,6.694 7.874,11.369 14.789,11.369 z"
   id="path16787" />
		<path
   d="m 303.441,66.056 c 1.308,0.35 2.647,0.528 3.984,0.528 6.92,0 13.004,-4.675 14.796,-11.368 2.188,-8.165 -2.676,-16.585 -10.841,-18.773 -1.306,-0.35 -2.645,-0.527 -3.979,-0.527 -6.922,0 -13.008,4.675 -14.801,11.368 -1.061,3.955 -0.517,8.085 1.531,11.63 2.049,3.546 5.355,6.083 9.31,7.142 z"
   id="path16784" />
		<path
   d="m 259.996,60.34 c 8.452,0 15.329,-6.877 15.329,-15.33 0,-8.453 -6.877,-15.329 -15.329,-15.329 -8.453,0 -15.33,6.876 -15.33,15.329 0,8.453 6.877,15.33 15.33,15.33 z"
   id="path16781" />
		<path
   d="m 79.082,195.594 c 1.305,0.35 2.644,0.527 3.979,0.527 6.917,0 13,-4.675 14.793,-11.368 1.06,-3.956 0.517,-8.087 -1.53,-11.631 -2.047,-3.545 -5.354,-6.081 -9.311,-7.14 -1.309,-0.351 -2.649,-0.528 -3.985,-0.528 -6.915,0 -12.996,4.671 -14.788,11.36 -2.187,8.167 2.677,16.593 10.842,18.78 z"
   id="path16778" />
		<path
   d="m 93.686,149.88 c 2.332,1.347 4.977,2.059 7.649,2.059 5.469,0 10.563,-2.938 13.295,-7.667 4.221,-7.325 1.704,-16.722 -5.613,-20.942 -2.335,-1.348 -4.98,-2.061 -7.652,-2.061 -5.469,0 -10.563,2.938 -13.295,7.667 -4.228,7.318 -1.708,16.713 5.616,20.944 z"
   id="path16775" />
		<path
   d="m 130.461,113.993 c 4.094,0 7.943,-1.595 10.838,-4.49 5.975,-5.975 5.974,-15.703 -0.002,-21.686 -2.894,-2.894 -6.743,-4.488 -10.836,-4.488 -4.095,0 -7.947,1.595 -10.847,4.492 -5.972,5.979 -5.973,15.707 0.002,21.682 2.898,2.894 6.75,4.49 10.845,4.49 z"
   id="path16772" />
		<path
   d="m 60,435 c -8.271,0 -15,6.729 -15,15 0,8.271 6.729,15 15,15 8.271,0 15,-6.729 15,-15 0,-8.271 -6.729,-15 -15,-15 z"
   id="path16769" />
		<path
   d="m 67.711,78.329 c 0,-8.271 -6.729,-15 -15,-15 -8.271,0 -15,6.729 -15,15 0,8.271 6.729,15 15,15 8.271,0 15,-6.729 15,-15 z"
   id="path16766" />
		<path
   d="m 443.188,80.34 c 8.271,0 15,-6.729 15,-15 0,-8.271 -6.729,-15 -15,-15 -8.271,0 -15,6.729 -15,15 0,8.271 6.73,15 15,15 z"
   id="path16763" />
		<path
   d="m 443.184,243.528 c 8.458,0 15.339,-6.877 15.339,-15.33 0,-8.453 -6.881,-15.329 -15.339,-15.329 -8.452,0 -15.329,6.876 -15.329,15.329 -0.001,8.453 6.876,15.33 15.329,15.33 z"
   id="path16760" />
		<path
   d="m 440.91,195.594 c 8.165,-2.186 13.028,-10.611 10.841,-18.782 -1.792,-6.688 -7.873,-11.359 -14.788,-11.359 -1.336,0 -2.676,0.178 -3.983,0.528 -3.955,1.06 -7.262,3.596 -9.31,7.142 -2.048,3.545 -2.592,7.676 -1.532,11.63 1.794,6.694 7.877,11.369 14.794,11.369 1.334,-0.001 2.672,-0.178 3.978,-0.528 z"
   id="path16757" />
		<path
   d="m 61.478,228.198 c 0,8.453 6.877,15.33 15.33,15.33 8.453,0 15.33,-6.877 15.33,-15.33 0,-8.453 -6.877,-15.329 -15.33,-15.329 -8.454,0 -15.33,6.877 -15.33,15.329 z"
   id="path16754" />
		<path
   d="m 405.371,144.274 c 2.728,4.729 7.817,7.666 13.285,7.666 2.673,0 5.317,-0.712 7.649,-2.059 3.551,-2.05 6.09,-5.356 7.149,-9.312 1.06,-3.955 0.515,-8.085 -1.533,-11.631 -2.732,-4.729 -7.826,-7.667 -13.295,-7.667 -2.672,0 -5.317,0.712 -7.649,2.059 -3.547,2.046 -6.083,5.35 -7.142,9.305 -1.058,3.955 -0.513,8.089 1.536,11.639 z"
   id="path16751" />
		<path
   d="m 389.534,113.993 c 4.096,0 7.946,-1.595 10.842,-4.49 5.975,-5.975 5.974,-15.703 -0.002,-21.686 -2.894,-2.894 -6.744,-4.488 -10.84,-4.488 -4.097,0 -7.947,1.595 -10.843,4.49 -5.974,5.98 -5.975,15.709 0,21.684 2.896,2.895 6.747,4.49 10.843,4.49 z"
   id="path16748" />
		<path
   d="m 359.258,56.272 c -2.329,-1.346 -4.972,-2.057 -7.642,-2.057 -5.471,0 -10.568,2.94 -13.303,7.673 -4.227,7.318 -1.707,16.713 5.617,20.944 2.328,1.343 4.971,2.053 7.642,2.053 5.472,0 10.569,-2.938 13.303,-7.669 4.221,-7.319 1.702,-16.716 -5.617,-20.944 z"
   id="path16745" />
		<path
   d="m 451.751,279.583 c 1.061,-3.957 0.517,-8.09 -1.529,-11.637 -2.047,-3.548 -5.354,-6.085 -9.311,-7.144 -1.307,-0.35 -2.645,-0.527 -3.979,-0.527 -6.917,0 -13,4.675 -14.793,11.369 -1.061,3.955 -0.517,8.088 1.532,11.636 2.048,3.548 5.354,6.086 9.309,7.145 1.306,0.35 2.644,0.527 3.979,0.527 6.916,0 12.999,-4.675 14.792,-11.369 z"
   id="path16742" />
		<path
   d="m 96.323,283.281 c 2.047,-3.547 2.59,-7.68 1.53,-11.637 -1.793,-6.694 -7.877,-11.369 -14.794,-11.369 -1.334,0 -2.673,0.178 -3.978,0.527 -3.955,1.059 -7.261,3.597 -9.309,7.145 -2.048,3.548 -2.592,7.681 -1.533,11.636 1.793,6.694 7.877,11.369 14.794,11.369 1.334,0 2.673,-0.178 3.978,-0.527 3.959,-1.059 7.265,-3.596 9.312,-7.144 z"
   id="path16739" />
		<path
   d="m 389.534,342.405 c -4.097,0 -7.947,1.594 -10.843,4.489 -5.978,5.979 -5.978,15.706 0,21.685 2.896,2.895 6.746,4.489 10.843,4.489 4.096,0 7.946,-1.595 10.842,-4.49 5.978,-5.978 5.978,-15.705 0,-21.684 -2.896,-2.895 -6.746,-4.489 -10.842,-4.489 z"
   id="path16736" />
		<path
   d="m 465,385 c -11.028,0 -20,8.972 -20,20 0,11.028 8.972,20 20,20 11.028,0 20,-8.972 20,-20 0,-11.028 -8.972,-20 -20,-20 z"
   id="path16733" />
		<path
   d="m 426.308,306.519 c -2.332,-1.348 -4.974,-2.059 -7.644,-2.059 -5.47,0 -10.563,2.938 -13.292,7.67 -2.05,3.549 -2.595,7.681 -1.536,11.637 1.06,3.955 3.596,7.262 7.142,9.31 2.328,1.344 4.972,2.054 7.643,2.054 5.473,0 10.569,-2.938 13.301,-7.669 2.049,-3.547 2.594,-7.678 1.534,-11.633 -1.06,-3.955 -3.599,-7.263 -7.148,-9.31 z"
   id="path16730" />
		<path
   d="m 181.943,379.675 c -1.681,-1.543 -3.109,-3.231 -4.258,-5.013 -0.514,-0.39 -1.045,-0.761 -1.613,-1.088 -2.336,-1.348 -4.984,-2.061 -7.658,-2.061 -5.47,0 -10.561,2.937 -13.288,7.664 -2.05,3.549 -2.595,7.681 -1.536,11.637 1.059,3.955 3.595,7.262 7.142,9.31 2.332,1.348 4.976,2.06 7.647,2.06 5.469,0 10.564,-2.94 13.296,-7.674 2.049,-3.547 2.594,-7.679 1.535,-11.633 -0.301,-1.127 -0.735,-2.194 -1.267,-3.202 z"
   id="path16727" />
		<path
   d="m 330.101,434.181 c -0.939,-0.722 -1.593,-1.753 -1.843,-2.911 -1.687,-7.819 -7.876,-15.479 -16.556,-20.489 -1.524,-0.886 -3.233,-1.622 -5.237,-2.258 -2.076,-0.658 -3.486,-2.584 -3.488,-4.762 -0.002,-2.178 1.406,-4.105 3.48,-4.768 1.981,-0.632 3.696,-1.374 5.242,-2.268 8.681,-5.011 14.87,-12.671 16.559,-20.492 0.25,-1.156 0.901,-2.187 1.839,-2.907 0.049,-0.038 0.093,-0.078 0.142,-0.116 1.204,-1.889 2.656,-3.605 4.325,-5.114 1.394,-2.706 1.633,-5.506 0.406,-7.632 -1.279,-2.212 -4.001,-3.483 -7.464,-3.483 -1.985,0 -4.1,0.439 -6.115,1.271 -1.092,0.45 -2.307,0.5 -3.433,0.14 -2.33,-0.747 -4.908,-1.125 -7.66,-1.125 -6.009,0 -12.531,1.855 -18.367,5.224 -1.537,0.89 -3.073,2.034 -4.56,3.398 -1.605,1.476 -3.982,1.737 -5.872,0.651 -1.89,-1.086 -2.858,-3.271 -2.394,-5.4 0.445,-2.044 0.662,-3.902 0.662,-5.682 0,-10.012 -3.54,-19.202 -9.471,-24.585 -0.875,-0.794 -1.44,-1.873 -1.596,-3.044 -0.806,-6.068 -4.548,-10.645 -8.705,-10.645 -4.158,0 -7.9,4.576 -8.706,10.645 -0.156,1.171 -0.721,2.25 -1.596,3.044 -5.93,5.383 -9.47,14.573 -9.47,24.585 0,1.772 0.219,3.624 0.668,5.659 0.47,2.129 -0.492,4.316 -2.379,5.407 -1.888,1.092 -4.265,0.835 -5.873,-0.635 -1.513,-1.381 -3.05,-2.522 -4.567,-3.393 -5.848,-3.375 -12.371,-5.23 -18.379,-5.23 -2.753,0 -5.33,0.378 -7.661,1.125 -1.125,0.36 -2.342,0.311 -3.433,-0.14 -2.015,-0.832 -4.13,-1.271 -6.115,-1.271 -3.463,0 -6.185,1.271 -7.466,3.488 -1.222,2.119 -0.986,4.91 0.4,7.61 1.68,1.517 3.14,3.243 4.349,5.144 0.043,0.034 0.083,0.07 0.126,0.104 0.937,0.72 1.587,1.748 1.838,2.902 1.698,7.825 7.888,15.487 16.558,20.496 1.522,0.877 3.287,1.638 5.239,2.258 2.078,0.66 3.488,2.59 3.486,4.77 -0.002,2.181 -1.416,4.107 -3.494,4.764 -1.925,0.608 -3.684,1.369 -5.229,2.263 -8.674,5.011 -14.864,12.673 -16.561,20.496 -0.25,1.156 -0.903,2.186 -1.841,2.906 -4.854,3.728 -6.948,9.256 -4.87,12.859 1.278,2.21 3.996,3.48 7.455,3.48 1.987,0 4.103,-0.44 6.12,-1.275 1.095,-0.453 2.314,-0.502 3.441,-0.14 2.333,0.749 4.913,1.13 7.67,1.13 6.002,0 12.52,-1.854 18.354,-5.222 1.526,-0.879 3.019,-1.993 4.569,-3.407 0.944,-0.862 2.153,-1.308 3.373,-1.308 0.856,0 1.717,0.22 2.495,0.668 1.887,1.087 2.853,3.27 2.389,5.396 -0.439,2.018 -0.663,3.927 -0.663,5.674 0,10.018 3.541,19.211 9.47,24.594 0.875,0.794 1.44,1.873 1.596,3.044 0.806,6.068 4.548,10.645 8.706,10.645 4.157,0 7.899,-4.576 8.705,-10.645 0.155,-1.171 0.721,-2.25 1.596,-3.044 5.931,-5.383 9.471,-14.577 9.471,-24.594 0,-1.769 -0.219,-3.617 -0.668,-5.649 -0.471,-2.129 0.491,-4.317 2.379,-5.408 1.886,-1.091 4.263,-0.835 5.874,0.635 1.493,1.364 3.034,2.508 4.579,3.399 5.832,3.367 12.35,5.222 18.353,5.222 2.756,0 5.337,-0.381 7.669,-1.13 1.13,-0.363 2.347,-0.313 3.442,0.14 2.017,0.835 4.133,1.275 6.119,1.275 3.459,0 6.177,-1.271 7.458,-3.485 2.077,-3.598 -0.017,-9.127 -4.87,-12.854 z M 722.90166,252.79104 c -0.939,-0.722 -1.593,-1.753 -1.843,-2.911 -1.687,-7.819 -7.876,-15.479 -16.556,-20.489 -1.524,-0.886 -3.233,-1.622 -5.237,-2.258 -2.076,-0.658 -3.486,-2.584 -3.488,-4.762 -0.002,-2.178 1.406,-4.105 3.48,-4.768 1.981,-0.632 3.696,-1.374 5.242,-2.268 8.681,-5.011 14.87,-12.671 16.559,-20.492 0.25,-1.156 0.901,-2.187 1.839,-2.907 0.049,-0.038 0.093,-0.078 0.142,-0.116 1.204,-1.889 2.656,-3.605 4.325,-5.114 1.394,-2.706 1.633,-5.506 0.406,-7.632 -1.279,-2.212 -4.001,-3.483 -7.464,-3.483 -1.985,0 -4.1,0.439 -6.115,1.271 -1.092,0.45 -2.307,0.5 -3.433,0.14 -2.33,-0.747 -4.908,-1.125 -7.66,-1.125 -6.009,0 -12.531,1.855 -18.367,5.224 -1.537,0.89 -3.073,2.034 -4.56,3.398 -1.605,1.476 -3.982,1.737 -5.872,0.651 -1.89,-1.086 -2.858,-3.271 -2.394,-5.4 0.445,-2.044 0.662,-3.902 0.662,-5.682 0,-10.012 -3.54,-19.202 -9.471,-24.585 -0.875,-0.794 -1.44,-1.873 -1.596,-3.044 -0.806,-6.068 -4.548,-10.645 -8.705,-10.645 -4.158,0 -7.9,4.576 -8.706,10.645 -0.156,1.171 -0.721,2.25 -1.596,3.044 -5.93,5.383 -9.47,14.573 -9.47,24.585 0,1.772 0.219,3.624 0.668,5.659 0.47,2.129 -0.492,4.316 -2.379,5.407 -1.888,1.092 -4.265,0.835 -5.873,-0.635 -1.513,-1.381 -3.05,-2.522 -4.567,-3.393 -5.848,-3.375 -12.371,-5.23 -18.379,-5.23 -2.753,0 -5.33,0.378 -7.66101,1.125 -1.125,0.36 -2.342,0.311 -3.433,-0.14 -2.015,-0.832 -4.13,-1.271 -6.115,-1.271 -3.463,0 -6.185,1.271 -7.466,3.488 -1.222,2.119 -0.986,4.91 0.4,7.61 1.68,1.517 3.14,3.243 4.349,5.144 0.043,0.034 0.083,0.07 0.126,0.104 0.937,0.72 1.587,1.748 1.838,2.902 1.698,7.825 7.888,15.487 16.55801,20.496 1.522,0.877 3.287,1.638 5.239,2.258 2.078,0.66 3.488,2.59 3.486,4.77 -0.002,2.181 -1.416,4.107 -3.494,4.764 -1.925,0.608 -3.684,1.369 -5.229,2.263 -8.67401,5.011 -14.86401,12.673 -16.56101,20.496 -0.25,1.156 -0.903,2.186 -1.841,2.906 -4.854,3.728 -6.948,9.256 -4.87,12.859 1.278,2.21 3.996,3.48 7.455,3.48 1.987,0 4.103,-0.44 6.12,-1.275 1.095,-0.453 2.314,-0.502 3.441,-0.14 2.33301,0.749 4.91301,1.13 7.67001,1.13 6.002,0 12.52,-1.854 18.354,-5.222 1.526,-0.879 3.019,-1.993 4.569,-3.407 0.944,-0.862 2.153,-1.308 3.373,-1.308 0.856,0 1.717,0.22 2.495,0.668 1.887,1.087 2.853,3.27 2.389,5.396 -0.439,2.018 -0.663,3.927 -0.663,5.674 0,10.018 3.541,19.211 9.47,24.594 0.875,0.794 1.44,1.873 1.596,3.044 0.806,6.068 4.548,10.645 8.706,10.645 4.157,0 7.899,-4.576 8.705,-10.645 0.155,-1.171 0.721,-2.25 1.596,-3.044 5.931,-5.383 9.471,-14.577 9.471,-24.594 0,-1.769 -0.219,-3.617 -0.668,-5.649 -0.471,-2.129 0.491,-4.317 2.379,-5.408 1.886,-1.091 4.263,-0.835 5.874,0.635 1.493,1.364 3.034,2.508 4.579,3.399 5.832,3.367 12.35,5.222 18.353,5.222 2.756,0 5.337,-0.381 7.669,-1.13 1.13,-0.363 2.347,-0.313 3.442,0.14 2.017,0.835 4.133,1.275 6.119,1.275 3.459,0 6.177,-1.271 7.458,-3.485 2.077,-3.598 -0.017,-9.127 -4.87,-12.854 z"
   id="path16724" />
		<path
   d="m 351.579,371.514 c -2.672,0 -5.316,0.712 -7.648,2.06 -0.576,0.333 -1.115,0.709 -1.637,1.105 -1.144,1.771 -2.563,3.449 -4.233,4.984 -0.535,1.012 -0.973,2.083 -1.276,3.216 -1.062,3.955 -0.518,8.085 1.53,11.63 2.732,4.734 7.827,7.675 13.296,7.675 2.672,0 5.315,-0.712 7.647,-2.059 7.319,-4.228 9.838,-13.625 5.615,-20.947 -2.73,-4.727 -7.825,-7.664 -13.294,-7.664 z"
   id="path16721" />
		<path
   d="m 114.628,312.13 c -2.732,-4.729 -7.83,-7.67 -13.301,-7.67 -2.669,0 -5.312,0.711 -7.642,2.057 -3.547,2.05 -6.085,5.356 -7.146,9.313 -1.061,3.957 -0.518,8.087 1.53,11.632 2.732,4.73 7.83,7.669 13.302,7.669 2.67,0 5.314,-0.71 7.645,-2.055 7.317,-4.226 9.835,-13.624 5.612,-20.946 z"
   id="path16718" />
		<path
   d="m 130.461,342.405 c -4.095,-10e-4 -7.947,1.595 -10.847,4.491 -5.977,5.977 -5.977,15.704 0.002,21.683 2.898,2.894 6.75,4.489 10.845,4.489 4.094,0 7.943,-1.595 10.839,-4.49 5.978,-5.978 5.978,-15.705 0,-21.684 -2.896,-2.895 -6.745,-4.489 -10.839,-4.489 z"
   id="path16715" />
	</g></g><path
     d="m -61.283505,155.37589 h -24.371244 v -24.37011 a 3.490251,3.490251 0 0 0 -3.489378,-3.49051 h -20.880733 a 3.49123,3.49123 0 0 0 -3.49051,3.49051 v 24.37011 h -24.37011 a 3.49123,3.49123 0 0 0 -3.49052,3.49052 v 20.88073 a 3.490251,3.490251 0 0 0 3.49052,3.48938 h 24.37011 v 52.23188 a 3.490251,3.490251 0 0 0 3.49051,3.48937 h 20.880733 a 3.4892985,3.4892985 0 0 0 3.489378,-3.48937 v -52.23188 h 24.371244 a 3.4892985,3.4892985 0 0 0 3.48938,-3.48938 v -20.88073 a 3.490251,3.490251 0 0 0 -3.48938,-3.49052 z m -10.440932,17.41289 h -24.378047 v 52.23868 a 3.4825781,3.4825781 0 0 1 -6.965156,0 v -52.23868 h -24.37805 a 3.4825781,3.4825781 0 1 1 0,-6.96515 h 24.37805 v -24.37805 a 3.4825781,3.4825781 0 0 1 6.965156,0 v 24.37805 h 24.378047 a 3.4825781,3.4825781 0 0 1 0,6.96515 z"
     id="path18747"
     style="stroke-width:0.264583" /><g
     id="g21840"
     transform="matrix(0.26458333,0,0,0.26458333,-137.01342,54.853815)"><g
       id="Guides">
</g><g
       id="_x32_0">
	<path
   d="M 9,24 C 8.4473,24 8,23.5527 8,23 V 17.4854 C 8,12.2803 5.9736,7.3877 2.293,3.707 1.9024,3.3164 1.9024,2.6836 2.293,2.2929 2.6836,1.9022 3.3164,1.9023 3.7071,2.2929 7.7656,6.3506 10,11.7461 10,17.4854 V 23 c 0,0.5527 -0.4473,1 -1,1 z"
   id="path21787" />
	<path
   d="M 16.6387,30 H 16 c -0.5527,0 -1,-0.4473 -1,-1 0,-0.5527 0.4473,-1 1,-1 h 0.6387 c 0.458,0 0.8701,-0.2549 1.0752,-0.6641 l 1.2676,-2.5342 C 18.3369,23.4199 18,21.9082 18,20.375 V 5.7891 C 18,4.8027 17.1973,4 16.2109,4 15.6914,4 15.1875,4.2354 14.8281,4.6465 11.7148,8.2012 10,12.7607 10,17.4854 V 23 C 10,23.5527 9.5527,24 9,24 8.4473,24 8,23.5527 8,23 V 17.4854 C 8,12.2754 9.8906,7.2481 13.3232,3.3291 14.0625,2.4844 15.1152,2 16.2109,2 18.2998,2 20,3.7002 20,5.7891 V 20.375 c 0,0.7275 0.0938,1.4492 0.2764,2.1475 C 21.5234,20.9404 23.4258,20 25.5,20 c 2.4814,0 4.5,2.0186 4.5,4.5 0,2.4814 -2.0186,4.5 -4.5,4.5 h -0.2939 c -1.9063,0 -3.7207,-0.832 -4.9727,-2.2305 l -0.7305,1.4609 C 18.9561,29.3223 17.8584,30 16.6387,30 Z m 4.5918,-5.2256 C 22.0742,26.1484 23.5928,27 25.2061,27 H 25.5 C 26.8789,27 28,25.8789 28,24.5 28,23.1211 26.8789,22 25.5,22 c -1.7783,0 -3.376,0.9873 -4.1709,2.5781 z"
   id="path21789" />
</g><g
       id="_x31_9">
</g><g
       id="_x31_8">
</g><g
       id="_x31_7">
</g><g
       id="_x31_6">
</g><g
       id="_x31_5">
</g><g
       id="_x31_4">
</g><g
       id="_x31_3">
</g><g
       id="_x31_2">
</g><g
       id="_x31_1">
</g><g
       id="_x31_0">
</g><g
       id="_x30_9">
</g><g
       id="_x30_8">
</g><g
       id="_x30_7">
</g><g
       id="_x30_6">
</g><g
       id="_x30_5">
</g><g
       id="_x30_4">
</g><g
       id="_x30_3">
</g><g
       id="_x30_2">
</g><g
       id="_x30_1">
</g></g><g
     style="clip-rule:evenodd;fill-rule:evenodd;image-rendering:optimizeQuality;shape-rendering:geometricPrecision;text-rendering:geometricPrecision"
     id="g30128"
     transform="matrix(0.02540039,0,0,0.02540039,73.008418,80.31132)"><g
       id="Layer_x0020_1-1">
  <metadata
   id="CorelCorpID_0Corel-Layer-8" />
  <path
   class="fil0"
   d="M 3116,3858 H 408 c -67,0 -121,-54 -121,-121 V 122 C 287,56 341,2 408,2 h 2708 c 67,0 121,54 121,120 v 3615 c 0,67 -54,121 -121,121 z M 1762,2667 c 33,0 61,-28 61,-61 v -517 l 498,-567 c 22,-26 19,-64 -6,-86 -25,-22 -63,-20 -85,5 l -407,464 v -651 c 0,-34 -28,-61 -61,-61 -34,0 -61,27 -61,61 v 651 l -407,-464 c -22,-25 -60,-27 -86,-5 -25,22 -27,60 -5,86 l 498,567 v 517 c 0,33 27,61 61,61 z m 949,726 c 33,0 60,-27 60,-61 V 528 c 0,-34 -27,-61 -60,-61 H 813 c -34,0 -61,27 -61,61 v 2804 c 0,34 27,61 61,61 z M 874,3271 V 589 h 1776 v 2682 z"
   id="path30111" />
  <path
   class="fil0"
   d="M 6704,3858 H 3995 c -67,0 -121,-54 -121,-121 V 122 C 3874,56 3928,2 3995,2 h 2709 c 66,0 120,54 120,120 v 3615 c 0,67 -54,121 -120,121 z M 5093,2871 c 33,0 60,-27 60,-61 v -213 l 499,-567 c 22,-26 19,-64 -6,-86 -25,-22 -64,-20 -86,5 l -407,464 v -520 l 499,-567 c 22,-26 19,-64 -6,-86 -25,-22 -64,-20 -86,5 l -407,464 v -660 c 0,-33 -27,-60 -60,-60 -34,0 -61,27 -61,60 v 1761 c 0,34 27,61 61,61 z m 1205,522 c 34,0 61,-27 61,-61 V 528 c 0,-34 -27,-61 -61,-61 H 4400 c -33,0 -60,27 -60,61 v 2804 c 0,34 27,61 60,61 z M 4461,3271 V 589 h 1776 v 2682 z"
   id="path30113" />
  <path
   class="fil0"
   d="M 5363,7109 H 1748 c -67,0 -121,-54 -121,-120 V 4280 c 0,-67 54,-121 121,-121 h 3615 c 67,0 121,54 121,121 v 2709 c 0,66 -54,120 -121,120 z M 4318,6135 c 22,0 42,-11 53,-30 16,-29 6,-66 -23,-83 l -671,-388 671,-387 c 30,-17 39,-54 23,-83 -17,-29 -54,-39 -83,-23 l -732,423 -733,-423 c -18,-10 -42,-10 -60,0 -19,11 -31,31 -31,53 v 881 c 0,21 12,41 31,52 18,11 42,11 60,0 l 733,-422 732,422 c 9,6 19,8 30,8 z m -1464,-836 580,335 -580,335 z m 2104,1345 c 33,0 60,-27 60,-61 V 4686 c 0,-34 -27,-61 -60,-61 H 2154 c -34,0 -61,27 -61,61 v 1897 c 0,34 27,61 61,61 z M 2214,6522 V 4746 h 2683 v 1776 z"
   id="path30115" />
 </g></g><g
     id="g33558"
     transform="matrix(0.26458333,0,0,0.26458333,-269.55912,3.3040116)"><g
       id="_x31_33_x2C__necklace_x2C__jewellery_x2C__heart__x2C__love_and_romance_x2C__miscellaneous_x2C__valentines_day_x2C__valentine">
	<g
   id="XMLID_14946_">
		<g
   id="XMLID_15205_">
			<path
   id="XMLID_15232_"
   d="M 173.002,408.701 C 99.569,438.075 163.045,481 255.998,481 c 92.169,0 156.874,-42.748 82.996,-72.299 -45.715,-18.285 -120.283,-18.283 -165.992,0 z" />
			<path
   id="XMLID_15231_"
   d="m 270.998,153.747 c 0,-8.271 -6.729,-15 -15,-15 -8.271,0 -15,6.729 -15,15 0,8.271 6.729,15 15,15 8.271,0 15,-6.729 15,-15 z" />
			<path
   id="XMLID_15230_"
   d="m 252.421,224.203 c -1.482,-1.52 -5.797,-8.719 -15.151,-8.719 -10.714,0 -18.712,8.788 -18.712,20.509 0,15.505 15.715,26.011 37.441,45.001 21.814,-19.077 37.439,-29.541 37.439,-45.001 0,-17.638 -17.558,-25.791 -28.988,-16.95 -2.997,2.317 -4.115,4.43 -4.993,5.274 -2.029,1.949 -5.157,1.813 -7.036,-0.114 z" />
			<path
   id="XMLID_15229_"
   d="m 86.615,361.638 c 1.724,-25.348 4.687,-40.794 -4.537,-50.016 -10.532,-10.533 -25.838,-5.007 -27.385,7.092 -0.647,5.078 1.439,7.01 -1.276,9.725 -2.303,2.305 -4.485,1.14 -7.521,1.14 -13.592,0 -20.493,16.326 -9.297,27.521 3.625,3.625 8.234,5.521 14.945,6.149 8.784,0.823 20.382,-0.614 35.071,-1.611 z" />
			<path
   id="XMLID_15228_"
   d="m 79.987,450.269 c -3.34,0.542 -6.272,-2.353 -5.73,-5.729 1.586,-9.868 -9.356,-14.816 -16.667,-7.506 -6.031,6.032 -3.945,17.446 -2.852,32.754 16.465,1.178 26.92,2.982 32.753,-2.851 4.36,-4.361 4.689,-10.464 0.783,-14.37 -2.235,-2.235 -5.195,-2.796 -8.287,-2.298 z" />
			<path
   id="XMLID_15227_"
   d="m 255.998,128.747 c 11.307,0 20.88,7.547 23.958,17.867 20.973,-3.759 40.751,-12.473 57.754,-25.421 C 314.227,98.002 299.248,66.219 297.947,31 h -83.899 c -1.301,35.219 -16.28,67.001 -39.762,90.193 17.003,12.947 36.781,21.662 57.754,25.421 3.078,-10.32 12.651,-17.867 23.958,-17.867 z" />
			<path
   id="XMLID_15226_"
   d="m 222.998,332.542 c -0.262,3.219 1.863,26.288 -9.288,55.468 27.216,-4.012 57.338,-4.015 84.568,-10e-4 -11.129,-29.13 -9.021,-52.251 -9.281,-55.438 -21.323,3.913 -43.726,4.097 -65.999,-0.029 z" />
			<path
   id="XMLID_15208_"
   d="m 426.643,159.762 c -30.982,-1.16 -59.3,-12.908 -81.447,-31.713 -18.818,14.702 -40.912,24.504 -64.366,28.557 -1.234,10.781 -9.347,19.501 -19.832,21.638 v 31.08 c 18.187,-11.05 42.44,2.244 42.44,26.67 0,20.855 -18.862,33.291 -40.867,52.539 -3.758,3.287 -9.386,3.294 -13.15,-0.006 -22.038,-19.268 -40.862,-31.717 -40.862,-52.533 0,-24.954 24.773,-37.402 42.44,-26.67 v -31.079 c -10.484,-2.137 -18.598,-10.857 -19.832,-21.638 -23.455,-4.052 -45.548,-13.855 -64.367,-28.557 -22.147,18.805 -50.465,30.553 -81.447,31.713 2.609,91.869 78.156,165.809 170.645,165.809 92.489,0 168.035,-73.941 170.645,-165.81 z" />
			<path
   id="XMLID_15207_"
   d="m 468.303,329.716 c -5.039,-0.645 -7.031,1.417 -9.725,-1.277 -2.697,-2.696 -0.634,-4.696 -1.277,-9.726 -1.51,-11.827 -16.652,-17.823 -27.384,-7.092 -9.24,9.238 -6.266,24.644 -4.537,50.017 25.338,1.721 40.778,4.698 50.016,-4.538 7.056,-7.056 7.463,-17.053 1.113,-23.4 -2.263,-2.265 -4.947,-3.567 -8.206,-3.984 z" />
			<path
   id="XMLID_15206_"
   d="m 437.738,444.538 c 0.255,1.585 -0.267,3.195 -1.401,4.329 -2.183,2.182 -4.444,1.236 -6.338,1.236 -8.296,0 -12.399,9.928 -5.495,16.834 6.055,6.054 17.621,3.934 32.753,2.851 0.69,-9.656 1.587,-17.372 1.047,-23.148 -1.701,-18.18 -22.796,-15.993 -20.566,-2.102 z" />
		</g>
	</g>
</g><g
       id="Layer_1">
</g></g></svg>
