<svg width="64" height="64" version="1.1" viewBox="0 0 16.933 16.933" xmlns="http://www.w3.org/2000/svg">
 <g transform="translate(-6.6659 -143.02)">
  <path d="m21.483 153.61c0 3.507-2.843 6.35-6.35 6.35s-6.35-2.8429-6.35-6.35c0-2.6082 1.5754-4.8442 3.8239-5.8216l0.24853 0.19307 1.0921 0.84933c-2.1495 0.53451-3.7534 2.4662-3.7534 4.7789 0 2.7233 2.2156 4.9389 4.9389 4.9389 2.7233 0 4.9389-2.2156 4.9389-4.9389 0-2.3127-1.6039-4.2444-3.7534-4.7789l1.3405-1.0426c2.2486 0.97734 3.824 3.2133 3.824 5.8214zm-6.35-5.6445 3.5278-2.7439-1.4111-2.195h-4.2333l-1.4111 2.195 2.1166 1.6463z" style="stroke-width:1.4111"/>
 </g>
</svg>
