<?xml version="1.0" encoding="UTF-8" standalone="no"?> <svg width="64" height="64" viewBox="0 0 64 64" fill="none" xmlns="http://www.w3.org/2000/svg">
<path d="M61 4C61 3.73478 60.8946 3.48043 60.7071 3.29289C60.5196 3.10536 60.2652 3 60 3C59.7348 3 59.4804 3.10536 59.2929 3.29289C59.1054 3.48043 59 3.73478 59 4C59 11.1608 56.1554 18.0284 51.0919 23.0919C46.0284 28.1554 39.1609 31 32 31C24.8392 31 17.9716 28.1554 12.9081 23.0919C7.84464 18.0284 5.00001 11.1608 5.00001 4C5.00001 3.73478 4.89465 3.48043 4.70711 3.29289C4.51958 3.10536 4.26522 3 4.00001 3C3.73479 3 3.48043 3.10536 3.2929 3.29289C3.10536 3.48043 3.00001 3.73478 3.00001 4C2.99553 11.5211 5.91323 18.7498 11.1374 24.1605C16.3615 29.5712 23.4834 32.7407 31 33V39.89C29.6225 38.6478 27.8207 37.9818 25.9665 38.0292C24.1122 38.0766 22.3469 38.8339 21.0346 40.1449C19.7224 41.4558 18.9634 43.2204 18.9141 45.0746C18.8649 46.9289 19.5292 48.7313 20.77 50.11L31.29 60.71C31.5096 60.8231 31.753 60.8822 32 60.8822C32.247 60.8822 32.4904 60.8231 32.71 60.71L43.22 50.11C43.8949 49.439 44.4304 48.6413 44.7958 47.7626C45.1613 46.8839 45.3494 45.9416 45.3494 44.99C45.3494 44.0384 45.1613 43.0961 44.7958 42.2174C44.4304 41.3387 43.8949 40.541 43.22 39.87C41.8617 38.5204 40.0247 37.763 38.11 37.763C36.1953 37.763 34.3583 38.5204 33 39.87V33C40.5166 32.7407 47.6385 29.5712 52.8627 24.1605C58.0868 18.7498 61.0045 11.5211 61 4V4ZM36.56 54L32 58.51L27.44 54C27.2099 53.6221 27.1116 53.1786 27.1604 52.7389C27.2093 52.2992 27.4026 51.8881 27.71 51.57C28.0829 51.2095 28.5813 51.008 29.1 51.008C29.6187 51.008 30.1171 51.2095 30.49 51.57C30.8889 51.9657 31.4281 52.1878 31.99 52.1878C32.5519 52.1878 33.0911 51.9657 33.49 51.57C33.8629 51.2095 34.3613 51.008 34.88 51.008C35.3987 51.008 35.8971 51.2095 36.27 51.57C36.6334 51.9417 36.8379 52.4402 36.84 52.96C36.8435 53.3257 36.7467 53.6855 36.56 54V54Z" fill="black"/>
</svg>
