<svg width="64" height="64" version="1.1" viewBox="0 0 16.933 16.933" xmlns="http://www.w3.org/2000/svg">
 <g transform="translate(-6.6659 -143.02)">
  <path d="m20.952 147.26h-3.7031v-3.703a0.53033 0.53033 0 0 0-0.5302-0.53037h-3.1728a0.53048 0.53048 0 0 0-0.53037 0.53037v3.703h-3.703a0.53048 0.53048 0 0 0-0.53037 0.53037v3.1728a0.53033 0.53033 0 0 0 0.53037 0.5302h3.703v7.9365a0.53033 0.53033 0 0 0 0.53037 0.5302h3.1728a0.53019 0.53019 0 0 0 0.5302-0.5302v-7.9365h3.7031a0.53019 0.53019 0 0 0 0.5302-0.5302v-3.1728a0.53033 0.53033 0 0 0-0.5302-0.53037zm-1.5865 2.6458h-3.7042v7.9375a0.52917 0.52917 0 0 1-1.0583 0v-7.9375h-3.7042a0.52917 0.52917 0 1 1 0-1.0583h3.7042v-3.7042a0.52917 0.52917 0 0 1 1.0583 0v3.7042h3.7042a0.52917 0.52917 0 0 1 0 1.0583z" style="stroke-width:.040202"/>
 </g>
</svg>
