<?xml version="1.0" encoding="UTF-8"?>
<!DOCTYPE svg PUBLIC "-//W3C//DTD SVG 1.1//EN" "http://www.w3.org/Graphics/SVG/1.1/DTD/svg11.dtd">
<!-- Creator: CorelDRAW -->
<svg xmlns="http://www.w3.org/2000/svg" xml:space="preserve" width="1.70666in" height="1.70666in" version="1.1" style="shape-rendering:geometricPrecision; text-rendering:geometricPrecision; image-rendering:optimizeQuality; fill-rule:evenodd; clip-rule:evenodd"
viewBox="0 0 1706.66 1706.66"
 xmlns:xlink="http://www.w3.org/1999/xlink"
 xmlns:xodm="http://www.corel.com/coreldraw/odm/2003">
 <defs>
  <style type="text/css">
   <![CDATA[
    .fil0 {fill:black}
   ]]>
  </style>
 </defs>
 <g id="Layer_x0020_1">
  <metadata id="CorelCorpID_0Corel-Layer"/>
  <path class="fil0" d="M1402.96 1319.33c44.57,-131.35 13.74,-339.76 -183.2,-623.62 -31.9,31.88 -58.69,31.79 -90.54,-0.06 -196.98,283.9 -227.8,492.31 -183.23,623.68 77.59,228.68 379.38,228.68 456.98,0z"/>
  <path class="fil0" d="M1222.4 1519.43c-31.65,5.7 -64.13,5.71 -95.78,0.02 -110.78,250.16 206.58,250.14 95.78,-0.02z"/>
  <path class="fil0" d="M1160.49 680.24c7.69,7.7 20.35,7.7 28.06,-0l80.18 -80.19c7.7,-7.69 7.69,-20.36 0,-28.06l-58.68 -58.68 0.77 -73.47c54.51,-29.11 54.52,-107.35 0,-136.46l0 -79.73c117.85,-36.67 97.58,-223.66 -36.31,-223.66 -63.23,0 -114.7,51.48 -114.7,114.7 0,47.81 72.61,47.81 72.61,0 0,-23.21 18.87,-42.09 42.09,-42.09 37.36,0 56.16,45.37 29.73,71.81 -20.14,20.14 -66.04,3.89 -66.04,48.67l0 110.29c-54.52,29.11 -54.51,107.35 0,136.46l0.76 73.48 -58.67 58.67c-7.7,7.84 -7.7,20.35 0,28.06l80.19 80.19z"/>
  <path class="fil0" d="M760.68 1319.33c44.57,-131.35 13.74,-339.76 -183.2,-623.62 -31.9,31.88 -58.69,31.79 -90.54,-0.06 -196.98,283.9 -227.8,492.31 -183.23,623.68 77.59,228.68 379.38,228.68 456.98,0z"/>
  <path class="fil0" d="M580.12 1519.43c-31.65,5.7 -64.13,5.71 -95.78,0.02 -110.78,250.16 206.58,250.14 95.78,-0.02z"/>
  <path class="fil0" d="M518.2 680.24c7.69,7.7 20.35,7.7 28.06,-0l80.18 -80.19c7.7,-7.69 7.69,-20.36 0,-28.06l-58.68 -58.68 0.77 -73.47c54.51,-29.11 54.52,-107.35 0,-136.46l0 -79.73c117.85,-36.67 97.58,-223.66 -36.31,-223.66 -63.23,0 -114.7,51.48 -114.7,114.7 0,47.81 72.61,47.81 72.61,0 0,-23.21 18.87,-42.09 42.09,-42.09 37.36,0 56.16,45.37 29.73,71.81 -20.14,20.14 -66.04,3.89 -66.04,48.67l0 110.29c-54.52,29.11 -54.51,107.35 0,136.46l0.76 73.48 -58.67 58.67c-7.7,7.84 -7.7,20.35 0,28.06l80.19 80.19z"/>
 </g>
</svg>
