<?xml version="1.0" encoding="UTF-8" standalone="no"?>
<!-- Created with Inkscape (http://www.inkscape.org/) -->

<svg
   xmlns:dc="http://purl.org/dc/elements/1.1/"
   xmlns:cc="http://creativecommons.org/ns#"
   xmlns:rdf="http://www.w3.org/1999/02/22-rdf-syntax-ns#"
   xmlns:svg="http://www.w3.org/2000/svg"
   xmlns="http://www.w3.org/2000/svg"
   xmlns:sodipodi="http://sodipodi.sourceforge.net/DTD/sodipodi-0.dtd"
   xmlns:inkscape="http://www.inkscape.org/namespaces/inkscape"
   id="svg5154"
   version="1.1"
   inkscape:version="0.91 r13725"
   width="858.1756"
   height="1035.9951"
   viewBox="0 0 858.1756 1035.9951"
   sodipodi:docname="kvadrat-svaroga-7.svg">
  <metadata
     id="metadata5160">
    <rdf:RDF>
      <cc:Work
         rdf:about="">
        <dc:format>image/svg+xml</dc:format>
        <dc:type
           rdf:resource="http://purl.org/dc/dcmitype/StillImage" />
        <dc:title></dc:title>
      </cc:Work>
    </rdf:RDF>
  </metadata>
  <defs
     id="defs5158" />
  <sodipodi:namedview
     pagecolor="#ffffff"
     bordercolor="#666666"
     borderopacity="1"
     objecttolerance="10"
     gridtolerance="10"
     guidetolerance="10"
     inkscape:pageopacity="0"
     inkscape:pageshadow="2"
     inkscape:window-width="1301"
     inkscape:window-height="744"
     id="namedview5156"
     showgrid="false"
     inkscape:zoom="0.25100223"
     inkscape:cx="499.38042"
     inkscape:cy="886.93038"
     inkscape:window-x="65"
     inkscape:window-y="24"
     inkscape:window-maximized="1"
     inkscape:current-layer="layer6"
     fit-margin-top="5"
     fit-margin-left="5"
     fit-margin-right="5"
     fit-margin-bottom="5" />
  <g
     inkscape:groupmode="layer"
     id="layer4"
     inkscape:label="solntse"
     style="display:inline"
     transform="translate(1.5883463,179.40761)">
    <path
       id="path6111"
       style="display:inline;fill:#000000;fill-opacity:1;stroke:#000000;stroke-width:3;stroke-miterlimit:4;stroke-dasharray:none;stroke-opacity:1"
       d="m 477.86789,275.36691 -7.838,-7.8843 7.8615,-2.99301 c 4.3238,-1.64616 9.6615,-3.55965 11.8615,-4.25221 6.3705,-2.00545 13.0071,-5.64715 16.3095,-8.94946 5.3524,-5.35248 10.065,-17.68264 11.7665,-30.78671 0.3749,-2.8875 0.9612,-5.23245 1.3028,-5.211 1.3323,0.0837 7.455,9.45621 10.8568,16.61944 2.781,5.85609 3.6817,9.16372 4.0475,14.86362 0.7403,11.53574 0.7931,11.45761 -12.0202,17.78899 -6.1946,3.06087 -16.5332,8.51806 -22.9748,12.12709 -6.4415,3.60902 -12.0771,6.56186 -12.5235,6.56186 -0.4463,0 -4.3386,-3.54794 -8.6496,-7.88431 z m -119.115,2.76543 c -4.4,-2.59882 -10.943,-6.15147 -14.5401,-7.89476 l -6.54,-3.16963 0.033,-7.15836 c 0.029,-6.38867 -0.3701,-7.91377 -3.7158,-14.18368 -2.0618,-3.86393 -6.6736,-10.34897 -10.2484,-14.4112 -3.5748,-4.06223 -6.3847,-7.48618 -6.2442,-7.60877 0.1405,-0.12259 4.3821,0.12632 9.4257,0.55313 26.563,2.24784 39.7771,14.96852 41.0239,39.49215 0.2517,4.95 0.086,11.27391 -0.3683,14.05313 l -0.8259,5.05313 -8,-4.72514 z m -109.931,118.82675 c -4.1169,-7.02493 -10.5159,-12.34191 -17.2421,-14.3267 -3.2819,-0.96844 -11.2864,-1.98951 -18.32689,-2.33782 l -12.5,-0.61839 7.20714,-7.13667 c 8.56895,-8.48518 18.83415,-14.07582 27.48425,-14.9686 10.7143,-1.1058 22.4601,3.98658 34.1216,14.79339 l 5.8129,5.38692 -11.9496,11.87138 -11.9497,11.87138 -2.6576,-4.53489 z m 348.4499,-2.18899 c -21.6516,-21.66761 -22.114,-22.21601 -20.928,-24.81898 0.994,-2.1817 1.6814,-2.55514 3.8109,-2.0705 4.796,1.09145 13.3324,5.35445 20.4937,10.23434 10.1344,6.90579 15.1212,9.23088 21.1277,9.85081 6.4647,0.66721 16.3604,-2.12535 27.6553,-7.80429 4.2774,-2.15064 7.9714,-3.91026 8.2088,-3.91026 1.0461,0 -2.6432,11.12492 -5.8268,17.57046 -6.5045,13.16904 -15.377,20.4145 -27.3083,22.30059 l -5.0925,0.80502 -22.1408,-22.15719 z m -171.3957,261.24013 c -7.7883,-4.2246 -17.6832,-13.9413 -21.1199,-20.7395 -3.3337,-6.5945 -4.2502,-15.1048 -2.5226,-23.4262 l 1.2176,-5.8654 12.2599,12.2304 12.2599,12.2305 0.6119,7.6556 c 0.3366,4.2106 1.4646,10.6931 2.5067,14.4056 1.0421,3.7125 1.6177,6.738 1.279,6.7234 -0.3386,-0.015 -3.2603,-1.4612 -6.4925,-3.2144 z m 32.8768,52.6428 c 20.8426,-2.5566 41.2758,-7.7754 63.3351,-16.1761 8.2336,-3.1356 9.2729,-3.8011 8.8077,-5.6404 -3.5062,-13.8621 -11.0468,-41.0348 -12.3116,-44.3647 -2.361,-6.2161 -7.702,-10.9899 -21.5537,-19.2649 -6.7526,-4.0339 -14.5974,-9.5242 -17.4328,-12.2005 -4.796,-4.527 -12.3447,-16.7086 -12.3447,-19.9211 0,-0.7555 4.2183,-5.5743 9.3739,-10.7085 l 9.374,-9.335 13.376,7.4762 c 14.8075,8.2762 32.7613,17.3316 46.1192,23.2612 8.1476,3.6167 8.7873,4.1173 9.3939,7.3504 0.6741,3.5931 0.031,18.6859 -1.5949,37.4355 -0.9567,11.0322 0.1269,27.2551 1.9417,29.0699 0.5444,0.5444 3.8348,-0.8205 8.2122,-3.4064 50.6744,-29.9348 93.7531,-76.3706 119.3507,-128.6515 4.3204,-8.824 14.4533,-33.1756 14.4533,-34.7344 0,-0.1759 -2.1375,-1.1204 -4.75,-2.0989 -2.6125,-0.9786 -11.5658,-4.8465 -19.8961,-8.5953 -24.1364,-10.862 -25.1609,-10.9283 -46.5399,-3.0135 -21.0529,7.7941 -26.3567,8.2811 -42.9696,3.9458 -7.3301,-1.9128 -7.7552,-2.1854 -9.996,-6.4093 l -2.3404,-4.4116 22.3769,-22.3935 22.3769,-22.3935 8.5796,-1.7039 c 4.7188,-0.9371 11.8263,-1.9494 15.7946,-2.2495 6.5307,-0.4939 7.6423,-0.2952 11.7211,2.0951 2.4784,1.4524 11.1524,8.9654 19.2756,16.6955 13.8889,13.2169 24.6027,21.5593 30.6313,23.8514 3.1978,1.2158 2.9461,1.8697 5.9338,-15.4103 1.944,-11.2433 2.2453,-16.5134 2.2298,-38.99997 -0.015,-22.29505 -0.3351,-27.83863 -2.2441,-38.90287 -4.8433,-28.07206 -12.3811,-51.19964 -25.1278,-77.09713 -7.7738,-15.79428 -24.9411,-44.07511 -27.8439,-45.86911 -0.5684,-0.35127 -4.4784,1.39807 -8.6889,3.88742 -4.2106,2.48934 -11.1976,6.30696 -15.5267,8.4836 -4.3291,2.17664 -11.0156,5.99166 -14.8588,8.47781 -3.8432,2.48615 -7.1988,4.52028 -7.4569,4.52028 -0.2581,0 1.9211,-6.04008 4.8425,-13.4224 2.9214,-7.38232 6.3354,-16.60098 7.5867,-20.48591 2.0871,-6.48039 2.5686,-7.1584 5.8326,-8.21293 1.9567,-0.63218 5.3082,-2.02978 7.4476,-3.10578 l 3.8899,-1.95636 -9.8899,-10.016 c -50.5316,-51.17595 -109.4346,-80.43631 -177.5715,-88.20952 l -4.6816,-0.53409 -0.6583,5.72149 c -0.3621,3.14683 -2.1929,13.47431 -4.0684,22.94996 -5.3404,26.98068 -5.1567,27.99013 9.0029,49.49366 8.6277,13.1024 11.0799,19.03971 12.0924,29.27788 l 0.6922,7 -17.3618,-17.25261 -17.3618,-17.2526 -11.9714,12.0026 c -6.5842,6.60144 -12.2034,11.99729 -12.487,11.9908 -0.6688,-0.0153 -9.4611,-20.09477 -12.1088,-27.65332 -3.4532,-9.85839 -2.0474,-14.34661 11.5379,-36.83487 9.9534,-16.47625 14.2737,-26.29143 15.9562,-36.25 l 0.5491,-3.25 -4.9238,0 c -6.6414,0 -26.2664,2.62155 -38.5262,5.1464 -42.0294,8.65579 -85.746,29.85824 -121,58.68471 -11.8434,9.68413 -25.7221,22.54277 -31.0039,28.7252 l -4.6548,5.4484 8.3893,9.05108 8.3892,9.05108 6.7809,17.19657 c 3.7294,9.45811 11.2075,26.30906 16.618,37.44656 5.4104,11.1375 9.3071,20.24879 8.6592,20.24731 -2.5537,-0.006 -24.4395,-5.94809 -28.6779,-7.78638 -7.2657,-3.15132 -9.142,-6.23868 -18.9681,-31.21093 -8.30844,-21.11544 -15.99972,-34.37398 -18.90038,-32.58128 -2.74956,1.69932 -19.65631,29.08625 -27.20368,44.06672 -18.14564,36.01658 -27.44285,70.56137 -29.47418,109.51456 -0.57492,11.02477 0.54262,33.70377 2.16816,43.99997 l 0.55257,3.5 19.16281,-0.2766 c 22.50556,-0.325 34.3497,-1.4937 38.88602,-3.837 1.80224,-0.931 8.83238,-7.0895 15.62248,-13.6856 l 12.3457,-11.9929 22.4229,22.3961 22.4229,22.396 -6.4607,1.2002 c -8.112,1.5068 -12.239,3.6173 -26.0347,13.3137 -21.1074,14.8355 -22.2757,14.9971 -46.75573,6.4656 -20.83987,-7.2629 -28.45539,-9.286 -38.03606,-10.1047 -6.37052,-0.5444 -7.75,-0.4072 -7.75,0.7712 0,0.7885 1.39976,5.9157 3.11058,11.3938 19.9405,63.8505 63.52271,120.9693 122.28341,160.2645 12.378,8.2776 12.9501,8.5441 14.2978,6.6592 0.7721,-1.0799 6.1573,-8.4885 11.967,-16.4635 17.8422,-24.4919 18.6493,-26.7704 15.9127,-44.9261 -0.8643,-5.7344 -1.5715,-10.7809 -1.5715,-11.2144 0,-0.4336 5.5125,-3.4736 12.25,-6.7557 6.7375,-3.282 17.875,-9.1268 24.75,-12.9884 l 12.5,-7.0212 5.2279,5.2029 5.2278,5.2029 -2.6621,5.3649 c -2.4524,4.9423 -2.7233,6.7538 -3.4398,23 -0.8579,19.4524 -1.4557,24.4142 -3.3896,28.1351 -2.0955,4.0318 -8.2152,9.2511 -19.9642,17.0266 -15.6608,10.3644 -26.9185,19.3318 -31.0319,24.719 l -3.5534,4.6538 2.6053,1.3651 c 5.9998,3.1436 25.8021,10.6075 36.7637,13.857 35.0785,10.3988 68.2431,13.1929 104.2163,8.7803 z m -159.7626,7.1129 c -3.0511,-4.085 -6.8277,-10.0344 -8.3924,-13.221 -2.494,-5.0789 -2.848,-6.9327 -2.8696,-15.0259 l -0.025,-9.2322 -8.9754,-5.6313 c -45.5065,-28.5514 -85.46919,-72.5001 -110.42271,-121.4365 -8.27351,-16.2252 -11.83541,-24.8673 -17.99565,-43.6622 l -4.65239,-14.1943 -7.95993,3.2094 c -4.37797,1.7653 -10.32577,4.6652 -13.21733,6.4444 -2.89156,1.7792 -5.65466,3.2349 -6.14021,3.2349 -1.43655,0 2.78553,-14.8028 6.10436,-21.4023 4.07957,-8.1121 7.88549,-12.7909 12.32523,-15.152 3.47558,-1.8483 3.63056,-2.1458 3.09758,-5.9457 -2.17305,-15.4929 -2.91238,-37.19454 -1.78207,-52.30971 3.71046,-49.6185 19.24738,-94.05383 47.96077,-137.16694 9.57414,-14.37556 10.1794,-15.57255 8.50724,-16.82421 -2.94949,-2.20778 -19.47042,-9.96033 -24.05024,-11.28573 -2.3375,-0.67648 -4.25,-1.53776 -4.25,-1.91397 0,-1.33028 15.59626,-7.95566 22.5,-9.55813 8.39675,-1.94902 14.83955,-1.50869 20.41028,1.39494 l 4.12586,2.15052 11.73191,-11.75302 c 42.553,-42.62956 93.5704,-71.01516 149.3594,-83.10233 10.9538,-2.37322 32.0357,-5.13139 39.2215,-5.13139 l 4.9087,0 -0.6647,-5.01036 c -0.5463,-4.11872 -3.1602,-13.83596 -6.2506,-23.23745 -0.4939,-1.50247 0.2489,-1.37488 5.2916,0.909 14.3251,6.48803 27.366,18.74788 27.366,25.72702 0,1.04724 1.6477,1.64848 5.75,2.09811 38.5755,4.22811 67.8356,13.01181 102.75,30.84495 26.9396,13.75983 51.136,31.50995 75.7662,55.58097 l 14.7662,14.43094 3.0882,-2.92159 c 4.0511,-3.83249 10.8449,-12.70392 14.3496,-18.73778 1.5386,-2.6489 3.1391,-4.4489 3.5566,-4 1.6742,1.79996 3.9726,15.72574 3.9634,24.0136 -0.011,9.4464 -2.4049,16.75681 -6.7546,20.62264 -2.0437,1.8163 -2.0367,1.83556 3.3552,9.35077 13.288,18.52073 28.2971,47.07132 36.3128,69.07483 5.2403,14.38478 10.4668,34.34702 13.1576,50.25435 4.6185,27.30288 3.379,71.35167 -2.6915,95.65317 -0.5092,2.0383 -0.093,2.189 7.7962,2.8222 4.5838,0.3679 11.6187,0.2652 15.6332,-0.2283 4.0145,-0.4935 7.5089,-0.5577 7.7654,-0.1427 0.6325,1.0233 -8.3499,11.7002 -13.6854,16.2671 -6.2063,5.3124 -13.4755,8.5872 -19.7104,8.8796 l -5.3065,0.2489 -3.9285,10.5 c -9.8206,26.2477 -28.4424,58.7796 -46.9382,82 -9.9225,12.4571 -28.9405,32.1525 -41.4955,42.9734 -12.1977,10.513 -30.2083,23.5362 -42.3886,30.6506 -5.533,3.2318 -10.0716,6.388 -10.0857,7.0138 -0.047,2.1016 7.1545,11.8035 13.8163,18.6122 l 6.6044,6.75 -9.4732,-0.015 c -15.7935,-0.025 -27.6837,-3.9672 -33.1925,-11.0061 l -2.3651,-3.0222 -13.0758,4.9882 c -64.6454,24.6608 -133.7719,23.2898 -197.994,-3.9267 -6.2453,-2.6467 -11.5536,-4.4911 -11.7962,-4.0987 -1.3984,2.2628 -4.6822,16.6475 -5.2193,22.8637 -0.3462,4.0059 -0.948,7.4803 -1.3374,7.721 -0.3893,0.2406 -3.2043,-2.9047 -6.2555,-6.9897 z"
       inkscape:connector-curvature="0" />
  </g>
  <g
     inkscape:groupmode="layer"
     id="layer5"
     inkscape:label="kvadrat"
     style="display:inline"
     transform="translate(1.5883463,179.40761)">
    <path
       id="path6137"
       style="display:inline;fill:#000000;fill-opacity:1;stroke:#000000;stroke-width:3;stroke-miterlimit:4;stroke-dasharray:none;stroke-opacity:1"
       d="m 602.45179,614.77343 c -21.0781,-5.3752 -42.4622,-12.8555 -65.6989,-22.982 -13.9501,-6.0795 -45.1964,-21.8722 -47.241,-23.8769 -0.9823,-0.9631 0.9118,-3.3624 9.0842,-11.5069 l 10.3252,-10.2902 17.9158,8.9432 c 16.6661,8.3194 44.4843,20.1906 47.3131,20.1906 1.5504,0 1.0433,-1.7159 -4.1376,-14 -11.9672,-28.3749 -36.1548,-70.3463 -57.5712,-99.9 -1.7536,-2.42 -3.1885,-4.7761 -3.1885,-5.2358 0,-1.6289 17.3862,-22.9022 18.4346,-22.5562 1.4942,0.4931 23.0493,32.4862 32.8059,48.692 22.2221,36.9114 43.851,84.9855 53.089,118 4.77,17.0471 4.9542,18.0084 3.4396,17.9571 -0.698,-0.024 -7.2546,-1.5694 -14.5702,-3.4349 z m -199.913,-21.7702 -25.2033,-25.252 12.3706,-7.75 c 6.8038,-4.2625 12.741,-7.75 13.1937,-7.75 0.4527,0 6.1199,5.2831 12.5939,11.7402 l 11.7708,11.7401 46.4546,-46.4464 c 25.55,-25.5456 46.6319,-46.2412 46.8486,-45.9902 1.4652,1.6965 15.6852,24.9022 15.6852,25.5968 0,0.4765 -24.4149,25.2782 -54.2554,55.1149 l -54.2553,54.2486 -25.2034,-25.252 z m 71.1113,-181.00201 c -10.8964,-12.81951 -28.5427,-30.34439 -44.0191,-43.71625 -10.7709,-9.30623 -40.2117,-32.1251 -44.9495,-34.83938 -1.7568,-1.00644 -0.9789,-2.05801 8.7346,-11.80693 l 10.6631,-10.70209 12.2237,8.90733 c 31.3597,22.85155 61.7562,50.80871 81.6883,75.13282 l 3.4625,4.22551 -8.8504,11.46921 c -4.8677,6.30807 -9.1632,11.49409 -9.5456,11.5245 -0.3823,0.0304 -4.6157,-4.55722 -9.4076,-10.19472 z m -153.5611,0.0217 c -25.534,-36.00298 -49.2447,-79.10654 -65.0597,-118.27166 -8.2453,-20.419 -18.9014,-54.70834 -17.4521,-56.15764 1.9072,-1.90715 42.3534,10.05201 65.8304,19.46474 19.643,7.87558 63.8453,29.46863 63.8453,31.18879 0,0.29691 -4.6286,5.15274 -10.2859,10.79073 l -10.2859,10.25088 -17.5609,-8.87965 c -15.334,-7.75361 -38.8662,-17.85936 -47.0782,-20.21739 l -2.7109,-0.77843 2.333,6.16899 c 11.1525,29.48984 38.2256,77.2058 62.8846,110.83345 l 1.9539,2.66448 -8.7334,11.09357 c -4.8033,6.10147 -9.1073,11.3247 -9.5644,11.60719 -0.457,0.28249 -4.1092,-4.10863 -8.1158,-9.75805 z m 243.77,64.97831 c -0.7921,-1.2375 -4.3927,-6.975 -8.0015,-12.75 l -6.5615,-10.5 13.2195,-13.2549 13.2195,-13.25499 -46.741,-46.74899 c -25.7076,-25.71194 -46.7411,-47.03488 -46.7411,-47.38431 0,-0.49792 16.7901,-11.2874 23.866,-15.33649 0.9687,-0.55435 17.4709,15.32139 56.7481,54.5938 l 55.3822,55.37546 -25.7409,25.75522 c -14.1575,14.1654 -26.0713,25.7552 -26.4751,25.7552 -0.4038,0 -1.3822,-1.0125 -2.1742,-2.25 z m -119.8268,17.474 c -5.8964,-4.7982 -10.8464,-9.0599 -11,-9.4705 -0.1536,-0.4107 5.4483,-6.0357 12.4486,-12.5 17.9931,-16.6156 43.533,-46.43061 63.3131,-73.91115 4.2922,-5.96328 8.9096,-12.35098 10.2607,-14.19491 l 2.4566,-3.35258 9.8709,9.83382 c 5.4289,5.40861 9.8708,10.39968 9.8708,11.09127 0,3.70536 -31.9879,45.52305 -54.1422,70.78005 -8.4858,9.6742 -30.124,30.527 -31.6219,30.474 -0.4047,-0.014 -5.5602,-3.9518 -11.4566,-8.75 z m -151.8404,-11.7851 -55.4283,-55.43503 25.9313,-25.94565 c 14.2621,-14.2701 26.2596,-25.74267 26.661,-25.4946 0.9542,0.58972 15.8971,24.32863 15.8971,25.25477 0,0.39077 -5.8524,6.54988 -13.0053,13.68689 l -13.0052,12.9764 47.1629,47.17072 47.1629,47.1708 -5.4076,3.4285 c -2.9742,1.8857 -7.8972,5.0072 -10.9399,6.9367 -3.0427,1.9295 -6.4476,3.998 -7.5664,4.5968 -1.8364,0.9828 -7.4246,-4.3023 -57.4625,-54.3463 z m -54.9389,134.2316 c 0,-5.2766 10.6643,-38.1494 19.0908,-58.8474 7.9149,-19.4413 32.1134,-67.8135 33.928,-67.8209 0.2853,-10e-4 5.01,4.506 10.4992,10.0159 l 9.9805,10.0181 -4.3162,7.7319 c -11.1023,19.8884 -27.8474,56.3507 -26.1846,57.0167 0.9139,0.3661 17.1623,-5.5676 27.5023,-10.0435 26.2607,-11.3675 61.6611,-31.8619 86.1836,-49.8945 l 5.1836,-3.8118 11.0236,9.0088 c 6.063,4.9548 11.2711,9.4091 11.5735,9.8984 0.6356,1.0285 -16.4302,13.3318 -34.4979,24.8705 -42.2313,26.9705 -91.7017,48.9267 -134.4502,59.6723 -15.9814,4.0172 -15.5162,3.9516 -15.5162,2.1855 z m 92.6722,-252.42051 c -2.3731,-3.7125 -6.0104,-9.40921 -8.083,-12.65935 l -3.7682,-5.90934 54.5863,-54.58633 54.5864,-54.58634 25.0031,24.98818 c 13.7518,13.7435 25.0032,25.28934 25.0032,25.65742 0,0.73435 -23.67,15.84576 -24.8202,15.84576 -0.3918,0 -5.8727,-5.175 -12.1798,-11.5 -6.307,-6.325 -11.9266,-11.5 -12.4878,-11.5 -0.5612,0 -21.4917,20.475 -46.5122,45.5 -25.0205,25.025 -45.834,45.5 -46.2524,45.5 -0.4184,0 -2.7023,-3.0375 -5.0754,-6.75 z m -7.0525,98.87021 -9.8428,-9.8799 5.2429,-7.7696 c 20.5878,-30.50982 55.6572,-71.79847 75.9862,-89.46177 l 5.506,-4.78398 10.994,8.91173 c 6.0467,4.90146 11.1063,9.23835 11.2436,9.63754 0.1373,0.3992 -6.1071,6.77559 -13.8763,14.16976 -14.5226,13.82144 -29.4169,30.51463 -46.0004,51.55602 -10.5583,13.3966 -23.0208,30.249 -25.6068,34.6268 -0.9335,1.5803 -2.1712,2.8732 -2.7505,2.8732 -0.5792,0 -5.4824,-4.4459 -10.8959,-9.8798 z m 118.3803,73.7032 c -31.5957,-22.7587 -64.113,-52.4338 -83.4069,-76.1167 l -3.9051,-4.7934 2.3205,-3.2066 c 6.2624,-8.6538 15.19,-19.7067 15.9173,-19.7067 0.4495,0 6.3876,6.3834 13.1958,14.1854 18.5711,21.282 51.573,50.6434 76.7591,68.2918 4.451,3.1188 8.3798,6.1354 8.7309,6.7034 0.6834,1.1057 -18.3847,20.8377 -20.0928,20.7924 -0.5603,-0.015 -4.8438,-2.7822 -9.5188,-6.1496 z m 113.3013,-182.07341 -10.163,-10.25 8.4309,-15.5 c 8.0524,-14.80401 20.5946,-41.82014 21.9829,-47.35162 l 0.6556,-2.61212 -5.3538,1.84826 c -27.9752,9.65763 -61.1768,26.84767 -92.6851,47.98746 -9.5322,6.39541 -18.3467,12.26439 -19.5878,13.04217 -2.1364,1.33881 -2.8512,0.92201 -13.4188,-7.82447 -6.1392,-5.08124 -11.1566,-9.54261 -11.1498,-9.91415 0.018,-0.9887 19.5554,-14.77139 33.9876,-23.97675 42.8264,-27.31615 92.2322,-49.22164 135.9299,-60.26845 13.6758,-3.45725 15.4006,-3.59584 14.6902,-1.18033 -0.2831,0.9625 -1.2494,4.675 -2.1474,8.25 -5.0581,20.1366 -16.7443,51.04523 -28.9586,76.59229 -6.1497,12.86266 -21.2087,41.40771 -21.8447,41.40771 -0.1128,0 -4.7785,-4.6125 -10.3681,-10.25 z"
       inkscape:connector-curvature="0" />
  </g>
  <g
     inkscape:groupmode="layer"
     id="layer6"
     inkscape:label="uzor"
     style="display:inline"
     transform="translate(1.5883463,179.40761)">
    <path
       id="path6153"
       style="display:inline;fill:#000000;fill-opacity:1;stroke:#000000;stroke-width:1;stroke-miterlimit:4;stroke-dasharray:none;stroke-opacity:1"
       d="m 412.96149,793.46483 c -4.7487,-4.8631 -4.7502,-7.5625 -0.01,-12.4199 5.1142,-5.2375 3.2265,-6.8727 -2.6059,-2.2574 -2.4074,1.9051 -5.1224,3.4637 -6.0334,3.4637 -1.6246,0 -6.0688,-4.2269 -11.3834,-10.8267 -3.8988,-4.8417 -3.4808,-7.3368 2.0712,-12.3648 2.6125,-2.3658 10.2297,-9.6476 16.9271,-16.1817 10.816,-10.5523 12.4686,-11.807 14.7854,-11.2255 3.6825,0.9242 5.1079,5.0557 2.9268,8.4837 -0.915,1.4383 -7.2464,8.089 -14.0696,14.7794 -7.587,7.4393 -11.9692,12.4342 -11.2816,12.8592 0.6184,0.3822 2.3253,-0.4243 3.7931,-1.7921 2.5355,-2.3629 6.3528,-4.7315 7.6254,-4.7315 0.3234,0 2.583,1.8389 5.0213,4.0865 5.9783,5.5105 7.5313,4.1315 2.5064,-2.2256 -2.1915,-2.7722 -3.9844,-5.389 -3.9844,-5.815 0,-0.9386 4.0547,-6.0136 13.9367,-17.444 9.7944,-11.329 10.1168,-11.329 22.3075,0 9.566,8.8885 26.7705,22.2718 37.2558,28.9811 10.5294,6.7374 29.8567,17.3162 30.6926,16.7995 1.8977,-1.1728 0.5069,-3.1284 -3.6672,-5.1563 -5.8315,-2.8332 -6.7186,-5.8792 -3.453,-11.8572 1.7065,-3.1237 2.0618,-4.6332 1.2757,-5.4193 -0.786,-0.786 -1.9343,0.2834 -4.1223,3.8393 -1.668,2.7109 -3.9582,5.1709 -5.0893,5.4666 -3.6828,0.9636 -19.1365,-8.7997 -19.1365,-12.0895 0,-1.0324 2.3166,-5.8792 5.1481,-10.7706 2.8314,-4.8914 7.245,-13.2432 9.8079,-18.5596 5.6257,-11.6694 6.53,-12.8339 9.9665,-12.8339 3.2715,0 5.0775,1.6571 5.0775,4.6587 0,2.4265 -7.6061,18.9401 -13.3529,28.9902 -3.2535,5.69 -3.5927,7.3511 -1.5007,7.3511 0.4471,0 1.7404,-1.818 2.874,-4.04 1.1336,-2.222 3.2261,-4.5708 4.6499,-5.2195 2.2335,-1.0176 3.2454,-0.813 7.3713,1.4905 3.8871,2.1703 4.8863,2.3993 5.3376,1.2232 0.369,-0.9615 -0.7707,-2.1234 -3.3973,-3.4634 -2.174,-1.1091 -4.6459,-3.0746 -5.4932,-4.3677 -1.5819,-2.4143 -0.6528,-5.1325 10.0315,-29.3468 2.3302,-5.2811 4.9086,-5.1741 18.216,0.7562 21.3628,9.52 41.8416,16.0401 67.3458,21.4416 9.4798,2.0077 10.8672,2.1008 11.3805,0.7631 0.7704,-2.0077 0.6416,-2.0913 -4.7843,-3.105 -6.7725,-1.2652 -8.0169,-2.6341 -7.3628,-8.0989 0.2984,-2.4933 0.8477,-5.3208 1.2206,-6.2833 0.5086,-1.3127 0.1735,-1.75 -1.3411,-1.75 -1.5983,0 -2.1658,0.8858 -2.7231,4.25 -0.8976,5.4183 -1.9885,7.4619 -4.3902,8.2242 -2.174,0.6899 -17.8736,-3.0568 -19.9181,-4.7535 -1.6418,-1.3625 -1.3748,-3.7462 2.601,-23.2207 1.6842,-8.25 3.3551,-17.146 3.713,-19.7689 0.7969,-5.8403 4.0915,-8.7041 7.9767,-6.9339 1.3048,0.5945 2.6539,1.9681 2.9981,3.0524 0.5688,1.7921 -2.3259,21.628 -4.4,30.1504 -2.1006,8.632 -2.1269,9 -0.6423,9 0.8927,0 2.0541,-2.0846 3.0282,-5.4355 1.8238,-6.2734 3.2265,-7.0733 10.62,-6.0565 4.0684,0.5596 4.9418,0.4088 4.9418,-0.8529 0,-1.0562 -1.44,-1.7485 -4.6336,-2.2274 -6.0395,-0.9056 -8.7509,-3.5496 -7.9699,-7.7714 0.3212,-1.7359 1.2302,-8.7356 2.02,-15.5547 2.0091,-17.3466 1.5266,-16.9699 18.8601,-14.7217 19.3357,2.508 43.7901,3.5027 62.7234,2.5512 9.075,-0.456 17.2875,-0.8521 18.25,-0.8801 1.0872,-0.032 1.75,-0.8357 1.75,-2.1229 0,-1.9234 -0.3872,-2.0236 -5.3976,-1.3976 -7.2058,0.9003 -9.6024,-1.2287 -9.6024,-8.5305 0,-4.3912 -0.2523,-5 -2.0719,-5 -1.9234,0 -2.0236,0.3872 -1.3976,5.3976 0.5847,4.6802 0.3949,5.677 -1.4281,7.5 -1.8397,1.8397 -3.2824,2.1024 -11.5457,2.1024 -11.7707,0 -12.544,-0.7357 -12.5825,-11.9725 -0.024,-7.0701 -1.1991,-21.7037 -2.5755,-32.0797 -0.4709,-3.5497 -0.2282,-4.9754 1.0674,-6.271 1.9683,-1.9683 6.8405,-2.2181 8.3246,-0.4268 1.3491,1.6285 2.9323,13.2764 3.8057,28 0.5261,8.8681 1.029,11.75 2.0504,11.75 0.9677,0 1.3532,-1.5124 1.3532,-5.3088 0,-7.2926 1.4198,-8.8956 8.3911,-9.4737 7.4916,-0.6213 6.8955,-2.6687 -0.8331,-2.8615 -3.3568,-0.084 -6.3359,-0.7117 -7.1152,-1.5 -1.3219,-1.3371 -4.0633,-16.5228 -5.1447,-28.4988 -0.513,-5.6809 -0.3758,-6.2553 1.8236,-7.6377 1.3081,-0.8221 5.3033,-1.8013 8.8783,-2.176 20.529,-2.1517 43.1702,-7.292 67.25,-15.268 14.1602,-4.6902 16.75,-5.8542 16.75,-7.5284 0,-1.4377 -0.4795,-1.8233 -1.75,-1.4073 -11.5459,3.781 -12.5544,3.558 -15.2618,-3.3758 -0.9952,-2.549 -2.5016,-4.6147 -3.5115,-4.8154 -1.3617,-0.2706 -1.6044,0.074 -1.0549,1.5 0.3925,1.0183 1.2211,3.7438 1.8414,6.0567 0.9759,3.6392 0.887,4.4712 -0.6599,6.1806 -1.8835,2.0813 -13.6812,6.1141 -17.8861,6.1141 -3.4814,0 -4.291,-1.3299 -8.6087,-14.1403 -2.1058,-6.2478 -5.4962,-15.3738 -7.5342,-20.28 -2.4183,-5.8215 -3.4987,-9.7447 -3.11,-11.2933 0.6565,-2.6158 3.9048,-4.2641 6.8734,-3.4878 2.2787,0.5959 6.7253,9.9719 12.1889,25.7014 2.1014,6.05 3.9751,11.195 4.1638,11.4334 0.1886,0.2383 0.8399,-0.064 1.4472,-0.671 0.8057,-0.8057 0.6662,-2.3901 -0.5161,-5.8597 -1.431,-4.1998 -1.4492,-5.0166 -0.1563,-6.9899 0.8052,-1.2288 3.1674,-2.7788 5.2494,-3.4443 4.4458,-1.4212 5.7411,-2.4221 4.8986,-3.7854 -0.381,-0.6165 -2.5463,-0.2564 -5.7279,0.9525 -4.7109,1.79 -5.3058,1.8189 -7.5238,0.3656 -1.3246,-0.8679 -3.1666,-3.4732 -4.0933,-5.7896 -0.9267,-2.3164 -3.6161,-8.1798 -5.9765,-13.0299 -4.6913,-9.6394 -5.2009,-12.6133 -2.5417,-14.8313 0.9625,-0.8028 6.7,-3.6438 12.75,-6.3133 15.1896,-6.7024 28.7775,-14.2202 43.5,-24.0674 16.126,-10.7859 24.7892,-17.65 24.2571,-19.2197 -0.6591,-1.9443 -2.4545,-1.4273 -6.2193,1.7907 -4.849,4.1447 -7.1945,3.8251 -11.6271,-1.5844 -5.0064,-6.1096 -6.8998,-4.4519 -2.5887,2.2663 2.046,3.1884 2.9129,5.5751 2.5413,6.9961 -0.7235,2.7666 -14.9824,12.4811 -17.73,12.0793 -1.2424,-0.1817 -5.2766,-4.5899 -10.3393,-11.298 -4.5661,-6.05 -11.0002,-14.0678 -14.298,-17.8174 -3.2978,-3.7496 -5.996,-7.6011 -5.996,-8.5589 0,-2.9608 2.4935,-5.3737 5.5533,-5.3737 3.2743,0 5.6955,2.4228 18.7378,18.75 4.3935,5.5 8.6003,10.1455 9.3485,10.3234 2.0249,0.4812 1.6878,-0.5405 -1.7638,-5.3468 -3.8627,-5.3787 -3.4395,-7.9174 2.0018,-12.0078 2.8646,-2.1533 3.6718,-3.3037 2.9389,-4.188 -0.7685,-0.9274 -1.8848,-0.5264 -4.6634,1.6752 -3.4463,2.7305 -5.1837,3.4392 -7.7537,3.1625 -1.4993,-0.1614 -21.6651,-20.6772 -22.8388,-23.2351 -0.6222,-1.356 -0.555,-2.6628 0.1991,-3.8702 0.853,-1.3659 0.8474,-2.5937 -0.022,-4.898 -1.1564,-3.06361 -1.1095,-3.12656 12.5438,-16.84514 15.3629,-15.43639 24.5424,-26.59443 35.1857,-42.77003 9.7331,-14.79223 11.624,-18.07576 10.8532,-18.84659 -1.428,-1.42801 -2.9554,-0.48615 -4.8168,2.97041 -1.0734,1.99309 -2.9594,4.28418 -4.1913,5.09129 -2.3992,1.57204 -4.2178,1.03969 -10.4412,-3.0564 -2.302,-1.51509 -2.7016,-1.54191 -3.2106,-0.21552 -0.3905,1.01759 0.8612,2.50746 3.8125,4.53803 6.2973,4.33264 6.4698,5.9328 1.4672,13.6111 -2.3253,3.56893 -5.3194,7.34761 -6.6535,8.39707 -3.0118,2.36905 -4.6816,1.81805 -14.5558,-4.80313 -3.9768,-2.66665 -11.8716,-7.44078 -17.5439,-10.60917 -10.8812,-6.07795 -13.2655,-8.69287 -11.2906,-12.38287 1.9698,-3.68066 4.6873,-3.60017 12.3879,0.36693 3.9688,2.04461 11.4234,6.35357 16.5659,9.57547 8.366,5.24158 11.1501,6.25046 11.1501,4.04043 0,-0.3877 -1.8175,-1.82364 -4.0389,-3.19098 -5.3729,-3.30722 -5.9725,-6.08685 -2.605,-12.07746 3.5971,-6.39905 1.2269,-7.23569 -2.8621,-1.01027 -1.6533,2.51712 -3.8529,4.73967 -4.888,4.93901 -1.9332,0.37232 -26.7193,-10.95699 -29.856,-13.64671 -2.7545,-2.36199 -2.1326,-5.11513 3.6757,-16.27025 6.73,-12.92557 14.2344,-31.12446 19.4555,-47.18178 4.7976,-14.75464 8.6011,-29.58965 7.7935,-30.39723 -1.3893,-1.38932 -3.4757,0.78442 -4.1372,4.31037 -1.2815,6.8311 -2.1436,7.65283 -7.3857,7.04016 -2.5585,-0.29902 -5.7097,-0.86638 -7.0027,-1.2608 -1.9153,-0.58426 -2.2858,-0.38658 -2,1.06697 0.2182,1.10949 1.9699,2.26159 4.6326,3.04687 5.3985,1.59213 7.2183,3.09777 7.2183,5.97216 0,3.87508 -4.071,15.87947 -6.0907,17.96014 -1.8709,1.92732 -2.077,1.93376 -8.1643,0.25516 -3.4348,-0.94715 -12.095,-3.13054 -19.245,-4.85197 -7.15,-1.72144 -14.6604,-3.5338 -16.6897,-4.02747 -4.0096,-0.97541 -5.4075,-3.33738 -4.3853,-7.40991 0.3663,-1.45987 1.5837,-2.65812 3.0826,-3.03432 2.5094,-0.62982 22.2329,3.34146 32.6828,6.58059 4.8144,1.49231 5.7739,1.5461 6.2331,0.3494 0.2985,-0.77794 -0.012,-1.58822 -0.6904,-1.80063 -0.6782,-0.2124 -2.8846,-0.89339 -4.9031,-1.5133 -5.4329,-1.66851 -6.195,-3.08201 -5.4087,-10.03193 0.5467,-4.83183 0.4026,-5.99287 -0.7438,-5.99287 -0.8981,0 -1.6707,1.55586 -2.0973,4.22388 -0.8237,5.15094 -3.0361,7.78968 -6.4852,7.73492 -6.4749,-0.10279 -29.3005,-4.6903 -31.1297,-6.25645 -2.4631,-2.10902 -2.4548,-2.44361 0.4502,-18.20235 3.81,-20.66773 5.0091,-34.44076 5.0481,-57.98191 0.033,-20.15524 -0.109,-22.01027 -1.7136,-22.32332 -1.5032,-0.29327 -1.75,0.46874 -1.75,5.40317 0,7.6809 -1.5844,9.40206 -8.655,9.40206 -4.0844,0 -5.345,0.35376 -5.345,1.5 0,1.14091 1.2568,1.50367 5.25,1.51531 8.608,0.0251 9.7839,1.8933 9.0091,14.31289 -0.4691,7.51975 -0.8595,9.01635 -2.6546,10.17647 -1.5588,1.00749 -6.6419,1.37766 -19.6045,1.4277 -9.625,0.0371 -19.525,0.32618 -22,0.64228 -4.9197,0.62832 -7.3569,-0.58282 -8.4222,-4.18527 -0.393,-1.32913 0.059,-2.95387 1.22,-4.38802 1.7433,-2.15288 2.8927,-2.3333 21.0232,-3.3001 14.8493,-0.79184 19.179,-1.32507 19.179,-2.36199 0,-0.94637 -1.5171,-1.33927 -5.1712,-1.33927 -7.0552,0 -8.8288,-1.73868 -8.8288,-8.65499 0,-4.08445 -0.3537,-5.34501 -1.5,-5.34501 -1.1622,0 -1.5,1.31611 -1.5,5.84501 0,8.27125 -0.6136,8.6212 -18,10.26623 -7.975,0.75456 -15.4,1.25463 -16.5,1.11128 -3.1031,-0.4044 -4.3099,-2.85006 -4.9685,-10.06892 -1.3869,-15.20099 -3.698,-31.99433 -6.0945,-44.28551 -2.5001,-12.8216 -9.9731,-40.67894 -11.2875,-42.076451 -0.3664,-0.3896 -1.2786,-0.32986 -2.0272,0.13275 -1.1345,0.70118 -1.081,1.683821 0.3215,5.906271 2.2308,6.71648 1.1646,8.64589 -5.915,10.704 -4.0661,1.18203 -5.2791,1.95245 -4.847,3.07844 0.3465,0.90313 1.2225,1.2513 2.1972,0.87336 0.8916,-0.34567 3.646,-0.87022 6.121,-1.16568 5.717,-0.68248 7.1359,0.81644 9.3574,9.88474 2.9171,11.90801 2.1706,13.39814 -7.8574,15.68452 -2.75,0.627 -12.0843,3.45586 -20.7429,6.28637 -15.3067,5.00376 -15.7986,5.09604 -17.75,3.32999 -2.2496,-2.03584 -2.6696,-6.71169 -0.7462,-8.30791 1.2691,-1.05331 24.5799,-9.05274 32.4891,-11.1491 4.0298,-1.06812 5.2603,-2.30694 3.4207,-3.44388 -0.4561,-0.28189 -2.8186,0.0834 -5.25,0.81185 -6.2297,1.86633 -8.3664,0.76753 -10.3972,-5.34673 -1.0444,-3.14438 -2.2642,-5.07063 -3.2108,-5.07063 -0.9167,0 -1.3063,0.57436 -0.9751,1.43745 1.9296,5.02846 2.6511,9.71512 1.7538,11.39188 -1.3737,2.56664 -29.2601,13.59613 -32.3898,12.81062 -2.6513,-0.66543 -3.2867,-1.86194 -8.8363,-16.63995 -7.3132,-19.47382 -21.8552,-46.559361 -34.6567,-64.550355 -2.6598,-3.73795 -3.5615,-4.40162 -4.6986,-3.45797 -1.1826,0.98148 -0.9367,1.81707 1.5415,5.23808 4.1871,5.780084 3.8796,8.155204 -1.5515,11.983354 -2.475,1.74454 -4.5,3.50871 -4.5,3.92037 0,1.96362 2.3117,1.7268 5.7144,-0.5854 6.0033,-4.07934 8.6202,-3.49213 12.6733,2.84375 5.3153,8.30926 6.7684,11.54087 6.1151,13.59952 -0.3302,1.040271 -4.6375,4.438741 -9.5717,7.552161 -4.9343,3.11341 -12.7193,8.48752 -17.2999,11.94245 -11.0431,8.32915 -11.7114,8.65552 -14.6945,7.17652 -1.6552,-0.82062 -2.5341,-2.2018 -2.7404,-4.30641 -0.2696,-2.74989 0.4051,-3.65744 6,-8.07001 3.467,-2.73443 10.1287,-7.59365 14.8037,-10.79828 10.5062,-7.201781 10.3691,-7.081611 9.5648,-8.383001 -0.4287,-0.69355 -1.9622,-0.2223 -4.3629,1.34066 -6.3512,4.135 -8.1252,3.8447 -12.6402,-2.0685 -2.6558,-3.47815 -3.6779,-4.23763 -4.1272,-3.06672 -0.3315,0.86375 0.5515,3.24688 1.9841,5.3552 3.7143,5.466001 3.3475,7.479141 -2.1686,11.903791 -2.6125,2.09558 -7.9673,6.64979 -11.8995,10.12047 -10.2084,9.01011 -11.1775,8.86889 -20.742,-3.02274 -15.4538,-19.213841 -33.1946,-36.293671 -52.5325,-50.575205 -7.3848,-5.45392 -8.5416,-6.01118 -9.3774,-4.51761 -0.6928,1.23797 -0.523,1.94464 0.6212,2.58496 3.9387,2.20419 7.6779,6.20109 7.6524,8.1798 -0.015,1.18861 -1.3695,3.934414 -3.0093,6.101774 -2.1009,2.77669 -2.6682,4.25357 -1.9208,5 0.7472,0.74616 2.1048,-0.19714 4.5923,-3.19066 4.8689,-5.859544 7.2143,-5.67476 15.5245,1.22308 9.7263,8.07317 9.8611,7.04831 -3.1917,24.262071 -4.1431,5.46379 -9.3181,12.7194 -11.5,16.12359 -5.181,8.08315 -9.9829,9.49312 -12.6199,3.70554 -0.9849,-2.16171 -0.6857,-3.23468 2.2587,-8.09876 1.8667,-3.08381 6.9172,-10.35441 11.2233,-16.156891 5.6444,-7.60578 7.5256,-10.85376 6.7408,-11.63857 -0.7848,-0.7848 -1.5661,-0.40229 -2.7995,1.37067 -2.9172,4.19313 -6.1012,6.96049 -7.9751,6.93145 -0.9875,-0.0153 -3.5463,-1.35273 -5.6862,-2.97207 -3.5773,-2.70711 -5.6093,-3.09729 -5.6093,-1.07709 0,0.44274 1.8082,2.05807 4.0183,3.58963 6.0017,4.15918 6.0352,6.132681 0.2588,15.223771 -2.7131,4.26997 -6.3674,10.30563 -8.1206,13.41258 -4.9992,8.8593 -5.8159,8.87009 -19.3185,0.25523 -19.0506,-12.15454 -68.0727,-34.281581 -73.5823,-33.212701 -3.3113,0.64242 -2.2868,2.71725 1.9307,3.91001 2.3725,0.67097 5.1959,2.04235 6.2741,3.04751 1.7497,1.630981 1.8376,2.285991 0.8178,6.089261 -0.6286,2.34393 -1.4242,4.99112 -1.768,5.88265 -0.37,0.9592 -0.033,1.84827 0.8258,2.17776 1.0315,0.39583 2.0184,-0.94004 3.4136,-4.62096 2.7347,-7.21456 4.9965,-7.87799 14.3486,-4.20881 8.3856,3.28997 11.3425,5.78094 10.5398,8.87892 -0.8683,3.35125 -12.7704,38.97944 -13.5519,40.56677 -0.3831,0.77806 -1.5759,1.99854 -2.6507,2.71219 -2.8131,1.86784 -6.8324,-0.28598 -7.2505,-3.88529 -0.3223,-2.77513 2.7124,-13.75126 7.8996,-28.57122 3.3702,-9.62906 3.2871,-9.17138 1.6654,-9.16676 -0.6875,0.002 -2.375,2.36445 -3.75,5.25 -2.8775,6.0387 -4.6831,6.72387 -11.5518,4.38348 -4.1867,-1.42654 -4.4482,-1.40898 -4.4482,0.29866 0,1.24082 1.0108,2.01645 3.1977,2.45385 5.0103,1.00204 7.804,3.29158 7.7894,6.3835 -0.025,5.39872 -6.9129,30.68854 -8.7257,32.04027 -2.108,1.57172 -2.8678,1.4561 -20.7614,-3.1594 -20.2094,-5.21284 -40.0848,-8.16151 -68.24999,-10.12545 -7.80467,-0.54421 -8.25,-0.46605 -8.25,1.44813 0,1.76141 0.64739,2.0234 5,2.0234 7.28545,0 9.45998,2.42917 8.61447,9.6232 -0.57915,4.92766 -0.46414,5.3768 1.37679,5.3768 1.74382,0 2.00874,-0.65942 2.00874,-5 0,-3.71773 0.52912,-5.52912 2.06321,-7.06321 1.87822,-1.87822 2.79725,-2.00124 10.24998,-1.37205 12.799,1.08054 13.7888,2.13596 12.5997,13.43526 -0.4341,4.125 -0.8171,13.81237 -0.8511,21.52749 -0.069,15.74969 -0.9532,18.47251 -5.996,18.47251 -5.0404,0 -5.3102,-1.23195 -4.9222,-22.48075 0.2613,-14.30945 0.048,-19.51937 -0.7997,-19.51932 -0.6385,4e-5 -1.47228,2.35105 -1.86202,5.25007 -0.3882,2.8875 -1.16053,5.8125 -1.71629,6.5 -0.60111,0.7436 -3.39157,1.25 -6.88802,1.25 -4.55783,0 -5.87756,0.33681 -5.87756,1.5 0,1.10425 1.15168,1.5 4.36514,1.5 2.9019,0 5.24838,0.69475 7,2.07258 l 2.63486,2.07258 0,16.40437 c 0,15.92791 -0.0653,16.44528 -2.25,17.81295 -1.63424,1.0231 -7.44975,1.56204 -21.25,1.9693 -21.34116,0.62981 -37.2086,2.45699 -58.5,6.73643 -7.975,1.60293 -14.8375,2.91832 -15.25,2.9231 -0.4125,0.005 -0.75,0.95747 -0.75,2.1171 0,1.77469 0.41416,2.00446 2.61666,1.45167 9.98559,-2.50623 11.75511,-1.72639 13.46994,5.93629 0.7856,3.51043 1.7461,5.50363 2.65212,5.50363 1.14148,0 1.29948,-1.22755 0.80448,-6.25 -0.33879,-3.4375 -0.18923,-6.88745 0.33236,-7.66655 1.28727,-1.92281 17.8159,-5.15126 20.71999,-4.04712 2.50891,0.95388 2.84696,1.79509 4.40588,10.96367 0.60785,3.575 2.73377,13.12884 4.72427,21.23076 3.5184,14.32091 3.56825,14.78695 1.79171,16.75 -2.24788,2.48388 -5.68092,2.60257 -7.78698,0.26924 -1.46387,-1.62184 -6.00994,-18.05267 -8.71539,-31.5 -0.79765,-3.9647 -1.62785,-5.75 -2.67384,-5.75 -1.23573,0 -1.37788,0.78799 -0.76669,4.25 1.47869,8.37576 0.88978,9.43347 -6.26364,11.2498 -2.85321,0.72445 -4.81087,1.78688 -4.81087,2.61086 0,0.76414 0.60636,1.26222 1.34747,1.10685 7.03238,-1.4743 10.30001,-1.39401 12.17082,0.29905 1.08994,0.98638 1.98171,2.30603 1.98171,2.93256 0,0.62652 1.79446,6.74428 3.98768,13.59501 2.19323,6.85073 3.99323,13.15736 4,14.01474 0.0262,3.3135 -2.90479,5.00511 -14.48768,8.36158 -17.44429,5.05496 -31.87946,10.67638 -49.999999,19.47125 -19.78417,9.60231 -25.68735,13.18712 -24.60349,14.94086 0.62335,1.00859 2.03997,0.68642 6.41356,-1.45859 5.57437,-2.73393 5.62844,-2.7396 7.75812,-0.81354 1.17955,1.06676 3.0332,3.68061 4.11924,5.80855 1.4352,2.81206 2.27489,3.5687 3.0738,2.76979 0.79891,-0.79891 0.47377,-2.43447 -1.19024,-5.9872 -3.2382,-6.9137 -2.42499,-8.44847 6.98278,-13.17861 12.018969,-6.04301 11.604549,-6.24943 20.130479,10.02704 3.02506,5.775 7.59612,13.7671 10.15793,17.76023 5.08815,7.93099 5.69134,10.99447 2.69811,13.7033 -4.53474,4.10389 -8.83147,-0.72423 -21.94495,-24.65895 -2.9833,-5.44513 -4.64488,-7.53093 -5.68216,-7.13289 -1.20157,0.46109 -0.99435,1.36727 1.14897,5.02458 3.41564,5.82835 2.73418,8.45972 -3.072079,11.86242 -2.46954,1.44724 -4.49007,2.96359 -4.49007,3.36967 0,1.93274 1.61422,1.79599 5.469519,-0.46337 5.42163,-3.17728 7.87953,-3.11059 10.50321,0.28501 6.00484,7.77153 17.02227,23.8973 17.0246,24.91821 0.007,2.90646 -1.78232,4.71724 -9.85776,9.978 -16.54178,10.77618 -28.749519,20.88568 -46.041109,38.12766 -15.72331,15.6782 -17.25194,17.5012 -15.85034,18.9028 1.4016,1.4016 1.90964,1.1545 5.2679,-2.5627 4.62331,-5.1175 7.22513,-5.2461 12.35593,-0.6107 3.11293,2.8123 4.09462,3.2419 4.97748,2.1781 0.84499,-1.0181 0.17899,-2.2242 -2.87483,-5.2062 -2.3711,-2.3153 -3.9746,-4.8153 -3.9746,-6.1966 0,-3.3605 12.11791,-15.27857 15.53478,-15.27857 1.86515,0 5.10107,2.40426 11.77669,8.75 5.062679,4.81247 12.576189,11.47247 16.696699,14.79987 4.64656,3.7522 7.61729,6.9167 7.82219,8.3324 0.40893,2.8256 -2.42264,6.1177 -5.26182,6.1177 -2.31704,0 -11.69828,-7.135 -23.822499,-18.1185 -5.84653,-5.2964 -7.89783,-6.6495 -8.3388,-5.5003 -0.37033,0.965 0.73142,2.6797 3.00397,4.675 4.54044,3.9866 4.65994,7.1886 0.45851,12.2857 -4.47613,5.4303 -2.32277,6.8814 2.49103,1.6786 2.22182,-2.4014 4.6263,-4.0205 5.9707,-4.0205 1.806139,0 17.167259,10.4019 25.918549,17.5509 3.19818,2.6126 2.06768,6.1536 -4.80886,15.0624 -12.98801,16.8265 -24.590839,36.2605 -34.663599,58.0591 -5.69303,12.3204 -6.42664,14.8646 -4.49947,15.6041 0.99553,0.382 2.10563,-1.0901 3.67229,-4.87 2.70894,-6.5358 4.7353,-7.3274 11.42075,-4.4617 5.722119,2.4528 5.628889,2.4433 5.628889,0.5721 0,-0.8158 -2.216729,-2.6065 -4.926069,-3.9794 -2.70934,-1.3729 -5.20487,-3.3747 -5.54563,-4.4483 -0.68886,-2.1704 6.1651,-16.7599 8.96537,-19.0839 1.890679,-1.5691 0.400009,-2.0557 20.006329,6.5295 7.15,3.1309 15.68929,6.6538 18.9762,7.8288 4.66325,1.6671 6.18628,2.7339 6.93239,4.8561 1.17879,3.3529 -1.41952,6.7803 -5.14006,6.7803 -2.53032,0 -22.08923,-7.3374 -29.1196,-10.924 -2.23809,-1.1418 -4.76218,-2.076 -5.60909,-2.076 -3.00842,0 -1.4688,2.0023 3.46016,4.5 4.4661,2.2632 4.99622,2.879 4.96456,5.7669 -0.0195,1.7782 -0.67854,4.3581 -1.46456,5.7331 -1.82135,3.1862 -1.87064,5 -0.13586,5 0.75028,0 2.1498,-2.0572 3.11005,-4.5715 2.72851,-7.1446 3.81193,-7.225 21.02581,-1.5616 19.37466,6.3743 19.1198,6.0088 14.07698,20.1882 -7.49241,21.0673 -14.02846,47.9293 -16.53235,67.9449 -0.58482,4.675 -1.3045,9.9625 -1.59929,11.75 -0.44625,2.706 -0.22071,3.25 1.34749,3.25 1.51933,0 2.05974,-1.1076 2.79531,-5.7291 1.10457,-6.9398 2.94343,-8.229 10.37757,-7.2753 4.30923,0.5528 5.03429,0.4032 5.03429,-1.0389 0,-1.241 -1.19606,-1.8488 -4.54032,-2.3071 -8.99909,-1.2335 -9.51928,-2.3482 -7.31747,-15.6806 1.74035,-10.5383 1.81234,-10.569 19.04091,-8.1363 7.87428,1.1119 18.0044,2.324 22.51137,2.6936 9.30831,0.7634 11.55551,1.9251 11.55551,5.9737 0,3.4279 -2.5232,5.5 -6.69726,5.5 -3.36162,0 -27.11142,-2.6631 -32.30274,-3.6221 -2.48486,-0.4591 -3.25,-0.2486 -3.25,0.8942 0,1.5476 2.84245,2.6906 6.75,2.7143 1.2375,0.01 3.17878,0.9424 4.31396,2.0776 1.78336,1.7834 1.97163,2.803 1.38478,7.5 -0.55844,4.4696 -0.41221,5.436 0.82249,5.436 1.02485,0 1.72784,-1.5082 2.21392,-4.75 1.34517,-8.9711 0.52675,-8.6313 18.87642,-7.8354 10.39972,0.4511 16.83629,1.1586 18.10095,1.9898 1.88323,1.2377 1.9659,2.6595 2.04634,35.1927 0.0526,21.2796 0.53951,36.8816 1.30768,41.9029 3.36305,21.9831 3.24305,21.5 5.3412,21.5 1.40455,0 1.83385,-0.5067 1.48265,-1.75 -1.12622,-3.9871 -1.61089,-9.8233 -0.901,-10.8503 1.2074,-1.7465 4.9093,-3.3997 7.6131,-3.3997 3.6169,0 5.5933,-0.9778 5.0161,-2.4817 -0.3713,-0.9677 -2.0474,-1.1764 -6.3292,-0.7881 -5.3255,0.4829 -5.95633,0.3244 -7.36905,-1.851 -0.89014,-1.3708 -1.83512,-6.006 -2.2295,-10.9359 -0.83061,-10.383 -0.0877,-11.4968 8.30855,-12.4564 3.1628,-0.3615 11.6006,-1.5567 18.7506,-2.6559 21.8781,-3.3636 21.6468,-3.3507 23.1555,-1.2874 2.0234,2.7671 1.6253,6.2278 -0.9055,7.873 -1.2375,0.8045 -9.9,2.6678 -19.25,4.1408 -20.0203,3.1539 -19.8255,3.1069 -18.9282,4.5588 0.4473,0.7238 2.4321,0.9251 5.5175,0.5597 6.1861,-0.7327 8.6701,1.1391 9.7082,7.3155 0.5347,3.1812 1.2859,4.5936 2.5753,4.8419 1.3558,0.2611 1.6904,-0.1195 1.3111,-1.4913 -1.4681,-5.3102 -1.6066,-9.0654 -0.3954,-10.7218 0.8965,-1.2261 5.9555,-2.85 16.2035,-5.2014 8.195,-1.8803 15.4008,-3.4188 16.0129,-3.4188 3.3902,0 4.7428,3.0883 8.5549,19.5329 4.7665,20.5617 10.1618,37.3069 18.0664,56.0724 6.7472,16.0176 8.1795,18.446 9.8875,16.7637 0.8629,-0.8499 0.6311,-2.1449 -0.9327,-5.2102 -3.5014,-6.8633 -2.4464,-9.4368 5.1741,-12.6209 2.4641,-1.0295 3.4999,-2.0128 3.1315,-2.9727 -0.462,-1.204 -1.417,-1.1027 -5.9456,0.6302 -4.8817,1.8682 -5.6115,1.9216 -7.6681,0.5614 -2.354,-1.557 -7.8219,-14.4609 -7.7901,-18.3843 0.022,-2.7276 1.2869,-3.7274 8.0197,-6.3391 3.0236,-1.1729 12.1634,-5.3525 20.3105,-9.2881 11.4141,-5.5137 15.1847,-6.9211 16.4332,-6.1336 2.6222,1.6541 3.5929,3.901 2.8919,6.6942 -0.5356,2.134 -2.8173,3.6906 -12.3973,8.4573 -6.4574,3.2131 -14.1033,6.8434 -16.9908,8.0672 -2.9483,1.2496 -5.25,2.8707 -5.25,3.6974 0,1.8546 -0.1603,1.873 5.4995,-0.6306 6.118,-2.7063 8.8311,-1.6247 11.4912,4.5811 1.3752,3.2083 2.3575,4.3254 3.4386,3.9105 1.3105,-0.5029 1.2491,-1.0988 -0.4579,-4.4449 -2.028,-3.9752 -2.4977,-7.6641 -1.2061,-9.4725 0.4041,-0.5657 6.8604,-4.5156 14.3473,-8.7775 11.4881,-6.5395 13.9886,-7.6059 16.0214,-6.833 1.6641,0.6327 4.2199,4.2738 8.267,11.7775 10.7081,19.8539 23.0028,37.2002 39.7607,56.0971 8.2601,9.3145 9.3339,10.1975 10.7176,8.8138 1.3837,-1.3837 1.1663,-1.9183 -2.1707,-5.3357 z m -11.325,9.5364 c -16.2452,-16.7753 -29.1754,-33.7273 -41.2519,-54.0828 -3.8611,-6.508 -7.1817,-12.3171 -7.379,-12.909 -0.2729,-0.8189 -11.745,4.5873 -14.6723,6.9141 -0.2307,0.1835 0.6059,2.5229 1.8593,5.1989 2.9526,6.304 2.1952,8.5201 -3.9819,11.6502 -3.378,1.7118 -4.7199,2.935 -4.3311,3.9481 0.4669,1.2168 1.4233,1.0321 5.5891,-1.0788 5.9083,-2.994 9.3789,-2.5869 10.8462,1.2722 0.7306,1.9219 0.6247,3.163 -0.403,4.7221 -1.7884,2.7131 -16.9296,10.1089 -19.0388,9.2995 -0.8766,-0.3364 -2.974,-2.8546 -4.6608,-5.596 -1.9666,-3.1962 -3.5667,-4.7927 -4.4598,-4.4499 -1.1114,0.4264 -0.8643,1.6125 1.2221,5.8665 2.4326,4.96 2.5062,5.4947 1.0545,7.6635 -0.9551,1.4269 -4.8502,3.6327 -10.0396,5.6855 -11.0746,4.3808 -11.4543,4.1682 -18.2114,-10.2008 -11.5059,-24.4672 -20.8056,-52.3226 -25.9784,-77.8137 l -0.5399,-2.6604 -5.2534,1.3986 c -2.8894,0.7692 -6.1535,1.4107 -7.2535,1.4257 -3.8003,0.052 -4.3957,1.1724 -3.4142,6.4262 1.2751,6.8255 -0.3472,9.1435 -7.0435,10.0645 -4.1569,0.5717 -5.0423,1.047 -5.0423,2.7067 0,1.2952 0.4893,1.8253 1.3722,1.4866 0.7546,-0.2896 3.4102,-0.8322 5.9012,-1.2058 3.8159,-0.5722 4.8596,-0.3486 6.6279,1.4196 4.8087,4.8087 1.4258,8.3248 -10.1294,10.5282 -11.1428,2.1247 -12.272,1.6 -13.8535,-6.4387 -0.6482,-3.2949 -1.3082,-5.9908 -1.4667,-5.9908 -2.6097,0 -3.0448,1.3655 -2.0987,6.5855 1.3903,7.6701 -0.031,8.8976 -11.8354,10.2256 -10.47987,1.179 -12.06508,0.6381 -13.41758,-4.5781 -3.79946,-14.6534 -6.33529,-45.6124 -5.93712,-72.4839 l 0.33711,-22.751 -4.11043,10e-4 c -2.26073,5e-4 -6.13592,-0.2767 -8.61153,-0.616 l -4.50111,-0.617 -0.49264,5.1271 c -0.72279,7.5222 -2.85481,9.4534 -9.51722,8.621 -4.25867,-0.5321 -5.26707,-0.3776 -5.26707,0.8069 0,1.7907 2.11887,2.6789 6.39066,2.6789 4.28506,0 6.85934,2.0331 6.85934,5.4173 0,5.1231 -1.95325,5.9178 -12.58562,5.1207 -11.85315,-0.8887 -13.12999,-1.9097 -12.46198,-9.9651 0.34167,-4.1202 0.10327,-5.6253 -0.95534,-6.0316 -2.22288,-0.853 -2.24706,-0.8062 -2.24706,4.348 0,3.2934 -0.61298,5.6462 -1.87806,7.2085 -1.8697,2.309 -1.91979,2.3135 -11.25,1.0096 -11.24699,-1.5717 -12.87774,-2.7149 -12.8563,-9.0124 0.0549,-16.1173 8.6554,-58.0926 16.92334,-82.595 1.6703,-4.95 3.04233,-9.0734 3.04896,-9.1632 0.007,-0.09 -2.80044,-1.0726 -6.23794,-2.184 -3.4375,-1.1113 -7.04175,-2.3251 -8.00945,-2.6973 -1.41087,-0.5426 -2.18155,0.339 -3.89001,4.45 -2.54123,6.1149 -4.72747,7.0059 -11.51494,4.6932 -3.72101,-1.2679 -4.87989,-1.342 -5.50549,-0.3523 -0.53857,0.8521 0.24262,1.6545 2.43875,2.5052 6.94659,2.6908 8.2235,3.7327 8.53991,6.9681 0.23918,2.4457 -0.24452,3.5197 -2.14641,4.7659 -2.32164,1.5212 -2.93177,1.4294 -11.21759,-1.6884 -4.819329,-1.8135 -9.239299,-4.0659 -9.822159,-5.0054 -0.99227,-1.5995 -0.22669,-6.4841 1.86713,-11.9127 0.37563,-0.9739 0.0238,-1.8518 -0.88138,-2.1991 -1.10431,-0.4238 -2.02233,0.8101 -3.4382,4.6209 -2.83807,7.6389 -4.79735,8.0037 -15.51135,2.8886 -10.97009,-5.2374 -11.23464,-6.0347 -6.13547,-18.4906 8.93178,-21.8179 25.49009,-51.3853 37.957519,-67.7789 2.48552,-3.2683 4.51914,-6.3816 4.51914,-6.9186 0,-0.5369 -1.6875,-2.09 -3.75,-3.4512 -2.0625,-1.3612 -4.9551,-3.4058 -6.428,-4.5435 l -2.677999,-2.0686 -3.23936,4.031 c -4.04806,5.0372 -7.48424,5.324 -12.85224,1.0724 -2.753,-2.1804 -4.02942,-2.6644 -4.85335,-1.8405 -0.82393,0.8239 0.0549,2.0317 3.3415,4.5923 4.95706,3.862 5.88962,7.6025 2.63071,10.5517 -2.89213,2.6174 -4.55054,2.0442 -12.60575,-4.357 -8.86646,-7.0459 -9.24617,-8.4993 -4.01155,-15.3548 3.07871,-4.0321 3.32682,-4.7417 1.85539,-5.3063 -1.0788,-0.414 -2.2078,0.046 -3.0942,1.2607 -6.35094,8.7028 -8.64283,8.6556 -17.59197,-0.3627 -4.22301,-4.2556 -6.72318,-7.5964 -6.72318,-8.9836 0,-2.7837 14.31874,-19.48548 27.54738,-32.13215 10.99933,-10.51542 25.90558,-22.65466 37.066879,-30.18622 4.72466,-3.18817 7.19144,-5.46047 6.75507,-6.22251 -0.8287,-1.44717 -7.41848,-10.85182 -8.4453,-12.05277 -0.40084,-0.46881 -2.45218,0.31869 -4.55855,1.75 -5.574289,3.78782 -7.831919,3.41782 -11.578589,-1.89762 -1.74454,-2.475 -3.76027,-4.5 -4.47939,-4.5 -1.84189,0 -1.64274,0.93907 1.16641,5.5 2.99668,4.86539 3.1534,7.62232 0.56639,9.96353 -3.37155,3.05121 -6.57153,1.28825 -11.43561,-6.30021 -6.95593,-10.85194 -6.89838,-11.37955 1.94252,-17.81155 2.25523,-1.64074 2.68055,-2.4327 1.80041,-3.35239 -0.89244,-0.93252 -2.01627,-0.61712 -4.98214,1.39824 -6.97674,4.74082 -8.8479,3.69438 -14.84467,-8.30185 -3.04302,-6.0874 -3.5169,-7.80893 -2.6645,-9.67974 2.88663,-6.33548 49.109109,-28.78865 77.143689,-37.47357 5.775,-1.78905 10.90661,-3.6121 11.40358,-4.05123 0.52893,-0.46735 0.24957,-2.57986 -0.67372,-5.09481 -0.86753,-2.36303 -1.88135,-5.79971 -2.25295,-7.63707 -0.57085,-2.82254 -1.00919,-3.24694 -2.82627,-2.73645 -9.77205,2.74533 -12.28642,1.71869 -14.19732,-5.79688 -0.68459,-2.69248 -1.68542,-4.23962 -2.89301,-4.47218 -1.52041,-0.2928 -1.71974,0.0594 -1.1292,1.99529 0.39442,1.29298 0.96451,4.47262 1.26688,7.06587 0.50838,4.36029 0.35235,4.80494 -2.07412,5.91052 -4.35885,1.98602 -7.16615,-0.0392 -9.05342,-6.53119 -4.04905,-13.92823 -3.61068,-15.94535 3.94254,-18.14113 4.13957,-1.20341 5.48701,-2.05708 5.48701,-3.47633 0,-1.77988 -0.25586,-1.80357 -4.75,-0.43986 -5.86375,1.7793 -6.42322,1.78803 -8.68318,0.13551 -2.89986,-2.12043 -5.72964,-19.29066 -3.70531,-22.48267 0.9838,-1.55129 10.86619,-4.22824 28.22542,-7.64574 18.11721,-3.56671 35.07975,-5.53766 53.69975,-6.23961 l 16.28667,-0.61398 -0.28667,-8.59526 -0.28668,-8.59526 -5.5,-0.51052 c -3.025,-0.28079 -6.0625,-0.86984 -6.75,-1.30902 -0.77013,-0.49195 -1.25,-3.07922 -1.25,-6.73948 0,-5.27431 -0.22443,-5.94098 -2,-5.94098 -1.77011,0 -2,0.66667 -2,5.8 0,6.41581 -1.09771,8.2 -5.04501,8.2 -4.64207,0 -5.95499,-2.66912 -5.95499,-12.10623 0,-11.37688 1.06548,-12.89377 9.0567,-12.89377 5.27663,0 5.9433,-0.22434 5.9433,-2 0,-1.75439 -0.66667,-2 -5.42857,-2 -8.14927,0 -8.92384,-1.19444 -8.05062,-12.41457 0.3889,-4.99698 1.1188,-9.86762 1.62201,-10.82362 1.48878,-2.82846 5.27231,-3.13052 23.81508,-1.90131 21.26209,1.40949 38.82729,3.90637 57.54209,8.17956 19.9964,4.56583 18.4416,4.87069 20.549,-4.02928 0.9753,-4.11907 1.5999,-7.76984 1.3879,-8.11283 -0.2119,-0.34298 -2.4636,-1.20546 -5.0036,-1.91662 -6.1344,-1.71754 -7.3579,-4.28364 -5.224,-10.95661 1.4033,-4.38819 1.4069,-4.95801 0.035,-5.48439 -1.873,-0.71872 -1.6544,-1.04193 -3.2367,4.78572 -2.014,7.41786 -8.1713,9.97412 -11.0533,4.58896 -1.2839,-2.39892 2.3285,-16.80806 5.0593,-20.18036 1.6829,-2.07836 2.0721,-2.1295 7.5156,-0.98772 3.1574,0.66228 6.13,0.96359 6.6057,0.66959 1.9437,-1.20132 0.5824,-2.35671 -4.5268,-3.842 -7.7454,-2.25165 -8.2268,-4.369521 -3.5659,-15.686981 4.3567,-10.57866 4.5179,-10.6868 12.7035,-8.52054 18.6656,4.93971 53.787,20.29418 73.1319,31.971981 5.1577,3.11356 9.6577,5.65933 10,5.65725 0.3422,-0.002 2.4813,-3.1276 4.7535,-6.94563 l 4.1314,-6.94187 -3.9213,-2.59499 c -6.1543,-4.072681 -6.75,-6.480761 -3.0215,-12.212591 2.1628,-3.32492 2.7847,-5.08275 2.0478,-5.78813 -0.7256,-0.69446 -1.5756,-0.22685 -2.7029,1.48698 -2.564,3.8978 -6.8696,8 -8.3968,8 -2.0217,0 -4.4725,-2.18372 -5.1964,-4.63031 -0.4607,-1.55679 0.7909,-4.24902 4.649,-10 6.1612,-9.184174 8.2232,-10.008414 14.7425,-5.892944 3.7419,2.362134 6.0369,2.611804 6.0369,0.65673 0,-0.41166 -2.025,-2.17583 -4.5,-3.92037 -3.3463,-2.35867 -4.5,-3.83181 -4.5,-5.74585 0,-3.24735 10.3214,-16.25885 13.5378,-17.0661 6.1188,-1.53573 43.1081,29.143464 64.0203,53.098844 3.841,4.400001 7.731,9.068721 8.6444,10.374941 l 1.6608,2.37495 6.4937,-5.73661 6.4938,-5.73661 -2.9254,-4.038371 c -4.084,-5.6377 -3.8097,-7.97146 1.4045,-11.95281 2.3814,-1.81836 4.1439,-3.86398 3.9166,-4.5458 -0.6147,-1.84419 -1.5847,-1.54703 -5.7465,1.76031 -4.1843,3.32529 -7.5479,3.80925 -9.9286,1.42857 -2.7884,-2.78849 -1.8979,-6.02939 2.6786,-9.74781 5.7092,-4.638754 11.7948,-8.680764 13.0697,-8.680764 0.5723,0 2.9747,2.07692 5.3386,4.61537 2.8617,3.073 4.8246,4.413304 5.8738,4.010684 1.2994,-0.498624 0.9524,-1.421214 -1.9781,-5.259174 -4.0413,-5.2927 -4.2491,-6.34727 -1.804,-9.15441 2.3234,-2.66735 15.1565,-10.21247 17.3699,-10.21247 6.3081,0 36.5957,51.532664 46.872,79.750005 1.2518,3.4375 2.4105,6.25 2.5748,6.25 0.7122,0 14.5077,-5.74109 15.0154,-6.24875 0.3089,-0.30888 -0.1599,-2.68668 -1.0417,-5.28398 -1.4288,-4.20864 -1.4405,-4.97074 -0.1072,-7.00557 0.8228,-1.25577 3.1994,-2.82774 5.2814,-3.49326 4.7068,-1.50458 6.0228,-2.6311 4.6625,-3.99139 -0.6973,-0.69727 -2.1834,-0.53808 -4.6679,0.5 -5.3582,2.23881 -8.3898,1.93999 -10.328,-1.01801 -2.8981,-4.42306 -0.8289,-6.74605 9.261,-10.397021 10.727,-3.88146 12.4308,-3.44061 15.0344,3.890051 1.2361,3.48045 2.341,5.04793 3.5581,5.04793 2.1419,0 2.1501,-0.14342 0.2653,-4.65424 -0.825,-1.974511 -1.5,-4.908011 -1.5,-6.518911 0,-3.38185 1.9286,-4.42604 13.6928,-7.41368 7.0082,-1.77979 7.2461,-1.77844 9.2695,0.0527 5.6802,5.14053 18.7883,60.334141 20.6631,87.005061 l 0.6753,9.60654 4.3496,-0.53873 c 2.3924,-0.2963 6.428,-0.79929 8.9681,-1.11775 l 4.6183,-0.57902 -0.6225,-4.69256 c -0.8845,-6.66782 0.8641,-8.81536 7.8927,-9.69353 3.6826,-0.4601 5.4931,-1.14275 5.4931,-2.07109 0,-1.02176 -1.5323,-1.38478 -5.845,-1.38478 -7.9823,0 -11.3368,-3.63396 -7.8085,-8.45912 1.0489,-1.43452 3.3137,-2.00189 10.25,-2.56784 12.5171,-1.0213 14.3629,0.10468 14.3882,8.77696 0.014,4.69127 0.2428,5.25 2.153,5.25 1.993,0 2.0955,-0.35869 1.5149,-5.29879 -0.464,-3.94775 -0.2296,-5.86002 0.919,-7.5 1.4102,-2.01335 2.3772,-2.20121 11.3301,-2.20121 14.02,0 13.5091,-0.87398 13.9433,23.85269 0.1897,10.80602 -0.1719,25.94731 -0.8035,33.64731 -1.0579,12.89554 -4.1647,36.15857 -5.5848,41.81636 -0.5697,2.2701 -0.2965,2.42072 5.7225,3.15445 11.432,1.39357 11.1113,1.46783 12.0092,-2.78054 1.5628,-7.39428 2.1975,-7.89468 9.5414,-7.52291 7.7207,0.39084 9.9639,-1.55697 3.0714,-2.66692 -6.4751,-1.04271 -8.9814,-2.99634 -8.61,-6.71115 0.4718,-4.71775 2.4742,-5.40355 11.3986,-3.90398 12.95,2.17599 14.2513,3.39934 12.4005,11.65799 -0.6784,3.02712 -0.7214,5.12557 -0.1175,5.72949 1.6061,1.60609 2.865,-0.0385 3.5558,-4.64533 0.3667,-2.44542 1.5481,-5.20139 2.6616,-6.2091 1.924,-1.74118 2.2642,-1.74314 8.706,-0.0501 10.4761,2.75333 13.6519,4.60204 13.9999,8.14986 0.3821,3.89539 -5.4468,26.35553 -11.1548,42.98187 -4.7878,13.94624 -11.757,30.80831 -17.2023,41.62126 l -3.369,6.68991 7.6114,3.61466 c 4.1863,1.98806 7.7002,3.49305 7.8086,3.34441 0.1085,-0.14863 1.2584,-2.19697 2.5555,-4.55187 3.0118,-5.46797 5.3954,-6.04215 11.7387,-2.82774 4.092,2.07356 5.1279,2.28086 5.5751,1.11558 0.3676,-0.95805 -1.0819,-2.31897 -4.3846,-4.11649 -2.7135,-1.4769 -5.1983,-3.51878 -5.5216,-4.5375 -0.9155,-2.88461 0.4746,-5.87424 3.2162,-6.91658 2.0622,-0.78405 3.8961,-0.22251 10.5091,3.21796 10.2277,5.32106 11.1297,7.02876 7.5585,14.31039 -2.0725,4.22575 -2.3395,5.47452 -1.259,5.88913 1.2835,0.49256 4.5221,-3.20494 4.5221,-5.16294 0,-1.60557 3.6232,-4.19017 5.8739,-4.19017 2.9697,0 16.8098,9.42801 17.629,12.00903 0.8182,2.57789 -3.7704,11.13597 -15.0078,27.99097 -11.6284,17.44123 -19.7967,27.41813 -34.9776,42.72188 l -13.1158,13.22189 8.2328,8.19 8.2327,8.19 3.6012,-3.1619 c 5.0792,-4.4596 8.341,-4.2269 12.4515,0.8881 2.6756,3.3294 3.5143,3.8346 4.7135,2.8393 1.2423,-1.031 0.9327,-1.7493 -2.0873,-4.8421 -3.874,-3.9673 -4.605,-7.8454 -1.9747,-10.4757 2.0576,-2.0576 4.7221,-1.9918 7.2261,0.1785 4.7148,4.0866 11.2025,12.4813 11.2025,14.4956 0,1.2135 -1.8624,4.0764 -4.2041,6.4624 -3.2742,3.3362 -3.9382,4.5497 -3.002,5.4859 0.9363,0.9363 1.9216,0.5268 4.4542,-1.8512 6.5002,-6.1033 8.667,-5.3692 16.1249,5.463 3.7643,5.4673 4.7322,7.639 4.254,9.5443 -1.4792,5.8938 -37.8004,31.0481 -63.522,43.9923 -9.1327,4.596 -17.1898,8.5441 -17.9045,8.7735 -0.9525,0.3058 -0.3588,2.4815 2.223,8.1468 l 3.5224,7.7296 5.0806,-2.0026 c 6.3873,-2.5176 8.3593,-1.6358 11.3179,5.0609 1.6338,3.6979 2.4974,4.6674 3.5678,4.005 1.1847,-0.7332 1.0539,-1.7069 -0.8124,-6.0451 -2.0865,-4.8502 -2.1238,-5.3248 -0.6006,-7.6495 1.2658,-1.9318 2.3271,-2.4103 4.8124,-2.1696 2.8302,0.2741 3.5476,1.0389 6.3857,6.8087 5.8925,11.9791 5.5305,14.6723 -2.4473,18.2093 -2.3375,1.0364 -4.25,2.5383 -4.25,3.3375 0,1.8188 1.7654,1.8023 5,-0.047 3.1107,-1.7782 8.4271,-1.9146 9.7441,-0.25 1.9524,2.4679 6.4002,17.7199 5.7578,19.7441 -0.8662,2.7291 -5.2497,4.8241 -22.6481,10.8245 -17.1594,5.9179 -41.8113,12.2059 -57.3538,14.6292 -17.5569,2.7373 -15.8461,1.847 -15.0873,7.852 0.3614,2.8601 0.9212,6.6882 1.2441,8.5069 l 0.5871,3.3068 5.2756,-0.6592 c 4.5477,-0.5682 5.5658,-0.369 7.3781,1.4433 1.3165,1.3165 2.1024,3.3802 2.1024,5.5206 0,4.563 0.8668,6.5701 2.5573,5.9215 1.0686,-0.4101 1.2511,-1.8792 0.7861,-6.3279 -0.5762,-5.5137 -0.4727,-5.8809 2.1408,-7.5934 3.9936,-2.6167 7.7205,-0.4065 8.6112,5.1069 1.9977,12.3651 1.9825,15.3968 -0.088,17.4669 -1.2272,1.2273 -3.3367,2.0078 -5.426,2.0078 -4.4999,0 -6.5818,0.8682 -6.5818,2.7447 0,1.2668 0.9468,1.4194 5.4922,0.8852 4.6898,-0.5512 5.7855,-0.3522 7.5,1.3623 1.7394,1.7394 2.0078,3.3283 2.0078,11.8854 0,7.06 -0.3841,10.1963 -1.3466,10.9951 -5.2351,4.3448 -63.0822,4.6574 -94.7496,0.5121 l -4.5962,-0.6016 -0.6411,6.1338 c -0.3526,3.3736 -0.9091,7.2015 -1.2366,8.5065 -0.5414,2.1569 -0.2013,2.4363 3.7373,3.0707 2.383,0.3839 5.3854,1.3665 6.672,2.1834 2.1055,1.337 2.3053,2.092 2,7.5574 -0.3659,6.5506 1.503,9.3274 2.5697,3.818 0.3251,-1.6791 0.8582,-4.4318 1.1846,-6.117 0.8134,-4.1992 4.4049,-5.8223 7.8656,-3.5548 2.8943,1.8965 3.1355,4.2413 1.5038,14.6188 -1.2104,7.6978 -3.5026,10.3173 -8.3483,9.5406 -7.0034,-1.1225 -8.0638,-1.0482 -8.3899,0.5884 -0.2486,1.2471 0.772,1.7934 4.3532,2.3304 6.3345,0.95 7.4623,1.4751 8.3558,3.8905 0.6972,1.8845 0.3028,4.0777 -3.0467,16.944 -1.4416,5.5374 -3.4181,5.8964 -17.5588,3.1895 -26.6016,-5.0922 -66.3823,-17.6764 -79.5739,-25.1724 -0.4102,-0.233 -1.2687,0.8391 -1.9079,2.3826 -0.6392,1.5436 -2.1742,5.1317 -3.4111,7.9737 l -2.2489,5.1673 2.9477,1.221 c 4.5145,1.8699 7.8659,4.8766 7.8659,7.0568 0,1.082 -0.9403,3.8104 -2.0895,6.0631 -1.6909,3.3144 -1.834,4.2539 -0.75,4.924 0.9662,0.5974 2.0036,-0.4853 3.7226,-3.8856 2.6528,-5.2472 3.6588,-6.1762 6.7119,-6.1986 2.352,-0.017 5.405,2.8728 5.405,5.1164 0,0.8107 -1.7635,5.1209 -3.919,9.5781 -4.6841,9.6862 -6.2052,10.5107 -13.2789,7.1975 -4.2024,-1.9683 -5.0711,-2.0957 -5.8556,-0.8592 -0.7129,1.1237 0.1058,1.911 3.6215,3.4825 4.8122,2.151 6.3918,3.8236 6.4167,6.7946 0.023,2.6778 -7.9179,15.585 -10.7154,17.4179 -2.2941,1.5032 -2.861,1.3369 -12.5858,-3.692 -22.6835,-11.7302 -44.9126,-26.7114 -62.8544,-42.3604 -4.219,-3.6799 -7.864,-6.6907 -8.1,-6.6907 -0.2361,0 -2.806,2.7328 -5.711,6.0728 l -5.2819,6.0727 3.6319,3.7194 c 4.668,4.7805 4.6526,7.5055 -0.07,12.3415 -2.8148,2.8826 -3.4227,4.0694 -2.5378,4.9543 0.8849,0.885 2.2454,0.1666 5.6791,-2.9985 5.0753,-4.6782 6.681,-5.0414 9.5602,-2.1622 3.1353,3.1353 2.4424,5.228 -4.0924,12.3595 -7.9044,8.6263 -9.4997,9.0056 -15.7757,3.751 -3.9537,-3.3102 -5.1103,-3.8415 -6.0079,-2.7599 -0.8619,1.0385 -0.2142,2.1699 2.8821,5.0348 3.8192,3.5336 4.9376,6.7113 3.2286,9.1728 -1.8854,2.7156 -14.4662,12.4418 -16.0933,12.4418 -1.0109,0 -6.2798,-4.5933 -11.7578,-10.25 z m 23.9172,6.827 c 4.0505,-3.5327 12.161,-11.464 18.0232,-17.625 8.4044,-8.8329 11.2255,-11.202 13.3393,-11.202 2.8813,0 5.3367,2.5074 5.3367,5.4497 0,1.9271 -12.2437,16.0692 -20.8566,24.0904 -2.8288,2.6345 -5.1434,5.0205 -5.1434,5.3022 0,0.2816 3.9375,0.2078 8.75,-0.164 10.2813,-0.7944 9.4882,-0.2357 22.9648,-16.1783 7.4095,-8.7652 10.0589,-11.25 11.9955,-11.25 1.367,0 6.379,2.3952 11.1376,5.3226 4.7587,2.9274 11.4322,6.8384 14.83,8.6912 l 6.1778,3.3686 10.1309,-2.8294 10.1308,-2.8294 3.0036,-5.1118 c 1.652,-2.8115 6.8158,-12.8319 11.475,-22.2677 4.6593,-9.4358 9.1681,-17.4233 10.0195,-17.75 4.0136,-1.5402 7.397,0.8614 7.3646,5.2274 -0.011,1.4732 -3.4984,9.7675 -7.75,18.4317 -4.2515,8.6643 -7.7046,15.7518 -7.6734,15.75 0.031,0 3.8561,-1.4791 8.5,-3.2831 l 8.4433,-3.2798 7.0702,-16.4702 c 6.1837,-14.4051 7.3767,-16.5069 9.5152,-16.7638 1.3447,-0.1616 8.9395,1.3009 16.8773,3.25 7.9378,1.949 15.3559,3.5419 16.4848,3.5396 1.1289,0 5.9815,-2.51 10.7835,-5.5727 7.6225,-4.8615 8.8623,-6.0561 9.7651,-9.4085 1.8628,-6.9182 4.9004,-22.3155 6.4822,-32.8586 0.8535,-5.6892 2.011,-11.2017 2.572,-12.25 1.3361,-2.4966 6.107,-2.4948 8.3676,0 1.6293,1.8004 1.6335,2.5556 0.073,13.25 -0.9103,6.2374 -2.2606,14.2607 -3.0008,17.8295 -0.7402,3.5688 -1.1807,6.6537 -0.979,6.8555 0.4272,0.4271 11.5503,-8.0023 13.1894,-9.9953 1.1096,-1.3492 4.2997,-23.1099 4.2997,-29.3299 0,-1.8136 0.8204,-4.3107 1.8231,-5.549 1.7159,-2.1189 2.8487,-2.2963 19.25,-3.0138 9.5848,-0.4193 17.4768,-0.806 17.5379,-0.8593 0.061,-0.053 3.3887,-3.7926 7.3948,-8.3094 l 7.2839,-8.2124 -0.6545,-13.0376 c -0.36,-7.1707 -1.3153,-17.9692 -2.1228,-23.9968 -1.3014,-9.7142 -1.2977,-11.2196 0.033,-13.25 1.7129,-2.6142 6.5114,-3.1325 8.3617,-0.9031 0.6334,0.7633 1.8332,7.1758 2.6661,14.25 0.833,7.0743 1.8323,15.2475 2.2208,18.1628 l 0.7063,5.3004 5.3317,-7.1405 5.3318,-7.1406 -2.6223,-16.9263 c -1.7374,-11.215 -2.3075,-17.4887 -1.6895,-18.5931 0.5708,-1.0199 7.3807,-3.7433 17.5487,-7.018 l 16.616,-5.3514 4.982,-9.9278 4.982,-9.9278 -4.1284,-11.7877 c -2.2706,-6.4832 -6.3154,-16.823 -8.9884,-22.9772 -3.9545,-9.1045 -4.6848,-11.6507 -3.9192,-13.6644 1.1325,-2.9786 4.2316,-4.1574 7.0145,-2.668 2.5416,1.3602 4.608,5.3946 11.0877,21.6479 2.8229,7.0807 5.268,13.0123 5.4336,13.1813 0.1655,0.169 1.6873,-3.3232 3.3817,-7.7603 3.5704,-9.3501 3.9739,-7.3418 -5.4515,-27.1366 -4.0864,-8.5821 -6.228,-14.2221 -5.812,-15.3063 0.3623,-0.9442 4.0884,-4.0216 8.2802,-6.8387 11.9928,-8.0598 20.5649,-14.7612 21.2576,-16.6187 0.35,-0.9383 1.2168,-5.8071 1.9262,-10.8196 l 1.2899,-9.1136 -5.6687,-7.8731 c -3.1177,-4.33 -10.172,-13.1214 -15.6761,-19.5362 -5.5041,-6.4148 -10.0075,-12.56274 -10.0075,-13.66216 0,-2.69038 2.6165,-5.14181 5.488,-5.14181 2.5861,0 12.7315,10.34897 21.8382,22.27647 l 5.1738,6.7765 0.6624,-4.7765 c 0.3643,-2.627 0.7018,-9.2638 0.75,-14.7482 l 0.088,-9.9718 -13,-12.66823 c -7.15,-6.96753 -13,-13.30546 -13,-14.08431 0,-0.77884 2.952,-5.66584 6.5599,-10.86 3.608,-5.19416 8.0909,-11.94956 9.9619,-15.012 l 3.402,-5.56806 -2.2868,-10.17348 c -1.2577,-5.59541 -2.478,-10.35017 -2.7119,-10.56612 -1.8284,-1.68872 -19.6729,-12.53668 -29.5571,-17.96819 -6.6725,-3.6667 -12.6853,-7.33349 -13.3616,-8.14842 -1.7355,-2.09115 -0.411,-6.36617 2.3641,-7.6306 1.9458,-0.88655 3.737,-0.33315 11.2224,3.46724 4.8989,2.4872 12.2821,6.53051 16.4071,8.98514 4.125,2.45463 7.6496,4.06089 7.8324,3.56947 0.4099,-1.10171 -3.7436,-13.94931 -5.0407,-15.59203 -0.5182,-0.65622 -7.8498,-4.58382 -16.2926,-8.72801 -10.5902,-5.19831 -15.5516,-8.16909 -15.9995,-9.58005 -0.381,-1.2004 0.6055,-5.85637 2.3883,-11.27199 1.6706,-5.07476 3.9107,-12.43588 4.9781,-16.35805 l 1.9408,-7.13123 -5.4312,-9.5559 c -5.4212,-9.53839 -5.4412,-9.55876 -10.9034,-11.11877 -13.0502,-3.72718 -16.6714,-4.61956 -28.9722,-7.13973 -7.15,-1.46487 -13.5625,-3.11445 -14.25,-3.66572 -1.908,-1.52996 -1.4897,-6.23054 0.7336,-8.24255 1.8962,-1.71602 2.3697,-1.71963 10.75,-0.0819 4.8215,0.94226 12.9289,2.75737 18.0164,4.03357 5.0875,1.2762 9.25,2.00619 9.25,1.62219 0,-1.12236 -8.9138,-13.46103 -10.275,-14.22275 -0.6821,-0.38173 -8.4368,-1.90104 -17.2326,-3.37624 -8.7958,-1.47521 -16.5549,-3.14399 -17.2424,-3.70842 -0.914,-0.75039 -1.25,-5.77013 -1.25,-18.67585 l 0,-17.64964 -8.4308,-8.38697 -8.4307,-8.38698 -17.3193,0.6781 c -9.5255,0.37295 -20.2976,0.95365 -23.9378,1.29044 -5.8848,0.54446 -6.8549,0.37604 -8.75,-1.51904 -2.6342,-2.63423 -2.6962,-4.56662 -0.2255,-7.03725 1.9816,-1.98165 3.9499,-2.25731 27.5179,-3.85405 l 10.9239,-0.74009 -6.9239,-5.64412 -6.9238,-5.64412 -10,0.90713 c -5.5,0.49892 -12.925,1.28987 -16.5,1.75767 -7.6152,0.99648 -10.7705,-0.0321 -11.6506,-3.798 -2.5279,-10.81704 -6.5445,-25.609841 -7.7129,-28.406241 -1.1284,-2.70056 -3.2602,-4.40658 -10.6333,-8.50952 l -9.2219,-5.13177 -8.7804,2.46873 c -4.8293,1.35781 -15.401,4.77714 -23.4927,7.59853 -12.3066,4.29105 -15.1043,4.95115 -17.1102,4.03719 -1.88,-0.85659 -2.398,-1.86515 -2.398,-4.66907 0,-3.35482 0.3254,-3.71946 5.25,-5.88374 2.8875,-1.269 11.0991,-4.25463 18.248,-6.63473 l 12.9979,-4.32746 -7.9434,-3.718244 -7.9434,-3.71825 -7.0545,2.53399 c -3.88,1.39369 -11.1046,4.276234 -16.0546,6.405644 -4.95,2.12941 -9.7177,3.87272 -10.595,3.87402 -2.1333,0.003 -3.6302,-1.87692 -9.9505,-12.497644 -7.1763,-12.05921 -11.718,-18.29742 -13.7633,-18.90465 -4.5223,-1.34262 -15.5773,-3.59535 -17.6438,-3.59535 -2.7777,0 -17.1107,9.231 -31.2591,20.13207 -11.1629,8.600774 -14.1414,9.547934 -16.8802,5.36793 -1.506,-2.29844 -1.5087,-2.69747 -0.033,-4.94929 1.7995,-2.74645 11.4486,-10.61903 22.4171,-18.28975 8.1688,-5.71281 8.1741,-5.70266 -3.565,-6.79303 l -7.2731,-0.67555 -5.2269,4.03644 c -2.8749,2.22004 -9.1995,7.44175 -14.0548,11.60381 -4.8553,4.16205 -9.4135,7.56737 -10.1294,7.56737 -0.7158,0 -5.5253,-3.4875 -10.6876,-7.75 -5.1623,-4.2625 -11.6291,-9.38112 -14.3706,-11.37471 l -4.9846,-3.62471 -10.5,1.36846 c -5.775,0.75266 -10.95,1.93488 -11.5,2.62716 -6.3429,7.98374 -17.2529,23.17965 -21.8629,30.451654 -3.5679,5.62808 -6.5963,9.31972 -7.9318,9.66898 -3.0518,0.79805 -6.7053,-1.88216 -6.7053,-4.91901 0,-2.43325 8.6653,-16.665524 17.0907,-28.070614 3.0085,-4.07242 3.6204,-5.42815 2.2656,-5.01935 -1.021,0.30803 -5.0951,1.28422 -9.0537,2.1693 l -7.1975,1.60925 -4.8946,7.68179 c -2.692,4.22499 -6.5926,10.74298 -8.668,14.48442 -5.9164,10.665774 -5.9772,10.679654 -20.8107,4.751154 -20.602,-8.234024 -19.6868,-8.149724 -30.8856,-2.84478 l -9.5419,4.52002 -4.2309,11.8855 c -2.327,6.53702 -5.6464,17.003801 -7.3766,23.259511 -3.4793,12.58008 -5.2981,14.98846 -9.9762,13.20983 -4.8191,-1.8322 -4.4345,-5.54772 2.9416,-28.421951 1.9222,-5.96096 3.3355,-10.99753 3.1407,-11.1924 -0.1949,-0.19486 -3.6093,1.53228 -7.5875,3.8381 -7.1785,4.16071 -7.2478,4.24153 -9.1784,10.692401 -1.0698,3.575 -3.0473,11.19917 -4.3942,16.9426 -2.673,11.39738 -4.2079,13.55971 -8.9653,12.62998 -1.5524,-0.30338 -9.06988,-1.07502 -16.70547,-1.71477 l -13.88289,-1.16317 -3.29457,2.54061 c -1.81201,1.39733 -5.92951,4.95354 -9.15001,7.90268 l -5.85544,5.36207 -0.50571,23.5 c -0.54588,25.36634 -1.08531,28 -5.73502,28 -5.14728,0 -5.54838,-1.57522 -5.54838,-21.79013 l 0,-18.64726 -6,5.93739 -6,5.93739 0,18.2246 c 0,17.69917 -0.0641,18.26948 -2.22251,19.78131 -1.22237,0.85618 -3.22688,1.5567 -4.45446,1.5567 -1.22758,0 -8.33517,1.17948 -15.79464,2.62107 l -13.56268,2.62107 -5.98286,8.94446 c -3.29057,4.91946 -5.975439,9.92748 -5.966389,11.12893 0.0253,3.35727 5.609529,27.85507 8.538079,37.45629 2.00667,6.57883 2.37549,9.08634 1.59004,10.81021 -2.12217,4.65765 -8.26236,3.82572 -10.280069,-1.39283 -0.89857,-2.32405 -2.20878,-7.16197 -8.02804,-29.64342 l -1.02354,-3.95422 -4.2962,7.82157 -4.2962,7.82157 1.91991,6.78433 c 1.05595,3.73137 3.25633,10.73798 4.88973,15.57023 4.61859,13.66359 4.4949,13.96185 -8.18055,19.72672 -4.20771,1.91369 -10.76804,5.30025 -14.57851,7.52568 l -6.92813,4.04625 -2.67149,8.90168 c -1.46932,4.89592 -2.67149,9.71666 -2.67149,10.71274 0,2.09458 9.93685,20.26481 17.5722,32.13201 7.87666,12.24224 7.82434,12.11152 5.97582,14.93272 -1.09653,1.67352 -2.5214,2.43294 -4.5648,2.43294 -3.53863,0 -5.6524,-2.64553 -16.26168,-20.35254 -7.82424,-13.05876 -7.52857,-13.01539 -9.68695,-1.42096 -1.20953,6.49739 -1.16664,6.87205 1.25948,11 1.38142,2.35042 5.92918,8.9985 10.10613,14.7735 4.17696,5.775 7.59567,11.2064 7.59713,12.06977 0.001,0.86338 -5.62233,7.27699 -12.49733,14.25247 l -12.5,12.6827 0,11.21083 0,11.2108 6.75,6.3481 c 3.7125,3.4914 11.25,9.9603 16.75,14.3753 15.42138,12.3792 15.5,12.4563 15.5,15.2031 0,2.4666 -3.15581,5.6469 -5.60343,5.6469 -1.2058,0 -17.37826,-12.2026 -26.48381,-19.9828 -4.7426,-4.0523 -5.18828,-4.2443 -4.64083,-2 0.33308,1.3656 0.9208,5.3352 1.30603,8.8214 0.83829,7.5863 1.13637,7.9137 17.712,19.4534 7.74737,5.3936 11.99128,9.0051 12.3771,10.5325 0.41219,1.6319 -1.07484,5.6542 -4.99089,13.5 -3.06791,6.1465 -6.44126,13.2131 -7.49633,15.7034 l -1.91832,4.5279 3.50666,9.78 3.50667,9.7801 7.61258,3.7949 c 4.18691,2.0872 13.68757,6.1204 21.11257,8.9627 7.424999,2.8422 14.624999,5.736 15.999999,6.4305 2.85816,1.4438 3.65672,4.6004 1.96397,7.7634 -1.73251,3.2372 -7.04324,2.2372 -23.868719,-4.4943 -7.85738,-3.1435 -14.45515,-5.5465 -14.6617,-5.3399 -0.20656,0.2065 1.24954,3.8135 3.23578,8.0155 l 3.61135,7.64 15.99773,5.2964 c 8.798749,2.913 16.709009,5.8165 17.578359,6.4522 1.40413,1.0267 1.43713,2.0885 0.29551,9.5092 -0.70681,4.5945 -1.90612,12.5825 -2.66514,17.7512 l -1.38003,9.3977 2.84041,4.1284 c 1.56222,2.2706 4.64826,6.4154 6.85785,9.2108 l 4.01745,5.0824 12.83859,1.6681 c 7.06123,0.9174 17.9139,2.0616 24.11707,2.5427 6.20316,0.481 11.94066,1.4242 12.75,2.0959 2.28481,1.8962 1.8395,6.6924 -0.77848,8.3845 -1.8723,1.2101 -4.24562,1.2924 -14.13802,0.4902 -6.5384,-0.5302 -14.5259,-1.3248 -17.75,-1.7657 -3.22409,-0.4409 -5.85458,-0.5386 -5.84553,-0.2172 0.009,0.3215 2.59654,3.4404 5.75,6.931 l 5.73355,6.3464 17.46598,0.8387 c 14.3115,0.6872 17.68066,1.1323 18.6546,2.4642 0.65374,0.8941 1.48425,4.8608 1.84558,8.8149 1.42028,15.5427 2.78406,24.2856 4.11566,26.3847 0.76597,1.2074 4.88706,4.8554 9.15799,8.1066 l 7.76532,5.9112 10.49746,-1.3376 c 5.7736,-0.7356 16.4923,-2.4911 23.8193,-3.9011 7.3271,-1.41 14.1885,-2.2886 15.2477,-1.9524 2.1967,0.6972 3.4201,4.3599 2.4632,7.3746 -0.8085,2.5474 -3.8191,3.428 -23.3087,6.8178 l -15.2759,2.6569 7.7259,4.9287 7.7259,4.9287 5.55,-1.1868 c 3.0525,-0.6528 10.407,-2.3231 16.3432,-3.712 5.9363,-1.3888 11.8348,-2.2637 13.1078,-1.9442 1.6317,0.4095 2.8364,1.9874 4.0833,5.3476 0.9727,2.6216 3.9914,10.0017 6.7081,16.4001 l 4.9395,11.6335 9.1841,3.6248 c 5.0512,1.9936 9.9316,3.6211 10.8454,3.6165 2.4601,-0.012 16.231,-6.0933 31.4864,-13.9039 14.1761,-7.2581 16.6586,-7.7207 18.5974,-3.4656 2.125,4.6638 -0.028,6.5488 -17.0884,14.9607 -8.8128,4.3453 -16.0533,8.1342 -16.09,8.4199 -0.037,0.2856 3.7428,1.5704 8.399,2.8552 l 8.4657,2.3359 6.7843,-3.7426 c 3.7313,-2.0584 10.4982,-5.9618 15.0375,-8.6743 4.8441,-2.8946 9.1593,-4.8 10.4466,-4.6127 1.2212,0.1777 4.1443,2.7567 6.5955,5.8191 2.4212,3.025 7.7459,9.1938 11.8325,13.7085 l 7.4303,8.2084 7.7209,0.3403 c 4.2465,0.1872 8.944,0.4309 10.439,0.5416 2.0642,0.1528 4.4896,-1.3439 10.0827,-6.2218 z m -24.6768,16.3577 c -8.1951,-0.7262 -9.1427,-1.0415 -12.3539,-4.1106 -2.62,-2.5041 -17.5897,-19.6839 -18.8406,-21.6222 -0.1058,-0.164 -6.3672,3.1735 -13.9141,7.4167 -7.5956,4.2704 -14.9035,7.7095 -16.3686,7.7031 -4.3256,-0.019 -29.4174,-7.9807 -46.1013,-14.628 l -15.5455,-6.1937 -3.2184,-6.5 c -1.7702,-3.575 -4.6516,-10.1 -6.4032,-14.5 -1.7516,-4.4 -3.4533,-8.2963 -3.7816,-8.6585 -0.3282,-0.3621 -6.4468,0.6422 -13.5968,2.2319 -19.1017,4.247 -17.8958,4.4766 -34.4153,-6.5516 -14.71058,-9.8206 -32.96737,-23.5579 -36.76548,-27.6641 -1.69841,-1.8362 -2.52789,-4.8537 -3.75,-13.6421 -0.86307,-6.2064 -1.56921,-12.855 -1.56921,-14.7747 0,-4.5915 -1.29912,-5.0164 -17.5,-5.7236 -7.15,-0.3121 -13.78364,-0.8728 -14.74143,-1.2461 -3.87364,-1.5094 -38.74134,-43.9497 -42.020289,-51.1462 -0.99694,-2.1881 0.005,-12.465 2.871969,-29.4552 l 0.61255,-3.6302 -11.361399,-3.7745 c -20.45897,-6.7969 -18.97809,-5.6814 -25.43949,-19.1627 -11.51815,-24.0318 -19.88598,-46.232 -19.03321,-50.4959 0.32051,-1.6025 3.37924,-8.7837 6.79719,-15.9583 5.52476,-11.5969 6.02782,-13.1491 4.53276,-13.9858 -2.67942,-1.4994 -21.49214,-15.6359 -23.55963,-17.7034 -3.20429,-3.2042 -7.15659,-34.9483 -7.15818,-57.493 l -8.4e-4,-11.83403 11.51049,-11.75843 11.51049,-11.75842 -3.39653,-4.44831 c -8.4836,-11.11064 -14.93725,-22.16629 -14.81637,-25.38172 0.26069,-6.93443 7.08021,-35.86881 12.27906,-52.09856 2.09276,-6.53316 3.73756,-9.89005 5.54099,-11.30863 1.41062,-1.10959 8.03386,-4.79137 14.71832,-8.18173 6.68445,-3.39036 12.24385,-6.23176 12.35422,-6.31422 0.11037,-0.0825 -1.5986,-5.75963 -3.79772,-12.61592 -6.25316,-19.49583 -6.38294,-18.05143 3.14175,-34.966 12.80682,-22.74316 24.529469,-39.92814 28.292019,-41.47506 1.7398,-0.7153 8.56328,-2.29977 15.16328,-3.52104 6.6,-1.22127 12.62992,-2.4085 13.39983,-2.6383 1.14593,-0.34204 1.29479,-2.77972 0.82068,-13.43985 -0.31853,-7.16212 -0.32936,-14.56127 -0.0241,-16.44256 0.44193,-2.72326 3.23037,-6.10682 13.67932,-16.59877 7.21833,-7.24804 18.07424,-17.44446 24.12424,-22.6587 l 11,-9.48045 12.5,0.63398 c 6.875,0.34868 14.15569,0.90971 16.17931,1.24673 3.65781,0.60918 3.68561,0.58721 4.75931,-3.75661 4.602,-18.619671 7.2466,-26.486501 9.537,-28.370431 4.0343,-3.31828 31.1938,-18.087824 44.3945,-24.142014 l 12.37,-5.67326 7.13,2.27531 c 3.9214,1.25141 10.9286,3.7971 15.5715,5.65708 6.4095,2.56767 8.63,3.08112 9.2241,2.13286 0.4303,-0.68691 3.061,-5.07392 5.846,-9.74892 2.7851,-4.675 6.5594,-10.54553 8.3874,-13.04562 l 3.3237,-4.54562 13.8886,-3.201 c 15.6919,-3.61661 26.4586,-5.52203 40.6581,-7.1954 11.4952,-1.35466 10.8253,-1.63497 27.1241,11.34976 6.7628,5.38774 10.3317,7.63354 11.1682,7.02792 0.6762,-0.48952 6.3389,-5.04457 12.5838,-10.12233 11.0526,-8.98692 11.4926,-9.23276 16.5532,-9.25 11.0706,-0.0377 55.305,7.30841 60.3882,10.02885 2.3139,1.23838 7.8933,8.77139 14.4082,19.45344 2.6836,4.4 4.9738,8.14136 5.0895,8.31414 0.1156,0.17277 6.5297,-2.18973 14.2534,-5.25 7.7238,-3.06028 15.0289,-5.56414 16.2337,-5.56414 4.1793,0 32.923,13.59846 51.9888,24.595584 l 7.893,4.55269 2.8913,9.17587 c 1.5901,5.04672 3.7034,12.254051 4.6961,16.016281 1.7256,6.54022 1.9207,6.81725 4.4448,6.31243 1.452,-0.2904 8.3676,-1.04576 15.3681,-1.67858 11.6249,-1.05086 12.9629,-0.99841 15.4371,0.60508 5.7245,3.70997 21.2738,17.42362 34.4627,30.39444 l 13.7537,13.52621 0,16.13871 0,16.13871 3.75,0.64807 c 24.0454,4.15555 26.717,4.86289 29.461,7.80042 4.0133,4.29619 18.531,26.4382 26.7341,40.77409 8.3035,14.51134 8.2041,13.15779 2.4073,32.77907 -1.9952,6.75349 -3.4532,12.43198 -3.24,12.61887 0.2132,0.18689 6.7746,3.5671 14.581,7.51157 l 14.1933,7.17178 2.1494,5.70936 c 3.4037,9.04139 10.5501,34.65933 13.0975,46.9514 l 2.3298,11.24206 -1.9817,3.71569 c -1.0899,2.04363 -5.1564,8.53387 -9.0365,14.42275 l -7.0548,10.70706 11.9631,12.07616 11.9632,12.07616 -0.6798,19.25904 c -0.7042,19.9528 -1.4095,27.6059 -4.2629,46.259 -1.9636,12.8366 -1.8458,12.6838 -19.0538,24.7202 l -10.1809,7.1212 2.4692,4.8727 c 6.9144,13.6449 10.5731,23.3412 10.1071,26.7859 -1.2346,9.1281 -22.5487,56.3689 -26.7648,59.3219 -1.2914,0.9046 -8.598,3.7276 -16.2368,6.2734 -12.7635,4.2538 -13.8427,4.802 -13.3211,6.7668 0.3121,1.1758 1.3438,8.2761 2.2927,15.7784 l 1.7252,13.6405 -2.7061,4.0891 c -6.7938,10.2661 -36.5942,45.3694 -40.2548,47.4179 -0.8149,0.456 -8.3078,1.2612 -16.651,1.7892 -8.3432,0.528 -15.2736,1.0642 -15.4009,1.1915 -0.1273,0.1273 -0.9601,5.8564 -1.8508,12.7314 -2.4625,19.0093 -2.1694,18.4089 -13.1278,26.8872 -10.3716,8.0243 -35.6818,25.1856 -41.5903,28.1999 -4.161,2.1228 -7.2586,1.7935 -25.0103,-2.6589 -11.121,-2.7895 -10.8182,-2.7497 -10.8182,-1.4219 0,1.8893 -10.9187,26.2463 -12.597,28.1008 -2.7037,2.9876 -29.5822,12.8801 -51.605,18.9929 l -10.702,2.9705 -8.0515,-4.0482 c -4.4283,-2.2265 -10.9828,-5.8424 -14.5656,-8.0353 -3.5828,-2.1929 -6.8437,-3.969 -7.2465,-3.947 -0.4028,0.022 -2.4232,2.1596 -4.4898,4.75 -2.0665,2.5905 -6.8378,8.073 -10.6028,12.1834 l -6.8455,7.4736 -8.3971,0.6969 c -10.9373,0.9078 -38.9836,0.791 -50.2732,-0.2093 z"
       inkscape:connector-curvature="0" />
    <path
       id="path6085"
       style="display:inline;fill:#000000;fill-opacity:1;stroke:#000000;stroke-width:1;stroke-miterlimit:4;stroke-dasharray:none;stroke-opacity:1"
       d="m 519.57739,139.47298 c -0.6465,-0.41121 -3.2239,-5.24182 -5.7275,-10.73469 -2.944,-6.45897 -5.0765,-9.9402 -6.0366,-9.85446 -0.8165,0.0729 -5.3487,2.70366 -10.0715,5.84611 -9.3424,6.21621 -12.5478,6.68088 -14.6258,2.12023 -1.6482,-3.61757 0.1815,-5.87983 9.9729,-12.33032 13.3363,-8.78585 17.8175,-10.96868 19.9111,-9.69877 2.0231,1.22715 8.8749,13.85362 12.8275,23.6386 2.5834,6.39513 2.6321,6.82713 1.0446,9.25 -1.6403,2.50346 -4.8943,3.29003 -7.2947,1.7633 z m -210.0819,8.67233 c -3.654,-1.35173 -3.5891,-4.70453 0.308,-15.90685 5.4875,-15.77366 7.4462,-19.42897 10.6072,-19.79472 2.7941,-0.3233 15.2368,5.45105 24.5027,11.3711 5.54,3.53952 7.0749,6.19378 5.396,9.33092 -2.0654,3.85927 -4.5754,3.47243 -15.5038,-2.38953 l -10.4777,-5.62017 -1.3779,3.3076 c -0.7579,1.81918 -2.1857,5.7826 -3.173,8.8076 -3.46,10.60139 -5.43,12.68874 -10.2815,10.89405 z m 289.9225,34.27101 c -1.3422,-1.34218 -2.1767,-4.7185 -3.1075,-12.57264 -0.7382,-6.22872 -1.7672,-10.92749 -2.4504,-11.18967 -0.6478,-0.24859 -5.8698,0.89836 -11.6045,2.54877 -9.5097,2.73688 -10.6278,2.86892 -12.7146,1.50157 -2.5808,-1.691 -3.1371,-6.50355 -0.9606,-8.30988 1.5165,-1.25865 10.3624,-4.05839 22.5254,-7.12936 7.558,-1.90828 8.5728,-1.96493 10.6631,-0.5953 2.5517,1.6719 2.8336,2.63801 4.9836,17.08145 2.0921,14.05377 1.9778,17.05224 -0.7221,18.9433 -2.8926,2.02604 -4.3703,1.96386 -6.6124,-0.27824 z m -369.2675,13.73251 c -1.7782,-1.77813 -2.0151,-2.89642 -1.5361,-7.25 0.3115,-2.83116 0.8642,-9.57573 1.2282,-14.98793 0.5423,-8.06419 1.0543,-10.29674 2.8365,-12.36877 l 2.1749,-2.52839 15.4349,3.05042 c 12.498,2.46999 15.7751,3.47051 17.2226,5.25814 3.3446,4.13034 -0.3396,9.52768 -5.7586,8.43641 -1.65,-0.33227 -6.825,-1.41681 -11.5,-2.41008 l -8.5,-1.80595 -0.6317,2.60429 c -0.3474,1.43236 -0.6956,5.30429 -0.7738,8.60429 -0.1767,7.45757 -1.5347,13.52933 -3.2722,14.63098 -2.2293,1.41345 -4.7218,0.96949 -6.9247,-1.23341 z m 482.3024,129.90243 c -2.0106,-2.01057 -1.3818,-5.23227 2.9706,-15.22081 2.2938,-5.26423 3.8832,-9.85878 3.5318,-10.21011 -0.3513,-0.35133 -5.2133,-1.923 -10.8045,-3.4926 -11.3169,-3.177 -12.8979,-4.08746 -12.8979,-7.4275 0,-3.84945 2.7735,-5.75347 7.4324,-5.1023 6.7337,0.94117 25.9432,6.74992 27.8176,8.41176 2.6632,2.36119 2.157,5.51297 -2.7478,17.10838 -6.2155,14.6942 -7.8223,17.13318 -11.2875,17.13318 -1.5481,0 -3.3547,-0.54 -4.0147,-1.2 z m -584.38864,21.26625 c -3.10301,-2.44083 -14.81135,-24.94186 -14.81135,-28.46437 0,-3.44565 2.66787,-5.01306 17.93526,-10.53719 9.87698,-3.57374 12.69395,-4.22949 14.87462,-3.46259 2.3078,0.81161 2.69012,1.50866 2.69012,4.90474 l 0,3.95868 -11,3.93878 c -6.05,2.16633 -11.16105,4.06014 -11.35789,4.20847 -0.19685,0.14832 1.94065,4.63583 4.75,9.97224 5.6582,10.74787 6.1695,13.558 2.88538,15.85829 -2.8102,1.96834 -2.99968,1.95637 -5.96614,-0.37705 z m 604.84364,66.10501 c -2.896,-3.20008 -1.8718,-5.6606 5.845,-14.04089 4.125,-4.47968 7.5,-8.48911 7.5,-8.90982 0,-0.42072 -4.2638,-3.40281 -9.4752,-6.62687 -5.2113,-3.22406 -9.7486,-6.72361 -10.0829,-7.77677 -0.8824,-2.78022 2.116,-6.81691 5.0636,-6.81691 2.5833,0 11.7184,5.20236 22.2445,12.66816 9.335,6.62099 8.8575,8.15308 -8.1271,26.07514 -7.2578,7.65839 -9.9352,8.77906 -12.9679,5.42796 z M 103.6912,426.00126 c -6.294219,-6.1875 -11.442749,-11.77797 -11.441169,-12.42327 0.005,-2.24449 5.24987,-7.38249 15.138749,-14.83168 10.42824,-7.85549 13.33588,-8.84122 16.32765,-5.53534 3.04241,3.36181 1.27184,6.16117 -8.52323,13.4757 l -9.11474,6.80648 8.58722,7.96064 c 6.72475,6.23407 8.58722,8.55024 8.58722,10.67904 0,3.491 -1.67203,5.1184 -5.25882,5.1184 -2.29752,0 -5.10576,-2.2088 -14.30288,-11.24997 z m 578.81169,167.14407 c -2.0678,-2.1407 -1.5154,-6.6853 1,-8.2268 1.2375,-0.7583 6.8625,-2.194 12.5,-3.1904 5.6375,-0.9964 10.25,-2.073 10.25,-2.3924 0,-0.3194 -1.6171,-5.4338 -3.5936,-11.3653 -3.4042,-10.2165 -3.5084,-10.9146 -1.9769,-13.2519 1.6117,-2.4598 4.8789,-3.1933 7.3198,-1.6434 1.5213,0.966 4.9379,9.5408 8.7186,21.8818 3.85,12.5673 3.4742,13.1193 -11.0406,16.2165 -14.1442,3.0181 -21.5574,3.6488 -23.1773,1.9719 z m -523.24999,11.1144 c -12.78437,-2.1974 -13.86134,-2.6078 -14.60343,-5.5646 -0.67145,-2.6752 5.86999,-27.6756 8.1532,-31.1602 1.6479,-2.515 6.21854,-3.1154 8.25023,-1.0837 1.78056,1.7806 1.48853,4.7924 -1.48558,15.3214 -1.66603,5.8981 -2.3304,9.8613 -1.75,10.4395 0.51457,0.5125 5.21058,1.458 10.43558,2.101 5.225,0.643 10.5125,1.8025 11.75,2.5767 2.48593,1.5551 3.07529,6.1361 1.05,8.1614 -1.63903,1.6391 -9.27131,1.3619 -21.8,-0.7915 z m 472.49999,60.8078 c -9.7382,-0.9893 -11.75,-2.0849 -11.75,-6.399 0,-5.5463 3.1746,-6.0752 22.6352,-3.7709 l 4.8852,0.5785 -0.718,-12.0296 c -0.6783,-11.3646 -0.6028,-12.1448 1.3648,-14.1125 2.433,-2.433 3.9908,-2.6018 6.5747,-0.7123 2.2856,1.6712 3.3048,8.759 3.4237,23.8081 0.106,13.4117 -0.24,13.8743 -10.237,13.6867 -3.9482,-0.074 -11.2286,-0.5461 -16.1786,-1.049 z m -421.27748,10.627 c -2.142,-1.5003 -2.22251,-2.1467 -2.22251,-17.845 0,-14.5098 0.19967,-16.469 1.82874,-17.9433 2.39914,-2.1712 5.45815,-2.1005 7.51625,0.1738 1.3434,1.4843 1.655,4.0527 1.655,13.6393 l 0,11.8105 5.25,-0.6703 c 19.1857,-2.4494 21.75,-2.0378 21.75,3.4911 0,4.3725 -3.012,5.5569 -18.5968,7.3126 -7.7532,0.8734 -14.29058,1.588 -14.52747,1.588 -0.23689,0 -1.43084,-0.7005 -2.65321,-1.5567 z m 264.77748,77.4175 c -7.4428,-5.5898 -16.224,-12.8751 -17.75,-14.7265 -0.6875,-0.8341 -1.25,-2.3305 -1.25,-3.3254 0,-2.1303 3.4041,-5.8089 5.3755,-5.8089 0.7565,0 5.3067,3.1708 10.1117,7.0461 4.8049,3.8754 9.2052,6.8898 9.7783,6.6988 0.5731,-0.1911 3.1813,-4.1493 5.7961,-8.7961 2.6147,-4.6468 5.2633,-9.0113 5.8857,-9.6988 2.7266,-3.0119 9.0527,-0.3294 9.0527,3.8388 0,2.0021 -8.0979,17.1145 -13.2146,24.6612 -3.7739,5.5663 -6.4922,5.5881 -13.7854,0.1108 z m -92.8064,4.1895 c -1.4815,-1.6223 -5.5326,-7.4987 -9.0026,-13.0587 -7.1671,-11.4842 -7.9058,-15.6816 -3.058,-17.3754 1.4481,-0.506 3.3002,-0.6639 4.1157,-0.351 0.8155,0.3129 4.1142,4.8813 7.3306,10.1519 3.2163,5.2706 6.0945,9.5829 6.3959,9.5829 0.3014,0 4.2159,-3.375 8.6988,-7.5 8.6948,-8.0006 11.5836,-9.0828 14.7895,-5.5403 1.1634,1.2855 1.5659,2.7869 1.1701,4.3639 -0.9429,3.7572 -22.5625,22.6486 -25.94,22.6667 -0.9935,0.01 -3.0185,-1.3176 -4.5,-2.94 z"
       inkscape:connector-curvature="0" />
    <path
       style="display:inline;fill:none;fill-opacity:1;stroke:#000000;stroke-width:1.01933408;stroke-miterlimit:4;stroke-dasharray:none;stroke-opacity:1"
       d="m 389.27989,837.66993 c -137.6326,-14.9933 -266.67773,-107.7568 -332.028419,-238.6771 -21.85762,-43.7885 -34.64362,-87.0376 -40.13015,-135.7416 -1.64332,-14.5878 -1.65943,-57.05507 -0.0271,-71.49997 C 27.773711,297.24479 70.032451,211.46574 140.74992,140.74827 211.46739,70.030795 297.2464,27.772055 391.7529,17.092565 c 14.4449,-1.63232 56.9122,-1.61621 71.5,0.0271 48.704,5.48652 91.9531,18.27253 135.7415,40.13014 43.0688,21.498364 80.5214,48.482185 114.8913,82.776695 71.8946,71.73684 115.9682,162.52951 124.4587,256.38743 1.539,17.01312 0.6637,61.58399 -1.5188,77.33729 -9.547,68.9084 -36.9682,134.789 -79.9155,192 -24.434,32.549 -58.5877,66.7033 -91.1572,91.1587 -59.8458,44.9362 -130.7056,73.4426 -200.8782,80.8118 -17.9936,1.8896 -58.0254,1.8622 -75.5948,-0.052 z"
       id="path6276"
       inkscape:connector-curvature="0" />
    <path
       style="display:inline;fill:none;fill-opacity:1;stroke:#000000;stroke-width:1.04889512;stroke-miterlimit:4;stroke-dasharray:none;stroke-opacity:1"
       d="m 429.07422,-172.29297 c -3.84867,-0.001 -7.69136,0.10764 -9.64258,0.32813 -25.53182,2.88517 -48.7075,14.3032 -67.8125,33.4082 -19.10499,19.105 -30.52107,42.278722 -33.40625,67.810546 -0.44131,3.902433 -0.43614,15.375377 0.008,19.316406 1.48224,13.157849 4.93676,24.841994 10.8418,36.671876 5.28326,10.5842125 12.11585,20.2362964 20.08203,28.6875 C 268.91153,31.499107 195.86837,72.178507 134.02344,134.02344 61.255141,206.79174 17.770449,295.0575 6.78125,392.30469 5.1015819,407.1685 5.1176169,450.86805 6.8085938,465.87891 12.454235,515.99534 25.612017,560.49826 48.103516,605.55664 115.3494,740.27368 248.13578,835.72619 389.75977,851.1543 c 18.07892,1.9697 59.27168,1.99907 77.78711,0.0547 72.20762,-7.58291 145.12177,-36.91688 206.70312,-83.15625 33.51403,-25.16461 68.65819,-60.3098 93.80078,-93.80273 44.19279,-58.87014 72.41052,-126.65964 82.23438,-197.56641 2.24579,-16.21015 3.14613,-62.07356 1.5625,-79.58007 C 843.11093,300.52369 797.75887,207.09654 723.7793,133.2793 688.41266,97.990235 649.87445,70.22534 605.55664,48.103516 573.83792,32.270659 542.39068,21.069037 509.07031,13.851562 c 3.2911,-3.465705 6.36717,-7.0513594 9.01172,-10.5742182 11.60263,-15.4560938 19.01064,-33.2548278 21.58985,-51.8710938 0.58963,-4.2559 0.82591,-16.296323 0.41015,-20.892578 -2.2938,-25.356612 -14.20003,-49.885222 -33.62305,-69.265622 -9.28535,-9.26498 -19.40362,-16.5553 -31.03906,-22.36328 -11.82986,-5.90504 -23.51402,-9.35956 -36.67187,-10.8418 -1.97052,-0.22182 -5.82516,-0.33452 -9.67383,-0.33594 z"
       transform="translate(-1.5885013,-1.5901814)"
       id="path6372"
       inkscape:connector-curvature="0" />
    <path
       id="path6414"
       d="m 422.7159,-11.342971 c -17.22581,-1.876529 -33.37683,-13.48662 -41.55599,-29.872332 -2.73565,-5.480478 -4.33592,-10.893448 -5.0226,-16.98914 -0.20567,-1.825778 -0.2077,-7.140893 -0.004,-8.948789 1.33664,-11.828235 6.62565,-22.564163 15.4765,-31.415014 8.85085,-8.850854 19.58678,-14.139864 31.41502,-15.476504 1.80789,-0.20429 7.12302,-0.20227 8.94879,0.004 6.09569,0.68667 11.50866,2.28694 16.98912,5.0226 5.39041,2.69068 10.07789,6.06792 14.37956,10.360149 8.99818,8.978443 14.51434,20.341863 15.577,32.088926 0.19261,2.129327 0.0831,7.707728 -0.1901,9.679376 -1.19487,8.624435 -4.62686,16.869915 -10.00206,24.030324 -3.05811,4.073764 -7.33271,8.348448 -11.40904,11.409234 -7.49017,5.624124 -16.35885,9.191926 -25.1415,10.11424 -2.25204,0.236498 -7.26234,0.233067 -9.46129,-0.0065 z"
       style="display:inline;fill:none;fill-opacity:1;stroke:#000000;stroke-width:0.12757777;stroke-miterlimit:4;stroke-dasharray:none;stroke-opacity:1"
       inkscape:connector-curvature="0" />
  </g>
</svg>
