<?xml version="1.0" encoding="UTF-8"?>
<!DOCTYPE svg PUBLIC "-//W3C//DTD SVG 1.1//EN" "http://www.w3.org/Graphics/SVG/1.1/DTD/svg11.dtd">
<!-- Creator: CorelDRAW -->
<svg xmlns="http://www.w3.org/2000/svg" xml:space="preserve" width="7.11111in" height="7.11111in" version="1.1" style="shape-rendering:geometricPrecision; text-rendering:geometricPrecision; image-rendering:optimizeQuality; fill-rule:evenodd; clip-rule:evenodd"
viewBox="0 0 7111 7111"
 xmlns:xlink="http://www.w3.org/1999/xlink">
 <defs>
  <style type="text/css">
   <![CDATA[
    .fil0 {fill:black}
   ]]>
  </style>
 </defs>
 <g id="Layer_x0020_1">
  <metadata id="CorelCorpID_0Corel-Layer"/>
  <path class="fil0" d="M5213 2254l302 -344c44,-50 120,-55 171,-11 50,44 55,120 11,170l-484 551 0 190c0,67 -54,121 -120,121 -67,0 -121,-54 -121,-121l0 -1761c0,-66 54,-120 121,-120 66,0 120,54 120,120l0 501 302 -344c44,-50 120,-55 171,-11 50,44 55,120 11,170l-484 551 0 338zm150 4855l-3615 0c-67,0 -121,-54 -121,-120l0 -2709c0,-67 54,-121 121,-121l3615 0c67,0 121,54 121,121l0 2709c0,66 -54,120 -121,120zm-3494 -241l3373 0 0 -2467 -3373 0 0 2467zm3089 -164l-2804 0c-67,0 -121,-54 -121,-121l0 -1897c0,-67 54,-121 121,-121l2804 0c66,0 120,54 120,121l0 1897c0,67 -54,121 -120,121zm-2684 -242l2563 0 0 -1656 -2563 0 0 1656zm2044 -267c-21,0 -41,-5 -60,-16l-702 -405 -703 405c-80,47 -181,-12 -181,-104l0 -881c0,-93 101,-151 181,-104l703 405 702 -405c58,-34 131,-14 165,44 33,57 13,131 -45,165l-581 335 581 336c107,62 63,225 -60,225zm-1404 -792l0 462 400 -231 -400 -231zm3790 -1545l-2709 0c-67,0 -121,-54 -121,-121l0 -3615c0,-66 54,-120 121,-120l2709 0c66,0 120,54 120,120l0 3615c0,67 -54,121 -120,121zm-2588 -241l2467 0 0 -3374 -2467 0 0 3374zm2182 -164l-1898 0c-66,0 -120,-54 -120,-121l0 -2804c0,-67 54,-121 120,-121l1898 0c67,0 121,54 121,121l0 2804c0,67 -54,121 -121,121zm-1777 -242l1656 0 0 -2562 -1656 0 0 2562zm-1405 647l-2708 0c-67,0 -121,-54 -121,-121l0 -3615c0,-66 54,-120 121,-120l2708 0c67,0 121,54 121,120l0 3615c0,67 -54,121 -121,121zm-2588 -241l2467 0 0 -3374 -2467 0 0 3374zm2183 -164l-1898 0c-67,0 -121,-54 -121,-121l0 -2804c0,-67 54,-121 121,-121l1898 0c66,0 120,54 120,121l0 2804c0,67 -54,121 -120,121zm-1777 -242l1656 0 0 -2562 -1656 0 0 2562zm828 -484c-67,0 -121,-54 -121,-121l0 -494 -483 -551c-44,-50 -39,-126 11,-170 50,-44 126,-39 170,11l302 344 0 -492c0,-67 54,-121 121,-121 67,0 121,54 121,121l0 492 302 -344c44,-50 120,-55 170,-11 50,44 55,120 11,170l-483 551 0 494c0,67 -54,121 -121,121z"/>
 </g>
</svg>
