<?xml version="1.0" encoding="UTF-8"?>
<!DOCTYPE svg PUBLIC "-//W3C//DTD SVG 1.1//EN" "http://www.w3.org/Graphics/SVG/1.1/DTD/svg11.dtd">
<!-- Creator: CorelDRAW -->
<svg xmlns="http://www.w3.org/2000/svg" xml:space="preserve" width="1.70666in" height="1.70666in" version="1.1" style="shape-rendering:geometricPrecision; text-rendering:geometricPrecision; image-rendering:optimizeQuality; fill-rule:evenodd; clip-rule:evenodd"
viewBox="0 0 1706.66 1706.66"
 xmlns:xlink="http://www.w3.org/1999/xlink"
 xmlns:xodm="http://www.corel.com/coreldraw/odm/2003">
 <defs>
  <style type="text/css">
   <![CDATA[
    .fil0 {fill:black}
   ]]>
  </style>
 </defs>
 <g id="Layer_x0020_1">
  <metadata id="CorelCorpID_0Corel-Layer"/>
  <path class="fil0" d="M833.34 1706.66c-140.74,-3.25 -273.15,-40.76 -389.24,-104.47l57.77 -99.37c98.96,53.77 211.52,85.56 331.07,88.82l0.39 115.02zm-366.71 -224.31l-57.2 99.73c-116.24,-71.09 -214.26,-169.2 -285.23,-285.53 20.96,-8.48 79.11,-43.98 100.14,-56.49 60.73,98.4 143.88,181.57 242.29,242.29zm-262.8 -277.58l-99.35 57.72c-63.66,-116.07 -101.18,-248.41 -104.44,-389.1l115 0.32c3.26,119.55 35.03,232.1 88.8,331.06zm-88.8 -371.82l-115.02 0.32c3.26,-140.69 40.75,-273.05 104.42,-389.11l99.49 57.57c-53.81,99 -85.63,211.61 -88.89,331.22zm109.28 -366.31l-99.72 -57.25c70.94,-116.01 168.77,-213.87 284.79,-284.81l57.25 99.74c-98.42,60.74 -181.58,143.89 -242.31,242.32zm277.56 -262.8l-57.73 -99.4c116.06,-63.67 248.44,-101.17 389.13,-104.43l-0.33 115.02c-119.56,3.26 -232.12,35.04 -331.07,88.82zm371.84 -88.82l-0.33 -115.02c140.7,3.26 273.07,40.76 389.12,104.44l-57.72 99.39c-98.96,-53.76 -211.52,-85.56 -331.07,-88.81zm366.32 109.3l57.24 -99.71c116,70.94 213.83,168.79 284.77,284.8l-99.69 57.24c-60.74,-98.42 -143.89,-181.59 -242.32,-242.32zm262.71 277.41l99.45 -57.54c63.67,116.06 101.18,248.41 104.44,389.09l-115 -0.32c-3.26,-119.61 -35.07,-232.24 -88.9,-331.23zm88.9 371.99l115.02 -0.33c-3.26,140.7 -40.76,273.08 -104.45,389.15l-99.38 -57.76c53.76,-98.96 85.55,-211.51 88.81,-331.06zm-109.31 366.35c21.06,12.54 79.19,48.04 100.16,56.5 -70.99,116.32 -169,214.43 -285.27,285.5l-57.19 -99.72c98.4,-60.73 181.57,-143.87 242.29,-242.28zm-277.54 262.76l57.76 99.34c-116.09,63.7 -248.49,101.23 -389.22,104.48l0.39 -115c119.56,-3.26 232.12,-35.04 331.08,-88.82zm-351.46 -1348.09c-385.2,0 -698.58,313.39 -698.58,698.6 0,385.2 313.39,698.58 698.58,698.58 385.19,0 698.58,-313.38 698.58,-698.58 0,-385.2 -313.38,-698.6 -698.58,-698.6zm351.84 1228.46c-14.49,0 -42.9,-34.6 -60.31,-52.01 -26.46,-26.48 -26.46,-69.57 0,-96.07l29.19 -29.19 -78.74 -78.74c-13.76,13.76 -28.39,33.14 -41.42,33.14 -17.64,0 -26.82,-21.51 -14.16,-34.17l27.27 -27.27 -12.47 -12.46c-13.76,13.76 -28.37,33.12 -41.41,33.12 -17.64,0 -26.82,-21.51 -14.15,-34.17l27.26 -27.26 -107.48 -107.48c-14.56,10.82 -31.67,18.37 -50.26,21.56l0 152.39 35.88 0c26.33,0 26.34,40.01 0,40.01l-35.88 0 0 17.64 35.88 0c26.33,0 26.34,40.01 0,40.01l-35.88 0 0 42.18 75.77 0c43.97,0 79.76,35.77 79.76,79.74l0 108.3c-0,26.34 -40.02,26.33 -40.02,0l0 -108.3c0,-21.91 -17.83,-39.72 -39.73,-39.72l-75.78 0 0 53.44c66.65,0.04 72.19,7.94 72.13,94.58 -0.01,11.05 -8.97,20.01 -20.02,20.01 -38.88,0 -6.77,-74.2 -26.38,-74.2l-25.73 -0 0 55.44c0,26.35 -40.01,26.33 -40.01,0l0 -55.45 -13.42 0c-19.61,0 12.5,74.2 -26.38,74.2 -26.89,0 -20,-36.59 -20,-67.82 0,-25.59 20.8,-46.41 46.38,-46.41 4.65,0 9.11,-0.02 13.42,-0.05l0 -53.76 -63.48 0c-21.92,0 -39.75,17.81 -39.75,39.72l0 108.3c0,26.34 -40.01,26.33 -40.01,0l0 -108.3c0,-43.97 35.77,-79.74 79.76,-79.74l63.48 0 0 -42.18 -35.87 0c-26.33,0 -26.33,-40.01 0,-40.01l35.87 0 0 -17.64 -35.87 0c-26.33,0 -26.33,-40.01 0,-40.01l35.87 0 0 -152.39c-18.59,-3.19 -35.71,-10.74 -50.27,-21.56l-107.48 107.49 27.26 27.25c18.89,18.88 -9.94,46.66 -28.29,28.3l-27.26 -27.26 -12.47 12.47 27.26 27.27c18.86,18.87 -9.91,46.66 -28.3,28.3l-27.26 -27.27 -72.59 72.58 35.33 35.32c26.5,26.5 26.5,69.59 0,96.08 -17.41,17.41 -45.81,52.01 -60.29,52.01 -17.64,0 -26.8,-21.53 -14.14,-34.17 64.51,-64.43 76.29,-58.75 11.44,-121.59l-84.59 84.58c-18.32,18.36 -47.18,-9.42 -28.29,-28.3l84.12 -84.12c-7.81,-7.61 -16.29,-15.94 -25.46,-25.11 -41.19,-41.19 -80.35,79.74 -113.94,46.15 -20.09,-20.08 16.69,-45 46.14,-74.45 26.48,-26.48 69.6,-26.47 96.08,0.01l25.3 25.3 72.59 -72.59 -23.46 -23.46c-18.62,-18.64 9.67,-46.93 28.3,-28.3l23.46 23.46 12.47 -12.46 -23.47 -23.46c-18.63,-18.63 9.67,-46.94 28.28,-28.3l23.48 23.48 108.14 -108.14c-9.83,-14.57 -16.5,-31.44 -19,-49.61l-151.8 0c0,26.21 6.08,59.68 -20.01,59.68 -26.09,0 -20,-33.52 -20,-59.68l-17.63 0c0,26.21 6.09,59.68 -20,59.68 -26.09,0 -20.01,-33.52 -20.01,-59.68l-36.16 0 0 70.67c-0,43.97 -35.78,79.76 -79.76,79.76l-108.29 0c-26.33,0 -26.33,-40.01 0,-40.01l108.29 0c21.93,0 39.75,-17.83 39.75,-39.73l0 -70.69 -53.84 0 0 20.63c0,25.58 -20.81,46.39 -46.39,46.39 -31.24,0 -67.82,6.87 -67.82,-20.01 0,-38.88 74.2,-6.77 74.2,-26.38l0 -20.63 -91.8 0c-26.34,0 -26.34,-40.02 0,-40.02l91.8 0 0 -18.52c0,-19.61 -74.2,12.51 -74.2,-26.37 0,-26.89 36.57,-20.01 67.82,-20.01 25.58,0 46.39,20.81 46.39,46.38l0 18.52 53.83 0 0 -68.57c0,-21.93 -17.83,-39.75 -39.75,-39.75l-108.29 0c-26.34,0 -26.34,-40.01 0,-40.01l108.29 0c43.99,0 79.76,35.78 79.76,79.76l0 68.57 36.16 0 0 -32.08c0,-26.34 40.01,-26.34 40.01,0l0 32.08 17.63 0 0 -32.08c0,-26.34 40.01,-26.34 40.01,0l0 32.08 153.1 0c3.7,-17.98 11.5,-34.48 22.38,-48.48l-107.26 -107.26c-14.2,14.2 -29.97,34.9 -43.18,34.9 -17.62,0 -26.81,-21.5 -14.14,-34.15l29.03 -29.03 -12.48 -12.48c-14.24,14.24 -29.96,34.91 -43.18,34.91 -17.62,0 -26.81,-21.5 -14.14,-34.15l29.03 -29.04 -15.7 -15.7 -84.08 84.08c-7.81,7.82 -20.46,7.82 -28.28,0l-144.89 -144.88c-18.64,-18.62 9.67,-46.92 28.29,-28.29l130.74 130.73 69.93 -69.93 -15.82 -15.81c-91.29,58.73 -193.38,-64.7 -115.17,-142.96 77.87,-77.91 201.16,23.13 143.33,114.57l15.93 15.93 69.44 -69.43 -130.73 -130.74c-18.63,-18.62 9.67,-46.91 28.29,-28.28l144.89 144.88c7.82,7.81 7.82,20.48 0,28.28l-83.59 83.59 15.69 15.7 21.72 -21.72c18.62,-18.63 46.92,9.67 28.29,28.28l-21.72 21.72 12.48 12.48 21.72 -21.72c18.63,-18.64 46.92,9.67 28.29,28.28l-21.72 21.72 108.51 108.51c13.04,-8.39 27.84,-14.3 43.7,-17.02l0 -152.39 -35.87 0c-26.34,0 -26.34,-40.01 0,-40.01l35.87 0 0 -17.64 -35.87 0c-26.34,0 -26.34,-40.01 0,-40.01l35.87 0 0 -43.52 -60.96 0c-43.98,0 -79.76,-35.77 -79.76,-79.76l0 -108.29c0,-26.34 40.01,-26.34 40.01,0l0 108.29c0,21.92 17.83,39.75 39.74,39.75l60.96 0 0 -153.05c0,-26.34 40.01,-26.34 40.01,0l0 153.05 78.29 0c21.91,0 39.73,-17.83 39.73,-39.75l0 -108.29c0,-26.33 40.01,-26.33 40.01,0l0 108.29c0.01,43.99 -35.78,79.76 -79.74,79.76l-78.29 0 0 43.52 35.88 0c26.33,0 26.34,40.01 0,40.01l-35.88 0 0 17.64 35.88 0c26.33,0 26.34,40.01 0,40.01l-35.88 0 0 152.39c16.73,2.87 32.27,9.27 45.82,18.41l108.14 -108.14 -23.48 -23.48c-18.64,-18.65 9.7,-46.91 28.3,-28.28l23.47 23.47 12.46 -12.47 -23.48 -23.48c-18.65,-18.62 9.69,-46.92 28.3,-28.28l23.47 23.47 15.69 -15.69 -78.52 -78.52c-7.81,-7.81 -7.81,-20.46 0,-28.28l144.91 -144.89c18.65,-18.65 46.91,9.68 28.3,28.29l-130.76 130.74 64.37 64.37 17.47 -17.47c-48.49,-93.39 72.6,-182.21 146.87,-107.94 58,58 16.57,157.57 -65.28,157.57 -21.91,0 -40.92,-7.15 -55.91,-18.73l-14.86 14.86 74.99 74.99 130.73 -130.73c18.63,-18.64 46.94,9.67 28.3,28.29l-144.89 144.88c-7.82,7.81 -20.48,7.81 -28.3,-0l-89.13 -89.13 -15.7 15.69 27.28 27.28c18.88,18.87 -9.93,46.63 -28.3,28.28l-27.26 -27.26 -12.47 12.47 27.26 27.26c18.88,18.88 -9.93,46.64 -28.3,28.29l-27.26 -27.26 -107.48 107.48c10.08,13.56 17.33,29.35 20.86,46.48l153.09 0 0 -32.08c0,-26.33 40.01,-26.33 40.01,0l0 32.08 17.62 0 0 -32.08c0,-26.33 40.01,-26.33 40.01,0l0 32.08 55.66 0 0 -68.57c0,-43.98 35.79,-79.76 79.76,-79.76l108.29 0c26.34,0 26.33,40.01 0,40.01l-108.29 0c-21.91,0 -39.73,17.82 -39.73,39.75l0 68.57 138.35 0c26.34,0 26.34,40.02 0,40.02l-138.35 0 0 70.67c0,21.91 17.83,39.73 39.73,39.73l108.29 0c26.34,0 26.32,40.03 0,40.03l-108.29 0c-43.97,0 -79.76,-35.79 -79.76,-79.76l0 -70.67 -55.66 0c0,26.19 6.08,59.68 -20.01,59.68 -26.09,0 -20,-33.52 -20,-59.68l-17.62 0c0,26.17 6.09,59.68 -20,59.68 -26.09,0 -20,-33.52 -20,-59.68l-151.8 0c-2.51,18.18 -9.18,35.05 -19,49.61l108.12 108.12 23.46 -23.46c18.65,-18.65 46.93,9.7 28.3,28.3l-23.46 23.46 12.46 12.47 23.46 -23.46c18.65,-18.65 46.93,9.7 28.3,28.3l-23.46 23.46 78.74 78.74 31.44 -31.45c26.48,-26.48 69.6,-26.48 96.08,0 29.4,29.39 66.25,54.39 46.15,74.45 -33.8,33.74 -72.52,-87.62 -113.93,-46.15 -11.67,11.69 -22.22,22.02 -31.69,31.2l71.71 71.71c18.9,18.89 -9.94,46.65 -28.31,28.29l-72.15 -72.16c-57.81,56.52 -44.72,53.06 17.67,115.5 12.65,12.66 3.5,34.17 -14.15,34.17zm-715.8 -865.47l-68.23 -68.22c-18.31,43.4 26.05,87.91 68.23,68.22zm-39.91 -96.46l68.1 68.1c19.2,-42.06 -25.69,-85.21 -68.1,-68.1zm785.09 3.07c-35.85,0 -58.09,33.83 -50.99,64.38l63 -63c-3.89,-0.91 -7.91,-1.38 -12.01,-1.38zm-27.22 97.19c44.19,28.37 101.74,-27.13 72.15,-72.15l-72.15 72.15zm-358.85 256.33c-33.02,0 -41.39,11.59 -56.55,23.04 -26.07,28.21 -27.24,75.93 -3.5,105.88 15.65,14.86 26.85,27.12 60.05,27.12 32.32,0 44.11,-11.73 59.76,-26.78 23.63,-29.44 22.99,-76.34 -1.94,-104.82 -15.19,-12.19 -24.05,-24.44 -57.81,-24.44z"/>
 </g>
</svg>
