<svg width="64" height="64" version="1.1" viewBox="0 0 16.933 16.933" xmlns="http://www.w3.org/2000/svg">
 <g transform="translate(-6.6659 -143.02)">
  <g transform="matrix(.0023826 0 0 .0023826 6.6612 143.02)" style="clip-rule:evenodd;fill-rule:evenodd;image-rendering:optimizeQuality;shape-rendering:geometricPrecision">
   <g>
    <path class="fil0" d="m3116 3858h-2708c-67 0-121-54-121-121v-3615c0-66 54-120 121-120h2708c67 0 121 54 121 120v3615c0 67-54 121-121 121zm-1354-1191c33 0 61-28 61-61v-517l498-567c22-26 19-64-6-86s-63-20-85 5l-407 464v-651c0-34-28-61-61-61-34 0-61 27-61 61v651l-407-464c-22-25-60-27-86-5-25 22-27 60-5 86l498 567v517c0 33 27 61 61 61zm949 726c33 0 60-27 60-61v-2804c0-34-27-61-60-61h-1898c-34 0-61 27-61 61v2804c0 34 27 61 61 61zm-1837-122v-2682h1776v2682z" style="fill:#000000"/>
    <path class="fil0" d="m6704 3858h-2709c-67 0-121-54-121-121v-3615c0-66 54-120 121-120h2709c66 0 120 54 120 120v3615c0 67-54 121-120 121zm-1611-987c33 0 60-27 60-61v-213l499-567c22-26 19-64-6-86s-64-20-86 5l-407 464v-520l499-567c22-26 19-64-6-86s-64-20-86 5l-407 464v-660c0-33-27-60-60-60-34 0-61 27-61 60v1761c0 34 27 61 61 61zm1205 522c34 0 61-27 61-61v-2804c0-34-27-61-61-61h-1898c-33 0-60 27-60 61v2804c0 34 27 61 60 61zm-1837-122v-2682h1776v2682z" style="fill:#000000"/>
    <path class="fil0" d="m5363 7109h-3615c-67 0-121-54-121-120v-2709c0-67 54-121 121-121h3615c67 0 121 54 121 121v2709c0 66-54 120-121 120zm-1045-974c22 0 42-11 53-30 16-29 6-66-23-83l-671-388 671-387c30-17 39-54 23-83-17-29-54-39-83-23l-732 423-733-423c-18-10-42-10-60 0-19 11-31 31-31 53v881c0 21 12 41 31 52 18 11 42 11 60 0l733-422 732 422c9 6 19 8 30 8zm-1464-836 580 335-580 335zm2104 1345c33 0 60-27 60-61v-1897c0-34-27-61-60-61h-2804c-34 0-61 27-61 61v1897c0 34 27 61 61 61zm-2744-122v-1776h2683v1776z" style="fill:#000000"/>
   </g>
  </g>
 </g>
</svg>
