<?xml version="1.0" encoding="utf-8"?><svg viewBox="0 0 502.66 502.66" xmlns="http://www.w3.org/2000/svg" xmlns:xlink="http://www.w3.org/1999/xlink"><style>:root>svg{display:none}:root>svg:target{display:block}</style><svg stroke-width="1.5" viewBox="0 0 24 24" id="cart" xmlns="http://www.w3.org/2000/svg"><path d="M15.75 10.5V6a3.75 3.75 0 10-7.5 0v4.5m11.356-1.993l1.263 12c.07.665-.45 1.243-1.119 1.243H4.25a1.125 1.125 0 01-1.12-1.243l1.264-12A1.125 1.125 0 015.513 7.5h12.974c.576 0 1.059.435 1.119 1.007zM8.625 10.5a.375.375 0 11-.75 0 .375.375 0 01.75 0zm7.5 0a.375.375 0 11-.75 0 .375.375 0 01.75 0z"/></svg><svg class="bmenu-item-has-children__icon" stroke-width="1.5" viewBox="0 0 24 24" id="chevron" xmlns="http://www.w3.org/2000/svg"><path d="M19.5 8.25l-7.5 7.5-7.5-7.5"/></svg><svg viewBox="0 0 502.664 502.664" id="icon" xmlns="http://www.w3.org/2000/svg"><path d="M153.821 358.226L0 274.337v-46.463l153.821-83.414v54.574L46.636 250.523l107.185 53.431v54.272zm26.273 29.358L282.103 115.08h32.227L212.084 387.584h-31.99zm168.749-29.358v-54.272l107.164-52.999-107.164-52.59v-53.927l153.821 83.522v46.183l-153.821 84.083z"/></svg><svg viewBox="0 0 124.354 29.104" id="logo" xmlns="http://www.w3.org/2000/svg"><path d="M58.43 27.371l2.694-1.345.03-.185c.168-1.05.514-4.883.447-4.95-.025-.025-.51.12-1.327.396a185.74 185.74 0 00-4.044 1.43 3.274 3.274 0 00-.421.173c-.037.029-.051.192-.05.56 0 .286-.022 1.57-.05 2.855-.029 1.426-.033 2.35-.01 2.373.023.023 1.1-.492 2.731-1.307zm-3.421 1.281c.024-.045.052-1.214.07-2.915.025-2.384.021-2.846-.026-2.884-.064-.051-3.666-1.253-3.688-1.23-.008.008.005.77.028 1.692.024.923.038 1.683.032 1.69a29.72 29.72 0 01-1.182-.452l-1.17-.463-.027-.513a95.74 95.74 0 01-.057-1.616l-.032-1.104-.105-.04a98.322 98.322 0 00-2.614-.774c-.5-.14-.622-.161-.662-.117-.035.04-.04.19-.015.568.082 1.285.383 4.189.438 4.245.017.017.503.232 1.08.479 1.427.61 2.398 1.043 5.285 2.352a197.29 197.29 0 002.536 1.14c.04.01.086-.013.109-.057zm-3.918-4.508a60.373 60.373 0 01-.048-1.516l-.025-1.135-.562-.177-.865-.272-.304-.096.027.935c.015.514.039 1.177.053 1.473l.026.54.827.315c.455.173.842.315.86.315.019 0 .024-.173.011-.382zm-.966-.713c-.173-.069-.25-.204-.25-.438a.505.505 0 00-.088-.244c-.35-.491.045-.973.558-.681.322.183.445.643.232.87-.06.064-.085.145-.085.275 0 .285-.08.333-.367.218zm10.544-2.745c.134-.05.25-.109.258-.133.008-.024-.32-.128-.768-.242-.43-.11-.782-.207-.782-.216a1.4 1.4 0 01.08-.173l.08-.156.835.219c.46.12.868.22.907.22.124.001.08-.107-.105-.258-.139-.114-.276-.171-.647-.27l-1.089-.288c-3.353-.891-6.27-1.621-7.768-1.944-.133-.029-.274-.08-.314-.116-.07-.062-.557-.84-1.522-2.43a69.532 69.532 0 00-.474-.774c-.035-.04-.473-.055-.473-.017 0 .045.648 1.152 1.595 2.724l.532.885.53.115c.29.064.537.124.547.134.03.03-.133.306-.18.306-.024 0-.324-.062-.666-.137l-.623-.137-.57.174c-1.914.587-4.135 1.288-4.162 1.315-.012.012-.003.036.018.055.05.045.428.146.52.14.039-.003.4-.107.802-.23 3.028-.931 3.359-1.024 3.545-.999.505.07 4.915 1.136 8.17 1.977.747.193 1.385.35 1.42.349a2.03 2.03 0 00.305-.092zm-4.63-1.42c-1.004-.248-2.01-.494-2.236-.545a6.617 6.617 0 01-.428-.107c-.01-.006.017-.086.057-.176.06-.132.092-.16.161-.144 1.229.285 4.47 1.085 4.519 1.116.05.03-.143.348-.2.326-.027-.01-.87-.222-1.873-.47zm5.764.591c.109-.285.39-1.402.534-2.12.212-1.053.26-1.476.242-2.142-.013-.511-.022-.566-.125-.74-.195-.332-.472-.602-.764-.746-.242-.119-.319-.136-.69-.15-.473-.017-.876.065-1.473.299-.678.266-1.837.932-1.837 1.055 0 .098 3.893 4.623 3.991 4.639.057.009.094-.02.122-.094zM53.4 14.82c.332-.418.33-.413.224-.413-.046 0-.094-.016-.106-.036-.012-.02.18-.232.427-.473.247-.24.445-.439.441-.44-.004-.002-.18-.026-.391-.054-.376-.049-.387-.048-.515.045-.137.1-.814.76-.797.777.005.005.174.038.375.074.201.035.374.072.384.082.01.01-.08.141-.2.291-.172.214-.237.268-.302.25a7.055 7.055 0 00-.33-.069 1.114 1.114 0 01-.283-.08c-.02-.018.04-.14.133-.27.142-.201.159-.245.105-.275a.166.166 0 00-.122-.012c-.056.021-.47.621-.47.68 0 .016.258.084.574.152l.574.123zm4.352-.02c.6-.377 1.529-.844 1.974-.993a3.41 3.41 0 01.638-.137l.308-.026-.205-.07c-1.442-.486-7.357-1.508-8.803-1.522-.494-.005-.636.039-1.288.394-.69.375-1.624 1.101-1.557 1.21.016.025.135.058.264.072.506.057 2.158.28 2.723.367l.595.092.413-.417a5.89 5.89 0 01.582-.53l.17-.112.672.086c.37.048.678.091.683.097a3.86 3.86 0 01-.356.31c-.398.328-.839.772-.792.8.017.009.122.03.236.046.153.021 2.376.46 3.167.625.052.01.264-.097.576-.292z"/><path d="M42.258 26.731c.084.034.117.117.201.117.1 0 .168.017.201-.016.05-.017.1-.05.084.016-.017.067-.151.218-.218.218s-.285-.067-.319-.167c-.033-.1-.05-.218.05-.168m.386.537c-.067.016-.134.067-.117.1.017.017.084.034.15.017.068-.034.118-.067.118-.1-.017-.034-.084-.034-.15-.017m-.034-.872c-.05-.084-.118-.134-.151-.118-.017.017 0 .101.05.185.05.084.118.15.134.117.034-.017.017-.1-.033-.184m.134-.453c-.05-.05-.1-.067-.117-.05-.017.033.016.084.067.117.05.05.1.067.117.034.017-.017 0-.067-.067-.101m-1.593-5.264l.017.033s.821-.067.838-.033c0 .05.319 1.442.252 1.458-.05.017-.688.436-.637.52.05.084.117-.017.218-.05.1-.034.586-.034.586.016s.134 1.04.1 1.057c-.05 0-.15.117-.1.218.034.1.202.134.218.234 0 .084-.084.42-.084.503 0 .084.235.57.336.839.084.268.168.654.1.67-.05.017-.301.017-.318.067-.017.05.117.302.184.336a.51.51 0 01.168.368c0 .185.084.906-.034.906-.117 0-.57.017-.586-.034-.034-.05-.118-.234-.151-.234-.034 0 .016.167 0 .2-.017.034-.1.017-.118-.033 0-.033-.217-.503-.318-.57-.1-.084-.151-.084-.118-.017.017.05.37.57.319.637-.05.068-.134.017-.134.017s.017-.117-.05-.2c-.05-.101-.336-.403-.37-.47-.033-.067-.083-.252-.033-.302.05-.05.067-.084.067-.118 0-.05-.218-.284.034-.452.251-.168.737-.503.704-.855-.017-.335-.1-.805-.1-.906 0-.083.083-.167.066-.268-.016-.1-.167-.201-.268-.285-.1-.067-.704-.352-.771-.587-.067-.218 0-.788.034-1.022.033-.218.033-.922.016-1.073 0-.151-.1-.57-.067-.57m.47 3.89c0 .167.016.284.067.284.05 0 .235-.117.218-.2 0-.085-.269-.236-.285-.085m-.134-.067c-.017.118.083.537.184.503.1-.017.285-.218.302-.302.016-.067-.017-.218-.118-.268-.117-.033-.083-.033-.184-.05-.084-.017-.15.017-.184.117m-1.342-.687c-.167.318-.654 1.106-.938 1.341-.286.218-1.074.738-1.71.805-.621.05-2.08.067-2.247.084-.168.016-.151.083-.201.184-.05.1-.084.889.033.972.134.068.486.185.486.135-.017-.05-.218-.269-.285-.37l-.05-.1s.369-.386.52-.47c.15-.083.385-.117.47-.066.083.05.418.335.469.368.033.034.821-.553.922-.57.083-.016.15-.016.234.118.084.15.235.302.268.285.034-.017.604-.47.621-.42 0 .051.319.47.369.437.033-.034.15-.118.15-.118s-.385-.452-.351-.536c.016-.067.922-.688 1.156-1.107.252-.402.352-.788.42-.788.067 0 .134.201.15.503.017.285-.05 1.107-.301 1.526-.235.402-.403.536-.403.587.017.033.604.77.57.905-.05.117-.52.15-.821.15-.285 0-.788.068-1.04-.066-.251-.134-.553-.386-.62-.352-.084.05-.453.352-.604.352-.15 0-.268.033-.251.117 0 .084.235.134.319.134.083 0 4.292-.017 4.292-.05 0-.034-.084-.335-.269-.47-.2-.15-.251-.402-.218-.502.05-.118.118-.068.067-.151-.05-.084-.167-.319.034-.453s.855-.537.738-1.123c-.101-.587-.084-.654-.05-.721.033-.067.033-.269-.085-.319-.117-.067-.905-.352-.938-.838-.017-.47.083-1.76.083-1.861 0-.1-.016-.67-.134-.57-.134.117-.218.201-.335.15-.117-.033-.15-.1-.201-.083-.067.033-.1.033-.1.084 0 .05-.018 1.073-.018 1.509-.016.419-.05 1.04-.2 1.358m-.085 1.676c-.033.017-.536.47-.52.537.017.05.051.117.101.067.034-.05.436-.436.453-.52.017-.084-.017-.134-.05-.1-.017.05.016.016.016.016m.47-.301c-.1.452-.369.905-.654 1.173-.302.268-.738.62-.821.62-.084.017-.218-.134-.286-.251-.067-.117-.117-.117-.218-.067-.1.067-.268.084-.251-.05.017-.118.335-.37.386-.352.033 0 .285.268.285.368 0 .101.05.135.1.101s.738-.503.94-.838c.2-.319.234-.37.234-.52.017-.168.05-.252-.034-.201-.067.033-.805.72-.821.788-.017.084.084.184.067.251-.034.067-.05-.016-.168-.05-.117-.033-.218-.117-.2-.218 0-.1.452-.42.569-.536.117-.118.52-.554.654-.788.134-.252.15-.302.168-.269.016.034.05.788.033.855-.017.067.017-.016.017-.016m-1.895 1.559c.034.033.302.369.386.369.084.016.335-.151.385-.185.05-.033.135 0 .168.05.034.05.118.118.05.151-.067.017-.62.084-.922-.05-.301-.134-.251-.184-.218-.218.034-.033.135-.134.151-.117m-1.609-.067c.134-.084.587-.453.637-.436.05.033.654.654.738.771.067.134.285.235.503.252.218 0 .922 0 .922-.068-.017-.083-.134-.234-.151-.285 0-.067.05-.167.1-.134.05.017.487.554.52.637.034.084.017.084-.017.084-.033 0-1.425.067-1.576.017-.15-.034-.502-.369-.704-.553-.2-.185-.234-.269-.285-.352-.05-.067-.117-.034-.167.016-.05.034-.37.218-.487.218-.1 0-.167-.083-.033-.167m.603.05c-.033 0-.536.302-.536.352.017.034.1.067.167.05.068-.033.47-.251.453-.285 0-.016-.05-.134-.084-.117m-.938.62c.067.034.318.218.285.218-.034 0-.386-.117-.453-.134-.067 0 .117-.1.168-.084m-.822-.47c.017-.033.184-.133.285-.066.1.084.201.117.134.168-.067.033-.302.117-.352.067-.067-.034-.067-.151-.067-.168m-.017-.42c-.067.051-.419.386-.419.437-.017.067.218.402.352.452.118.05.352.05.436.034.084 0 .184-.017.184-.067s-.05-.134-.117-.134-.268.067-.385-.017c-.118-.084-.252-.201-.235-.268.033-.067.369-.285.436-.235.067.033.737.687.838.754.084.067.453.118.637-.033.201-.134.235-.168.252-.201 0-.034-.118-.151-.168-.134-.034.033-.235.251-.352.234-.117 0-.47-.218-.604-.369-.117-.15-.452-.486-.62-.486-.168 0-.168 0-.235.034m2.934-14.838c-.017.084-.805 4.242-1.71 6.941-.922 2.7-1.056 3.488-1.29 5.214-.219 1.727-.168 2.063-.068 2.063.084 0 1.526.033 1.542-.101.017-.151.017-2.817.386-4.376.37-1.542 1.358-5.214 1.51-6.203.133-.99.435-3.638.435-4.007 0-.37-.05-.453-.185-.319-.134.134-.603.688-.62.788m-7.796 16.212c.05-.218.084-.385.05-.402-.033 0-.1.168-.15.369-.068.218-.084.402-.05.402.033 0 .1-.15.15-.369m2.834-1.023l.033.721s.117-.05.47.05c.352.101.637.252.855.235.217-.016.436-.218.285-.285-.151-.067-1.643-.804-1.643-.72m-.856-.62c-.067.05-1.391 1.273-1.307 1.29.1.017.318-.033.452.067.135.118.973.218 1.224 0 .252-.2.235-.251.252-.402.017-.168.033-.755-.084-.838-.134-.101-.47-.185-.537-.118m-1.307-1.56c0 .085-.553 1.46-.654 1.896-.1.435-.185.452-.05.536.117.084.234.268.318.201.084-.067 1.777-1.408 1.81-1.559.034-.15-.167-.285-.217-.352-.05-.084-.168-.185-.403-.235-.234-.05-.804-.486-.804-.486m.704.251c-.185-.1-.335-.15-.335-.134-.017.017.117.118.301.202.185.1.336.167.336.134.017-.017-.118-.1-.302-.202m.285-2.514s.62.184.637.285c.017.1-.084 1.056-.319 1.592-.218.554-.15.637-.419.52-.268-.1-.687-.302-.805-.453-.117-.134-.05-.217-.217-.318-.185-.117-.386-.335-.42-.503-.033-.168.05-.553.05-.553s.772-.185 1.107-.37c.319-.167.386-.2.386-.2m.872-.587c-.084.033-.57.369-.537.419.034.05.335.134.403.067.067-.067.217-.52.134-.486m-2.33.855c.184-.05.284 0 .653-.151.369-.15.42-.184.52-.235.1-.033.1.05 0 .1-.1.051-.788.403-.99.403-.217 0-.368-.067-.184-.117m.302-.889c.05.017.553.37.67.386.118.017.017.1-.066.134-.101.034-.805.285-.822.218-.017-.05-.017-.319.067-.386s.084-.067.034-.15c-.067-.084.05-.202.117-.202m1.861-.285c-.201-.033-1.056.202-1.174.269-.117.067.068.1.168.167.1.05.218.151.302.084.1-.067.905-.503.704-.52m-1.66-.084c.168-.067 1.325-.1 1.291-.05-.017.05-.838.302-1.006.285-.184-.017-.469-.184-.285-.235m.838-.251c.034-.017 1.074-.184 1.14-.15.068.033.185.1.068.167-.118.067-1.208.067-1.208.033-.016-.05-.033-.05 0-.05m-3.52-5.415v.033s-.805-.939-.855-1.04c-.067-.117-.151-.402-.269-.636-.1-.235-.067-.286-.117-.235-.05.033-.369.922-.251 1.61.134.703.385 1.71.888 2.246.503.553.654.57.57.603-.1.034-.536-.1-.872-.553-.352-.436-.52-.687-.57-.654-.033.034.554.805.738.956.184.15.738.503.972.537.235.05.755.234.94.301.184.05 1.173.554 1.14.62-.051.068-.302-.016-.37-.05-.05-.016-.083-.033-.083.05 0 .068.167.504.268.52.1 0 .872.084 1.173.05.302-.033 1.023-.05 1.04.068.034.117-.771.419-.99.436-.234 0-.401-.067-.351-.084.05-.017.939-.185.989-.252.033-.067 0-.067-.05-.067-.05.017-1.308-.017-1.342.05-.05.068-.352.755-.234.839.134.067 1.458-.168 1.76-.168.285-.017.587-.033.654-.117.084-.084.134-.403.117-.52-.017-.134-.117-.235-.083-.302.016-.067.184-.67.184-.821 0-.168 0-.235-.184-.319-.185-.067-1.023-.888-2.163-1.475-1.157-.587-2.213-1.056-2.549-1.274-.318-.218-.855-.671-.922-.772-.084-.1-.033-.167 0-.15.034.033.788.687.805.637.017-.067.034-.034.017-.067m1.743-3.085c.135 0 .922.134 1.107.117.184-.034.134-.034.1.067-.016.084-.318.252-.586.168-.268-.1-.37.033-.453.15-.084.101-.302-.486-.168-.502m-.1-.52c.134 0 .235-.084.302-.117.067-.05.2.033.067.134-.134.1-.386.268-.42.2-.016-.05-.1-.217.05-.217m-.133 2.515c-.067-.151-.151-.252-.185-.235-.017.017.017.134.084.285.067.134.15.235.184.218.017-.017-.016-.134-.083-.268m-.788-3.202c-.017-.017-1.258.016-1.258.05a.286.286 0 01-.084.184c-.067.067-.1.1-.067.134.034.034.084 0 .05.084-.016.067 0 .067-.05.05-.05-.016-.083.017-.117.084-.017.084 0 .201.05.252.05.033-.033.067-.084.067-.033 0-.083 0-.083.067s.083.184.033.201c-.05.017-.084-.017-.1.067-.017.084-.101.319-.05.352.066.034.117.017.066.067-.05.05-.117-.016-.15.135-.034.15-.152.402.083.687.235.268.788 1.14.905 1.308.118.15.537.821.705.872.15.033 1.14.603 1.14.553.017-.034-.788-.906-1.107-1.19-.302-.269-1.006-.872-1.022-1.007-.034-.134-.034-.15.033-.083.05.05 1.123 1.09 1.325 1.223.2.151.805.788.955 1.006.151.202.285.319.302.302.017-.033-.402-1.106-.654-1.61-.268-.502-.402-.72-.352-.72.05 0 .453.62.721 1.24.268.62.503 1.224.537 1.241.016 0 .05-.017.067-.05.016-.034-.034-.721-.1-.839-.085-.134-.135-.285-.118-.385.033-.117.218-.654.251-.822.034-.15.1-.536.034-.62-.084-.084-.503-.251-.755-.956-.268-.704-.285-.72-.285-.72s-.184.016-.218-.068c-.016-.083 0-.083.067-.134.067-.05.067-.033.084-.067a.86.86 0 00-.067-.168s-.419.05-.47.084c-.033.034-.117.017-.1-.067 0-.067.168-.234.084-.2-.1.016-.721.167-.755.15-.05-.034-.083-.15.017-.201.1-.05.554-.553.537-.553m-1.492-.017c-.185 0-.788-.185-.721-.269.067-.083.536-.033.57-.117.033-.1-.42-.251-.554-.352-.134-.1.017-.168.269-.251.251-.084.251-.185.05-.185-.218 0-.486-.033-.52.1-.033.135-.05.269-.134.688-.067.436-.62 2.33-.905 2.917-.285.587-.403 1.224-.403 1.643 0 .42.101 4.779.034 5.399-.05.604-.15 1.677-.084 2.23.05.553.151.536.168.436 0-.084.1-.704.402-.721.302 0 .386.167.503.1.134-.067.369-.318.369-.486.017-.184-.067.067-.067-2.028 0-2.096-.117-4.628.084-5.516.184-.889.486-1.543.486-1.677 0-.117.017-.15-.034-.168-.033-.016-.067-.1 0-.117s.135-.017.151-.168c0-.15.05-.301.017-.318-.033 0-.067 0-.067-.034 0-.05.017-.05.067-.05s.033 0 .067-.05.067-.101.017-.134c-.05-.034-.067-.084-.05-.084.016 0 .083.033.1-.017.034-.067.118-.302.1-.319-.016-.016-.016-.083.034-.1.05-.034.168-.235.185-.268 0-.05.033-.084-.134-.084m7.293.218c-.067.134-.05.167.016.2.068.018 1.727.873 1.744.84.017-.018.1-.118.017-.168.084.05-1.71-1.006-1.777-.872m.352-.436c.017.033.084.419.184.402.118 0 .47-.084.52-.1.05 0 .084.1.117.167.034.084.185.285.319.235.15-.05.352-.168.436-.201.067-.034.084.05.084.084 0 .033-.134.553-.218.536-.068 0-1.627-.72-1.643-.771-.034-.05.201-.386.201-.352m1.928-.118c-.034.017-.554.47-.721.436-.151-.033-.201-.083-.201.034 0 .1-.017.285.117.251.134-.05.62-.335.721-.469.1-.151.117-.268.084-.252m-.453-.318c-.084.017.034.318-.134.419-.184.084-.1.151-.067.151.05 0 .352-.117.352-.235 0-.117-.05-.352-.15-.335m-.923-.034c-.067 0-.201.034-.201.084 0 .067-.034.319.084.302.117-.017.234-.017.234-.1 0-.068-.033-.286-.117-.286m.168-.436c-.034.034-.1.319.017.286.117-.05.234-.068.234-.135.017-.067.034-.167-.067-.201-.1-.033-.15 0-.184.05m-.218 0l-.235.37s.218.033.268-.068c.05-.117.1-.402-.033-.302m-.319.671c.067.067.118.285.319.268.218-.016.637-.268.637-.318 0-.034.15.017.15.084-.016.05-.888.536-.988.52-.101-.017-.185-.386-.202-.47-.016-.084.017-.168.084-.084m.587-.252c.034-.05.939-.435 1.006-.284.084.15.134.536.017.469-.118-.05-.151-.134-.151-.185 0-.05.033-.1-.084-.1s-.637.218-.67.285c-.017.05-.151-.134-.118-.185m-.117-.57c.016-.033.235-.419.419-.251.184.151.15.319.1.352-.033.034-.1.017-.15-.05-.05-.05-.168-.117-.252-.05-.1.067-.117.016-.117 0m.586-.386c0 .1.202.587.286.536.1-.05.352-.033.385.05.034.101.084.537.168.504.067-.034.218-.436.218-.52 0-.067-1.04-.654-1.057-.57m-.318-.034c.017-.05.1-.083.184-.067.068.034.1.05.017.067-.067 0-.201.05-.201 0m.252-.402c-.034.034-.152.168-.101.201.05.034 1.29.721 1.324.67.034-.05.134-.217.05-.25-.067-.034-1.223-.654-1.273-.62m-2.063 4.643c.017-.335.017-.62 0-.62s-.05.285-.067.62-.017.604 0 .604c.017.017.05-.269.067-.604m.956-.285c.017.067.1.486-.151.906-.268.435-.537.804-.486.77.067-.016.838-.77.788-1.206-.05-.453-.168-.52-.151-.47m-2.917-3.051c-.017.1-.285 2.682.017 3.688.284 1.023.72 1.71.905 1.727.184.034.47-.15.553-.218.067-.067.084-.117.168-.1.1 0 1.274-.252 1.676-.89.386-.62.839-1.994.805-2.044-.034-.05-1.71-.855-1.71-.855s-.319.77-.302.821c.034.034.453.922.319 1.56-.134.62-.201.636-.218.57-.017-.085.167-.638.05-1.208-.117-.553-.15-.503-.15-.402 0 .1-.051 1.442-.185 1.525-.134.084-.134-.05-.134-.134 0-.1.1-.922.033-.939-.067 0-.402.906-.486.906-.084 0-.067-.067-.033-.151.033-.1 1.14-3.303 1.106-3.353-.017-.034-.151-.118-.235-.05-.084.05-.05.117-.117.083-.05-.05-.185-.15-.268-.084-.101.084-.101.135-.135.101-.033-.034-.15-.251-.25-.134-.085.1-.135.033-.152-.017-.033-.05-.235-.235-.302-.168-.05.084-.134.185-.15.084 0-.1.016-.117-.05-.134-.051-.033-.202-.117-.236-.05-.033.067-.05-.034-.1-.05-.05 0-.084-.017-.118.05-.016.084-.05 0-.083-.05-.05-.068-.218-.168-.218-.084m3.101-5.483c-.134.151-1.24.436-1.442.537-.184.117-.301.201-.351.168-.034-.034-.101-.034.033-.135.117-.083.302-.369.402-.452.118-.084.118-.135-.033-.1-.168.05-.37.25-.57.519-.202.268-.688 1.157-.771 1.66-.068.52-.118.72-.101.754.033.017.201-.184.235-.268.05-.1.184-.654.335-.922.134-.285.218-.352.2-.235-.016.134-.737 2.23-.703 2.347.05.118.067.218.017.269-.05.05-.386.871-.37 1.056.018.184.068.2.118.2.067-.016.134-.133.168-.05.017.085 0 .101.117.118.134.017.201.017.201-.033s.05-.101.068-.034c0 .067-.101.067 0 .117.117.034.218.118.234.067.034-.05.134-.117.134-.05.017.05 0 .117.067.15.068.018.168.085.168.034 0-.05.05-.083.1-.016a.23.23 0 00.168.084c.034-.017-.017-.101.084-.05.1.033.1.066.201.083.1 0 .185 0 .185-.033 0-.05.033-.118.084-.05.05.083.083.1.15.1.084-.017.151-.017.135-.067-.034-.067.05-.1.084-.05.033.05.083.067.1.016 0-.067.503-1.24.486-1.274 0-.05-.017-.034-.117.084-.084.134-.503.47-.587.419-.1-.033-.067-.084.034-.134.084-.05.77-.956 1.106-1.358.319-.42.738-1.174.587-1.979-.151-.787-.302-1.14-.402-1.307-.101-.168-.084-.218-.135-.084-.033.117-.368.335-.385.285 0-.05.1-.52-.034-.386M32.87 7.77c-.05-.252-.117-.453-.134-.453-.017.017.017.218.067.47.05.25.117.452.134.452.017-.017 0-.218-.067-.47m-.017-1.91c-.05.2-.285.938-.234 1.558.05.62.402 1.291.486 1.275.067-.017.05-.487.05-.62 0-.151.252-1.308.486-1.761.235-.453.654-.973.654-1.023 0-.067-.15-.05-.436.05-.285.084-.972.32-1.006.52m-.369.302c-.1.117-.536.654-.553 1.056 0 .403.017.872.218 1.275.201.402.235.503.218.67-.033.168-.251.42-.168.42.101 0 .42-.034.537-.068.117-.033.184-.084.251-.067.068 0 .084 0 .084-.05.017-.034.084-.201.067-.252-.016-.05-.47-.704-.553-1.207a13.966 13.966 0 01-.15-1.559c0-.235.05-.218.05-.218M38.1 8.255s-.335-.05-.436.1c-.084.135-.52.755-.453.805.067.05 1.174.688 1.19.637.017-.05.185-.352.269-.352.084 0 .05.05.05.151-.017.1.017.235.252.268.235.017.737-.016.905-.117.168-.084.252-.168.335-.1.067.083.436.15.62.167.168.034.286.034.252.117-.05.084-.57.202-.57.302 0 .1-.017.755-.084.67-.067-.066-.033-.385-.067-.485-.016-.084-.318-.168-.385-.285-.067-.135-.118-.185-.118-.084 0 .084-.017.419.068.553.066.134.335.503.419.52.067.016.368-.201.787-.805.42-.604.47-.587.42-.704-.05-.134-.05-.335-.151-.285-.1.033-.453.033-.637-.151-.202-.184-.118-.302-.185-.268-.084.05-.302.47-.587.352s-.285-.319-.452-.302a.486.486 0 01-.403-.1c-.067-.068-.083-.168-.167-.05-.084.116-.352.267-.587.066-.252-.201-.285-.419-.285-.486 0-.084.017-.151 0-.134m2.884.486c.016-.017.251-.034.335.067.067.117.1.134.033.134s-.218-.1-.301-.117c-.084-.017-.101-.084-.067-.084m.1-.486c-.033.05-.318.302-.302.553.017.251.101.319.218.335.118.017.319.017.352 0 .034-.033.084-.067-.016-.067-.084-.017-.134 0-.168-.05s-.05-.067-.15-.067c-.102 0-.185-.084-.152-.168.034-.1.118-.2.202-.2.083.016.351.1.368.083.017-.034.05-.134 0-.201a1.369 1.369 0 00-.285-.185.181.181 0 01-.067-.033m-1.24.369c-.068.016-.218.134-.185.184.017.067.134.268.168.251.05-.033.234-.134.218-.234-.017-.084-.151-.235-.202-.201m-.469-.37c-.134.051-.285.168-.235.286.05.134.135.251.202.235.067-.034.234-.235.234-.302 0-.084-.067-.269-.201-.218m-.99.335c0-.117.118-.335.252-.318.135.033.202.083.202.184.016.1-.034.369-.101.369-.05 0-.369-.134-.352-.235m2.28-.72c-.168.066-.754.519-.704.603.05.067.268.2.235.335-.034.134-.185.268-.118.268.05 0 .688-.57.704-.654.017-.083.151-.184.202-.218.05-.033-.151-.385-.319-.335m-.637-.553c-.084.017-.905.821-.788.855.1.033.201-.067.268 0s.151.184.134.319c-.016.134-.033.184-.016.134.016-.034.838-.872.905-.889.067-.017 0-.117-.117-.218-.118-.1-.302-.235-.386-.201m-.838-.268c-.1.117-.906 1.123-.94 1.257-.033.134-.05.218.018.151.067-.05.234-.369.335-.369.1 0 .302.05.318.185 0 .15-.05.469 0 .452.05-.017.118 0 .084-.1-.033-.118-.05-.235.05-.386.101-.15.62-.805.654-.872.017-.067-.1-.285-.234-.335-.118-.034-.201-.084-.285.017m3.537-1.207c-.05.05-.117.285-.1.603.033.302-.067.587-.05.771.033.201.167.805.217.721.034-.084.319-1.073.151-1.492-.167-.419-.167-.654-.218-.603m-2.783.218c-.084-.386-.15-.688-.184-.688-.017 0 .016.319.083.704.068.386.151.704.185.688.017 0-.017-.319-.084-.704m-1.106-4.091c.251.067 2.967.57 2.866.687-.1.117-1.156.755-1.391 1.526-.235.77-.319 1.056-.268 1.307.067.269.134.353.15.269.017-.084-.05-.67.05-.922.102-.252.102-.269.169-.218.083.05.469.134.788-.067.318-.185.469-.319.452-.218 0 .1-.134.218-.117.402.017.184.05.15 0 .268-.05.117-.386.755-.47.704-.083-.067-.067-.301-.033-.52a3.26 3.26 0 01.117-.486s-.117 0-.134.168c-.033.168-.184.62-.15.838.05.202.117.252.05.386-.068.117-.269.57-.252.872.034.318.084.536.134.452.034-.083.017-.385.05-.637.017-.268.219-.821.47-1.14.251-.318.201-.452.302-.47.1-.033.134.018.2.051.068.05.169.084.219.252.033.167.017.989-.1 1.24-.118.252-.202.487-.219.637-.017.151-.067.587-.067.738.017.15.1.218.118.185.016-.05 0-.286.033-.436.017-.168.168-.62.335-.872.151-.235.235-.402.235-.235 0 .168.185 1.325.302 1.727.117.402.503 2.347.184 3.202-.301.839-.47 1.157-.586 1.258-.118.1-.235.033-.218.167 0 .151-.118.637-.218.94-.1.284-.252.234-.218.15.033-.067.083-.352.117-.486.05-.151.084-.369-.017-.285-.1.1-.838.99-.888 1.257-.067.269-.118.503-.067.721.05.218-.034.218-.118.118-.084-.084-.369-.52-.301-1.291.083-.755.553-1.526.77-2.063.219-.553.437-.922.453-1.09.017-.15-.083-.234-.117-.167-.017.067-.335.654-.453.704-.134.034-.134-.1-.05-.184.084-.084.235-.386.252-.503 0-.118.016-.151.083-.269.05-.117.57-.838.554-1.005 0-.185-.151-.403-.151-.62 0-.235.117-.403.067-.47-.05-.084-.252-.436-.42-.486-.184-.034-.452-.436-.52-.52-.083-.084-.468-.553-.67-.47-.2.084-.2.101-.285.034-.067-.084-.134-.067-.184-.47a8.196 8.196 0 01-.118-1.14c-.016-.251.05-.385-.016-.352-.067.017-.168.52-.235.839-.067.318 0 .637-.084.72-.084.084-.419.353-.436.403 0 .05-.1.067-.067-.05.034-.118.05-1.057.185-1.124.134-.05.452-.503.486-.72.05-.235.084-.32.033-.32-.067 0-.067.068-.217.135-.151.084-.084-.117 0-.201.067-.067.134-.503.167-.704.05-.201.067-.37.034-.285-.05.084-.269.301-.319.385-.067.084-.1.1-.117 0s-.034-.1-.118-.235c-.067-.15.05-.435.05-.687 0-.251-.05-.419 0-.52.051-.117 0-.184-.05-.117-.05.067-.184.302-.251.218-.067-.1-.034-.436-.118-.587-.067-.15.101-.369.353-.318m4.174 1.475c-.067-.017-.318.067-.318.134-.017.067.016.285.218.302.184.017.352.05.352 0-.017-.05-.151-.067-.185-.235a.662.662 0 00-.067-.201m-2.33.604c-.05.033-.369.402-.168.452.201.034.771-.117.956-.235a.672.672 0 01.637-.05c.134.1.436.302.402.386-.05.1-.067.084-.117.033-.05-.05-.352-.419-.52-.251-.15.15-.318.385-.1.503.234.117 1.056.536 1.257.47.185-.068.369-.252.268-.353-.1-.1-.318-.167-.452-.47a10.772 10.772 0 01-.269-.804c-.033-.067-.033-.067-.084-.033-.067.033-.637.268-.821.368-.168.118-.319.201-.503.185-.184-.017-.302-.067-.201-.067.1-.017.369-.05.352-.067 0-.034-.587-.1-.637-.067m0-.185c.033-.05.318-.385.352-.335.034.05.184.218.302.285.134.05.268.1.2.15-.066.034-.67 0-.754-.033-.083-.033-.134-.033-.1-.067m.452-.503c.05-.084.302-.251.436-.201.134.034.537.15.738.15.218 0 .268-.066.252 0 0 .085-.252.403-.503.37-.269-.017-.705-.218-.839-.235-.134 0-.134-.067-.067-.1.084-.05-.017.016-.017.016m-2.263-1.827c.017-.05.587-.772 1.174-.839.587-.05 1.475.034 1.743.202.269.167.688.687.671.788-.017.1-.268.67-.453.67-.167-.016-3.135-.704-3.152-.737 0-.05 0-.034.017-.084m3.119 1.123c.033.017 1.19.252 1.19.319s-.134.15-.268.234c-.118.084-.134.084-.134.05-.017-.05.033-.284.016-.335-.033-.033-.05.017-.1.084-.05.05-.202.168-.554.151-.352 0-.704-.1-.653-.117.033-.034.47-.403.503-.386m.603-.738l-.017.017c0 .067-.134.335-.217.403-.084.066-.017.1.083.117.1 0 .57.168.554.117-.017-.067-.286-.72-.403-.654m.268-.167c-.15-.202-.285-.352-.335-.319-.034.034.05.218.201.42.151.217.302.351.336.335.033-.034-.05-.218-.202-.436M41.218.442c-.385.017-.737-.151-1.274.05-.536.201-1.106.554-1.24.805-.152.268-.152.352-.118.402.034.05-.1.235-.168.202-.066-.017-.285-.487-.402-.755-.134-.268-.319-.687-.386-.57-.067.117.101.956 0 .922-.083-.033-.419-.402-.553-.47-.15-.083-.168-.05-.15.051.016.084.268.503.167.402-.1-.083-.805-.385-1.56-.352-.754.017-.787-.117-.938-.184-.134-.067-.201-.084-.168.034.017.1.252.419.369.653.117.235.386.252.285.319-.1.05-.318.067-.654.017-.335-.05-.57-.101-.67-.185-.101-.084-.118-.117-.118-.05s.168.47.218.52c.067.05.185.117.084.134-.117.016-1.09-.654-1.643-.755-.537-.084-.805-.067-.872-.016-.067.05.067.033.134.1s.403.252.47.335c.067.084.134.101-.034.084-.15-.017-.637-.234-.72-.184-.085.067.016.117.1.15.084.051.268.185.302.302.05.118-.101-.033-.336-.066-.218-.05-.218-.068-.234 0-.017.05.05.033.1.117.034.1.185.084-.05.05-.235-.017-.771.05-1.023.118-.268.083-.285.134-.637.134-.352.016-.402-.068-.42-.017 0 .067.202.302.42.453.218.134.453.2.553.234.1.034.285-.016.168.084-.134.1-.537.017-.47.1.05.101.336.252.554.303.218.05.369 0 .369.066 0 .068-1.073.37-1.258.436-.184.084-.352.168-.788.084-.436-.084-.57-.117-.637-.084-.084.017.084.235.201.302.118.067.319.034.235.118-.067.1-.235-.017-.637.184s-.453.252-.369.268c.084 0 .268-.067.386 0 .134.067.603.285.737.285.135.017-.05.05-.2.067-.168 0-1.141.302-1.41.587-.284.302-.603.704-.804.872-.184.168-.268.251-.201.251.084 0 .536-.067.62-.184.084-.117.302-.251.269-.134-.034.117-.587.939-.503.955.083 0 .067-.083.167-.117.101-.017.235 0 .168.067-.067.067-.47.822-.704 1.123-.218.286-.604.503-.47.537.134.05.52-.1.772-.268.234-.151.318-.118.251-.05-.067.067-.57.486-.436.502.134.034.52-.083.654-.1s.302-.05.218 0c-.084.067-.956.386-.754.47.217.066.318-.034.503.016.184.05.352 0 .335.1-.034.101-.134 1.325-.486 2.247-.37.94-.738 1.66-.822 2.381-.084.721-.1 3.806-.084 4.711.017.906-.033 2.23-.067 2.515-.033.302-.017.453 0 .72 0 .286.168 1.828.319 1.745.15-.084.234-.604.251-.738.034-.134.134-.587.218-.47.084.118.134.168.235.084.117-.083.067-.234.201-.167s.369.084.369.033c0-.05.385-.62.319-.821-.05-.185-.101-.185-.034-.269.067-.067.235-.368.235-.586.016-.235-.118-2.716-.084-3.152.033-.436.05-.537.1-.436.05.1 1.493 1.794 1.56 1.894.067.118.083.151.134.386.05.218.084.285.268.335.184.05.419.185.1.235-.335.05-.536.15-.67.369-.117.234-.972 1.123-1.107 1.425-.15.302-.15.436-.083.62.083.168.2.252.2.352-.016.118-.066.185 0 .269.051.067-.016.184-.083.318s-.185.352-.352.453c-.151.1-.184.302-.151.402.033.1-.218.42-.352.57-.134.168-.486.704-.486.889 0 .184.05.335.084.385.016.067.066.084.05.168-.017.084-.352.654-.319.872.05.218-2.632.318-2.833.318-.218.017.805.185.888.168.068 0 6.002-.184 6.086-.15.084.033.118.234.352.267.235.017 1.76-.016 1.895-.067.117-.05.251.1.385.151.151.034 1.744-.084 2.23-.134.487-.067 1.291-.184 1.409-.285.134-.1.15-.134.15-.134s4.56-.034 4.779-.034c.218-.016 1.391.118 1.408-.033.017-.151.034-1.291-.033-1.442-.05-.15-.269-.235-.218-.285.05-.05.067-.017.167-.05.1-.05 0-.855-.167-1.19-.185-.336-.218-.403-.185-.52.017-.118.1-.47 0-.62-.1-.152-.134-.219-.05-.286.067-.05-.084-1.09-.168-1.19-.084-.1-.134-.117-.285-.117-.134 0-.15-.05-.067-.084.1-.017.185-.017.218-.134.017-.135-.134-1.157-.201-1.409-.067-.251.017-.335-.319-.318-.335 0-1.877.251-1.894.335-.017.084.05 2.112-.034 2.565-.1.436-.369 1.392-1.358 1.861-.989.47-1.04.537-1.056.436-.033-.1-.033-2.146.168-3.236.184-1.09.939-3.856 1.156-4.862.219-1.006.805-4.191.856-4.912.05-.738.15-1.56.2-1.51.034.068.185.37.42.32.218-.05.402-.269.386-.151 0 .117-.32.586-.37.72-.05.118-.083.135.202.101.285-.017.117.15 0 .453-.117.302-.486 1.257-.453 2.029.05.787.302 1.458.654 1.458.335 0 .486-.067.57-.117.067-.05.302 0 .067-.101-.235-.1-.335-.134-.352-.386-.017-.251-.017-.737.184-.989.202-.268.185-.251.168-.134-.017.1-.352.486-.017.403.336-.068.537-.386.721-.62.202-.252.202-.84.235-.94.05-.1 1.09-1.257.922-2.716-.167-1.458-.335-1.794-.335-1.945 0-.167.386-1.358.318-1.844-.067-.486-.134-.838-.2-.905-.051-.084-.085-.168-.017-.151.083.034.234.067.318-.017.084-.1.352-.603.268-.704-.084-.117-.385-.134-.52-.436-.15-.285-.167-.352-.066-.318.117.016.452-.05.536-.201.084-.152.05-.42-.034-.32-.1.102-.15.068-.184-.016-.033-.084-.017-.889.033-1.123.034-.235-.335-1.09-.922-1.459-.603-.369-.871-.553-1.274-.553zm-8.684 12.255c.016.034.067.084.05.336-.017.251.235 1.458.318 1.844.084.385.856 1.391.956 1.459.1.083.57-.084.738-.218.15-.118.587-.185.754-.168.185 0 .52.369.671.419.134.034.419-.033.52-.352.084-.319.335-.352.586-.52.252-.184.57-.402.772-1.157.218-.737.536-3.42.553-3.688.033-.268.067-.319.184-.319.101 0-.033.688-.05 1.006-.034.302-.302 1.627-.369 2.264-.067.637-.737 2.75-.855 3.168-.117.42-.536 1.727-1.24 3.538-.688 1.827-.755 4.946-.788 5.18-.034.235-.068.202-.218.235-.135.017-.269.05-.32.168-.032.117-.1.955-.1.955s-.067 0-.436-.134c-.368-.15-.385-.167-.435-.435-.034-.269-.336-.185-.487-.235-.134-.067 0-.185.068-.386.083-.201-.302-.436-.37-.587-.066-.134.152-.52.286-.955.134-.436.436-2.448.57-2.616.15-.15.318-1.24.285-1.391-.034-.168.134-.453.2-.805.085-.352-.452-.788-.552-.805-.084-.033-1.945-1.442-2.012-1.442-.084 0 0-.368-.067-.704-.05-.335-.285-.503-.101-.67.184-.151.235-1.14.235-1.442-.017-.285-.654-.57-.721-.704-.067-.118.017-.168.201-.168s.52.05.687-.15c.168-.202.453-.537.487-.52zM30.27 23.344c.05-.034.067-.05.1-.068.034 0 .018-3.202.068-3.219.067-.016.1 3.069.1 3.152 0 .067.101.1.185.134.1.017.134.05.184.302.067.252.37.57.453.721.084.168-.704 2.264-.704 2.297-.017.05-.151.067-.218-.05-.05-.118-.235-.034-.319-.034-.067 0 0-.05-.033-.184-.017-.151-.302-.285-.52-.42-.235-.117-.453.034-.553.084-.118.034-.05-.067.05-.234.117-.168.201-.403.201-.503.017-.118-.067-.168-.084-.352-.016-.185 1.04-1.576 1.09-1.627" color="#000" fill-rule="evenodd"/><path d="M7.921 26.613h1.826v1.71H6.552V1.812h1.37zm7.691-2.259h-1.095v-.87q-.799.967-1.734.967-1.21 0-2.054-1.193-.867-1.161-.867-2.935 0-1.742.867-2.967.844-1.194 2.054-1.194 1.026 0 1.734 1v-.903h1.095zm-2.83-1.677q.73 0 1.164-.71.434-.644.434-1.644 0-.968-.434-1.677-.456-.677-1.163-.677-.708 0-1.141.677-.457.742-.457 1.677t.457 1.645q.433.71 1.14.71zm7.735-4.578q-.342-.226-.89-.226-.479 0-.753.451-.273.484-.273 1.258v4.773h-1.324v-8.062h1.324v.71q.456-.84 1.346-.84.25 0 .57.097z" color="#000"/><path d="M67.807 27.517V4.921q2.93 1.166 4.34 3.526 1.384 2.415 1.384 5.399 0 2.251-1.112 4.476-1.085 2.143-2.984 3.77v5.426zm1.628-7.486q2.523-2.442 2.469-6.185 0-2.306-.76-3.825-.787-1.574-1.709-2.333zm9.549-1.111q-.407-.19-1.058-.19-.57 0-.895.38-.326.407-.326 1.058v4.014h-1.573v-6.781h1.573v.596q.543-.705 1.6-.705.299 0 .679.081zm7.325 5.261h-1.302v-.732q-.95.814-2.062.814-1.438 0-2.441-1.004-1.031-.977-1.031-2.469 0-1.464 1.03-2.495 1.004-1.004 2.442-1.004 1.22 0 2.062.841v-.76h1.302zm-3.364-1.41q.868 0 1.384-.597.515-.543.515-1.384 0-.813-.515-1.41-.543-.57-1.384-.57-.84 0-1.356.57-.543.624-.543 1.41 0 .787.543 1.384.515.597 1.356.597zM94.31 24.21h-1.573v-.679q-.786.76-1.899.76-1.464 0-2.387-1.004-.976-.977-.976-2.496 0-1.464.976-2.495.923-1.004 2.387-1.004 1.085 0 1.9.814V4.949h1.573zm-3.363-1.438q.868 0 1.383-.597.516-.543.516-1.384 0-.813-.516-1.41-.542-.57-1.383-.57-.868 0-1.384.57-.542.624-.542 1.41 0 .787.542 1.384.516.597 1.384.597zm6.618-1.328q.109.46.434.786.245.272.597.407.353.136.705.136.95 0 1.574-.38v1.465q-.705.407-1.574.407-1.437 0-2.332-1.004-.923-.922-.923-2.468 0-1.465.923-2.469.434-.488 1.03-.732.597-.244 1.221-.244 1.167 0 1.98.786.814.76.814 1.926v1.384zm1.682-2.632q-.624 0-1.085.38-.434.38-.57.922h2.957q.027-.406-.352-.84-.38-.462-.95-.462zM109.8 24.21h-1.573v-.679q-.787.76-1.9.76-1.464 0-2.386-1.004-.977-.977-.977-2.496 0-1.464.977-2.495.922-1.004 2.387-1.004 1.085 0 1.899.814V4.949h1.573zm-3.364-1.438q.868 0 1.384-.597.515-.543.515-1.384 0-.813-.515-1.41-.543-.57-1.384-.57-.868 0-1.383.57-.543.624-.543 1.41 0 .787.543 1.384.515.597 1.383.597zm11.366 1.409H116.5v-.732q-.95.814-2.062.814-1.438 0-2.441-1.004-1.031-.977-1.031-2.469 0-1.464 1.03-2.495 1.004-1.004 2.442-1.004 1.22 0 2.062.841v-.76h1.302zm-3.364-1.41q.868 0 1.384-.597.515-.543.515-1.384 0-.813-.515-1.41-.543-.57-1.384-.57-.84 0-1.356.57-.543.624-.543 1.41 0 .787.543 1.384.515.597 1.356.597z"/></svg><svg class="eicon-remove-button" stroke-width="1.5" viewBox="0 0 24 24" id="remove" xmlns="http://www.w3.org/2000/svg"><path d="M9.75 9.75l4.5 4.5m0-4.5l-4.5 4.5M21 12a9 9 0 11-18 0 9 9 0 0118 0z"/></svg></svg>