<?xml version="1.0" encoding="UTF-8" standalone="no"?>
<svg
   width="470"
   height="110"
   version="1.1"
   viewBox="0 0 124.35417 29.104168"
   id="svg220"
   sodipodi:docname="logo470-110.svg"
   inkscape:version="1.2.1 (9c6d41e410, 2022-07-14)"
   xmlns:inkscape="http://www.inkscape.org/namespaces/inkscape"
   xmlns:sodipodi="http://sodipodi.sourceforge.net/DTD/sodipodi-0.dtd"
   xmlns="http://www.w3.org/2000/svg"
   xmlns:svg="http://www.w3.org/2000/svg">
  <defs
     id="defs224" />
  <sodipodi:namedview
     id="namedview222"
     pagecolor="#ffffff"
     bordercolor="#666666"
     borderopacity="1.0"
     inkscape:showpageshadow="2"
     inkscape:pageopacity="0.0"
     inkscape:pagecheckerboard="0"
     inkscape:deskcolor="#d1d1d1"
     inkscape:document-units="mm"
     showgrid="false"
     inkscape:zoom="0.79705729"
     inkscape:cx="25.719607"
     inkscape:cy="262.21453"
     inkscape:window-width="1920"
     inkscape:window-height="1017"
     inkscape:window-x="-8"
     inkscape:window-y="-8"
     inkscape:window-maximized="1"
     inkscape:current-layer="svg220" />
  <rect
     width="115.82537"
     height="28.956343"
     ry="0.0062204017"
     display="none"
     stroke-linecap="round"
     stroke-linejoin="round"
     stroke-width="0.0862899"
     id="rect182"
     x="4.2298932"
     y="-0.090643212" />
  <g
     id="g467">
    <path
       d="m 58.430376,27.370973 2.693635,-1.344732 0.02967,-0.185112 c 0.16823,-1.049668 0.514623,-4.882908 0.447311,-4.950319 -0.02488,-0.0249 -0.5101,0.120036 -1.326895,0.396326 -1.105264,0.373838 -1.849094,0.63675 -4.043637,1.429227 -0.203621,0.07353 -0.393343,0.151777 -0.421651,0.1739 -0.03637,0.02845 -0.05121,0.192212 -0.05069,0.559651 4.49e-4,0.285701 -0.02131,1.570476 -0.04824,2.855037 -0.02991,1.42639 -0.0342,2.350155 -0.01102,2.373146 0.02299,0.02277 1.099704,-0.492477 2.731626,-1.307147 z m -3.421655,1.281492 c 0.024,-0.04544 0.0522,-1.214429 0.0703,-2.915151 0.02538,-2.384786 0.02119,-2.846582 -0.02626,-2.884515 -0.06381,-0.05113 -3.665584,-1.252361 -3.688112,-1.230007 -0.008,0.008 0.005,0.76937 0.02874,1.692093 0.02374,0.922722 0.03795,1.682884 0.03156,1.689255 -0.0064,0.0064 -0.538235,-0.196759 -1.18194,-0.451383 l -1.170357,-0.462966 -0.02639,-0.512573 c -0.01453,-0.281908 -0.04051,-1.009303 -0.05775,-1.616344 l -0.03134,-1.103757 -0.105575,-0.04014 c -0.152611,-0.05803 -1.894498,-0.574071 -2.613426,-0.774292 -0.500429,-0.139344 -0.622156,-0.160847 -0.661826,-0.116943 -0.03579,0.03959 -0.0399,0.189588 -0.01554,0.567996 0.08269,1.285372 0.382751,4.18894 0.438683,4.244884 0.01699,0.01697 0.502538,0.23271 1.078971,0.479349 1.427896,0.610979 2.398049,1.042718 5.285112,2.352066 1.357474,0.615611 2.498933,1.128197 2.536576,1.139026 0.03956,0.01136 0.08539,-0.01242 0.10854,-0.05623 z m -3.917735,-4.508213 c -0.01254,-0.209273 -0.0342,-0.891508 -0.04814,-1.516096 l -0.02531,-1.13561 -0.561082,-0.176552 c -0.3086,-0.09711 -0.698074,-0.219524 -0.8655,-0.272039 l -0.304447,-0.09548 0.02719,0.934537 c 0.01496,0.514004 0.03881,1.177075 0.05301,1.473472 l 0.02585,0.538878 0.827341,0.315549 c 0.455037,0.173547 0.84234,0.315155 0.86064,0.314674 0.01833,-2.61e-4 0.02306,-0.172105 0.01052,-0.381372 z m -0.965694,-0.712905 c -0.173107,-0.06927 -0.250513,-0.204808 -0.250513,-0.438683 0,-0.06666 -0.03929,-0.176384 -0.08731,-0.243824 -0.349723,-0.491157 0.0445,-0.973049 0.557288,-0.681285 0.322435,0.183497 0.445482,0.643352 0.232705,0.869849 -0.06048,0.06438 -0.08564,0.145349 -0.08564,0.275682 0,0.284774 -0.08044,0.332691 -0.366529,0.218221 z m 10.544162,-2.744888 c 0.134039,-0.04955 0.250021,-0.109466 0.257729,-0.133141 0.008,-0.02462 -0.319991,-0.128247 -0.768212,-0.242602 -0.430221,-0.109762 -0.782168,-0.206835 -0.782168,-0.215707 0,-0.0089 0.03596,-0.08663 0.07992,-0.1728 l 0.07993,-0.156671 0.835333,0.219448 c 0.459421,0.120702 0.867706,0.219698 0.907318,0.220016 0.123273,0.0011 0.07946,-0.10682 -0.104822,-0.257815 -0.1395,-0.114308 -0.276203,-0.171173 -0.647869,-0.269497 -0.259096,-0.06853 -0.748753,-0.198403 -1.088122,-0.288596 -3.353897,-0.891277 -6.270785,-1.621208 -7.768987,-1.944013 -0.13277,-0.0286 -0.273736,-0.08097 -0.313273,-0.116364 -0.06942,-0.06216 -0.55712,-0.840429 -1.522524,-2.429611 -0.254266,-0.418558 -0.467436,-0.766764 -0.473703,-0.77383 -0.03521,-0.03957 -0.47255,-0.05513 -0.47255,-0.01681 0,0.04463 0.647812,1.151652 1.594047,2.723981 l 0.532246,0.884443 0.529577,0.115292 c 0.291266,0.06341 0.537754,0.123464 0.547733,0.133443 0.02957,0.02958 -0.133356,0.306584 -0.18034,0.306584 -0.02374,0 -0.32342,-0.06176 -0.665938,-0.13723 l -0.622793,-0.13723 -0.569039,0.174253 c -1.91523,0.58654 -4.136124,1.28821 -4.163343,1.315429 -0.01113,0.01113 -0.0029,0.03568 0.01819,0.05461 0.05026,0.04501 0.428084,0.146374 0.519824,0.139471 0.0393,-0.0029 0.40057,-0.106548 0.802843,-0.23018 3.027618,-0.930541 3.358415,-1.023664 3.544778,-0.998183 0.50479,0.06919 4.914644,1.136189 8.169743,1.976792 0.74661,0.192791 1.385213,0.349671 1.41915,0.3486 0.03394,-0.0011 0.171375,-0.04248 0.305403,-0.09203 z m -4.631046,-1.42025 c -1.003221,-0.248191 -2.009164,-0.493712 -2.235371,-0.545625 -0.226242,-0.05191 -0.418865,-0.0998 -0.428085,-0.106426 -0.0092,-0.0066 0.01662,-0.08596 0.05734,-0.176298 0.05936,-0.131635 0.09127,-0.160261 0.160696,-0.144156 1.22856,0.285023 4.46947,1.0854 4.518927,1.115978 0.05052,0.03123 -0.14334,0.348431 -0.199729,0.326789 -0.02729,-0.01048 -0.870428,-0.222106 -1.873649,-0.470274 z m 5.764861,0.591288 c 0.108667,-0.28581 0.390001,-1.402413 0.534158,-2.120009 0.211699,-1.053838 0.259396,-1.476195 0.241912,-2.142364 -0.01343,-0.51145 -0.02259,-0.565836 -0.125103,-0.740125 -0.195021,-0.331735 -0.471762,-0.601886 -0.76381,-0.745683 -0.242249,-0.119254 -0.319035,-0.135916 -0.689624,-0.149641 -0.474126,-0.01759 -0.876683,0.06392 -1.473415,0.298204 -0.678505,0.266375 -1.837048,0.932047 -1.837048,1.055517 0,0.09766 3.893006,4.622359 3.990821,4.638111 0.05661,0.0091 0.09408,-0.01961 0.122288,-0.09385 z m -8.403131,-5.038288 c 0.331568,-0.41788 0.329263,-0.413612 0.223369,-0.413612 -0.0458,0 -0.09317,-0.016 -0.105268,-0.03561 -0.0121,-0.01953 0.179871,-0.23245 0.426597,-0.473054 0.246725,-0.240604 0.445285,-0.438682 0.441213,-0.4402 -0.0041,-0.0014 -0.180183,-0.02543 -0.391379,-0.05324 -0.375471,-0.04939 -0.38688,-0.0484 -0.514201,0.04462 -0.137236,0.100264 -0.8146,0.759872 -0.797632,0.776783 0.0054,0.0054 0.174323,0.03857 0.375304,0.07366 0.200997,0.0351 0.373756,0.0721 0.383932,0.08226 0.01017,0.01018 -0.07993,0.141278 -0.200199,0.291376 -0.171566,0.214097 -0.236619,0.268072 -0.301945,0.250542 -0.0458,-0.01231 -0.194343,-0.04362 -0.330079,-0.06963 -0.135747,-0.02597 -0.263086,-0.06199 -0.282973,-0.07996 -0.01989,-0.01799 0.03987,-0.139841 0.132863,-0.270938 0.142002,-0.20017 0.158895,-0.243934 0.105656,-0.273731 -0.03485,-0.01951 -0.09001,-0.02521 -0.12256,-0.01273 -0.05593,0.02147 -0.470581,0.621288 -0.470581,0.680706 0,0.01532 0.258452,0.08337 0.574349,0.151233 l 0.574349,0.123383 z m 4.351675,-0.02066 c 0.600902,-0.376734 1.528895,-0.843151 1.974475,-0.992334 0.180995,-0.06061 0.467912,-0.122236 0.637561,-0.136946 l 0.308524,-0.02676 -0.205677,-0.0693 c -1.441736,-0.485841 -7.356648,-1.508683 -8.802728,-1.522293 -0.493995,-0.0047 -0.635766,0.0387 -1.288326,0.394021 -0.689392,0.375442 -1.623408,1.101499 -1.556403,1.209912 0.01554,0.02513 0.134392,0.05767 0.264128,0.0723 0.505995,0.05705 2.158,0.27973 2.723112,0.367068 l 0.594995,0.09195 0.412796,-0.416983 c 0.227041,-0.22934 0.488992,-0.467686 0.582081,-0.529635 l 0.169278,-0.112652 0.672772,0.08623 c 0.370016,0.04742 0.677405,0.09086 0.68308,0.09654 0.0057,0.0057 -0.15476,0.145749 -0.356528,0.311275 -0.398323,0.32679 -0.838923,0.771223 -0.79155,0.798384 0.01624,0.0093 0.122097,0.03015 0.235218,0.04626 0.153312,0.02187 2.376042,0.460661 3.167303,0.625341 0.05192,0.01082 0.264342,-0.09703 0.575895,-0.29236 z"
       stroke-width="0.041136"
       id="path184" />
    <g
       transform="matrix(0.0976987,0,0,-0.0976987,23.529875,28.787518)"
       stroke="#000000"
       stroke-width="0.28346"
       id="g192">
      <g
         transform="scale(0.1)"
         stroke-width="2.8346"
         id="g190">
        <g
           fill-rule="evenodd"
           stroke="none"
           id="g188">
          <path
             d="m 1916.9,210.49 c 8.58,-3.433 12.02,-12.004 20.6,-12.004 10.28,0 17.16,-1.726 20.59,1.711 5.14,1.719 10.3,5.137 8.57,-1.711 -1.7,-6.871 -15.44,-22.312 -22.31,-22.312 -6.85,0 -29.18,6.863 -32.6,17.152 -3.43,10.305 -5.15,22.309 5.15,17.164 m 39.46,-54.918 c -6.85,-1.707 -13.72,-6.871 -12.01,-10.289 1.72,-1.722 8.59,-3.433 15.44,-1.722 6.87,3.433 12.02,6.863 12.02,10.304 -1.71,3.434 -8.58,3.434 -15.45,1.707 m -3.42,89.246 c -5.16,8.567 -12.03,13.723 -15.44,12.004 -1.73,-1.711 0,-10.301 5.14,-18.875 5.14,-8.582 12.02,-15.453 13.72,-12.015 3.43,1.711 1.73,10.304 -3.42,18.886 m 13.72,46.332 c -5.14,5.149 -10.3,6.864 -12,5.149 -1.72,-3.434 1.7,-8.586 6.86,-12.016 5.14,-5.152 10.29,-6.859 12.01,-3.441 1.72,1.726 0,6.871 -6.87,10.308 m -163.01,538.84 1.7,-3.426 c 0,0 84.09,6.852 85.81,3.426 0,-5.144 32.61,-147.59 25.74,-149.3 -5.15,-1.715 -70.36,-44.621 -65.21,-53.195 5.14,-8.586 12.01,1.707 22.32,5.145 10.28,3.429 60.05,3.429 60.05,-1.715 0,-5.157 13.72,-106.4 10.29,-108.11 -5.15,0 -15.43,-12.011 -10.29,-22.308 3.44,-10.297 20.6,-13.731 22.3,-24.035 0,-8.575 -8.58,-42.895 -8.58,-51.465 0,-8.578 24.03,-58.356 34.32,-85.813 8.59,-27.449 17.18,-66.929 10.31,-68.64 -5.15,-1.727 -30.89,-1.727 -32.62,-6.867 -1.7,-5.145 12.02,-30.883 18.89,-34.321 6.85,-5.148 17.16,-20.59 17.16,-37.75 0,-18.875 8.58,-92.668 -3.43,-92.668 -12.02,0 -58.35,-1.7187 -60.06,3.4258 -3.43,5.16 -12.01,24.035 -15.45,24.035 -3.43,0 1.71,-17.164 0,-20.601 -1.73,-3.434 -10.3,-1.707 -12.01,3.437 0,3.434 -22.3,51.481 -32.61,58.344 -10.3,8.586 -15.45,8.586 -12.02,1.719 1.72,-5.145 37.75,-58.356 32.61,-65.207 -5.14,-6.8715 -13.72,-1.727 -13.72,-1.727 0,0 1.71,12.016 -5.14,20.602 -5.16,10.289 -34.34,41.187 -37.77,48.039 -3.42,6.871 -8.58,25.746 -3.42,30.902 5.14,5.141 6.85,8.574 6.85,12.012 0,5.144 -22.3,29.164 3.43,46.328 25.75,17.168 75.51,51.488 72.07,87.519 -1.7,34.313 -10.28,82.371 -10.28,92.668 0,8.578 8.58,17.16 6.86,27.453 -1.72,10.301 -17.17,20.602 -27.46,29.176 -10.28,6.867 -72.06,36.043 -78.94,60.063 -6.87,22.304 0,80.656 3.44,104.68 3.44,22.309 3.44,94.379 1.71,109.83 0,15.438 -10.29,58.344 -6.85,58.344 m 48.04,-398.12 c 0,-17.164 1.72,-29.168 6.87,-29.168 5.14,0 24.03,12.004 22.3,20.582 0,8.586 -27.45,24.035 -29.17,8.586 m -13.73,6.852 c -1.72,-12.008 8.58,-54.903 18.87,-51.473 10.31,1.715 29.19,22.313 30.9,30.887 1.71,6.875 -1.71,22.312 -12.01,27.457 -12.02,3.433 -8.58,3.433 -18.89,5.152 -8.56,1.715 -15.43,-1.719 -18.87,-12.023 m -137.29,70.367 c -17.15,-32.613 -66.91,-113.26 -96.08,-137.28 -29.2,-22.309 -109.84,-75.5 -175.06,-82.371 -63.48,-5.145 -212.78,-6.86 -229.96,-8.586 -17.14,-1.711 -15.43,-8.578 -20.57,-18.875 -5.16,-10.289 -8.58,-90.953 3.43,-99.524 13.73,-6.871 49.77,-18.882 49.77,-13.742 -1.73,5.164 -22.32,27.473 -29.19,37.758 l -5.15,10.301 c 0,0 37.76,39.476 53.21,48.058 15.44,8.567 39.46,12.004 48.05,6.86 8.58,-5.157 42.89,-34.325 48.05,-37.75 3.42,-3.438 84.09,56.625 94.38,58.336 8.57,1.726 15.45,1.726 24.03,-12.008 8.57,-15.438 24.01,-30.891 27.44,-29.18 3.44,1.727 61.8,48.055 63.51,42.914 0,-5.164 32.61,-48.058 37.75,-44.625 3.43,3.438 15.45,12.016 15.45,12.016 0,0 -39.48,46.332 -36.05,54.918 1.71,6.859 94.39,70.351 118.41,113.26 25.75,41.183 36.04,80.652 42.91,80.652 6.85,0 13.72,-20.598 15.44,-51.492 1.72,-29.16 -5.15,-113.25 -30.89,-156.15 -24.04,-41.187 -41.17,-54.925 -41.17,-60.074 1.71,-3.422 61.76,-78.933 58.32,-92.668 -5.14,-12.004 -53.18,-15.437 -84.08,-15.437 -29.17,0 -80.66,-6.856 -106.4,6.867 -25.73,13.734 -56.63,39.469 -63.48,36.043 -8.59,-5.16 -46.33,-36.043 -61.78,-36.043 -15.46,0 -27.45,-3.434 -25.75,-12.012 0,-8.582 24.04,-13.73 32.62,-13.73 8.58,0 439.31,1.7149 439.31,5.1484 0,3.438 -8.58,34.328 -27.47,48.039 -20.59,15.461 -25.74,41.188 -22.3,51.496 5.14,12.004 12.02,6.86 6.85,15.438 -5.14,8.582 -17.14,32.605 3.44,46.332 20.61,13.73 87.51,54.918 75.5,114.98 -10.29,60.067 -8.58,66.934 -5.15,73.797 3.44,6.863 3.44,27.457 -8.57,32.602 -12.02,6.867 -92.66,36.043 -96.1,85.804 -1.71,48.051 8.58,180.19 8.58,190.48 0,10.305 -1.71,68.64 -13.73,58.344 -13.73,-12.016 -22.3,-20.59 -34.3,-15.446 -12.04,3.43 -15.46,10.301 -20.62,8.574 -6.85,-3.414 -10.29,-3.414 -10.29,-8.574 0,-5.144 -1.71,-109.82 -1.71,-154.45 -1.72,-42.887 -5.14,-106.39 -20.6,-139 m -8.58,-171.6 c -3.43,-1.726 -54.9,-48.058 -53.19,-54.918 1.71,-5.144 5.15,-12.015 10.29,-6.871 3.43,5.145 44.62,44.621 46.32,53.203 1.74,8.586 -1.7,13.731 -5.13,10.293 -1.72,-5.144 1.71,-1.707 1.71,-1.707 m 48.05,30.883 c -10.29,-46.324 -37.75,-92.672 -66.92,-120.13 -30.89,-27.453 -75.51,-63.496 -84.08,-63.496 -8.59,-1.707 -22.32,13.742 -29.18,25.746 -6.87,12.004 -12.01,12.004 -22.32,6.863 -10.28,-6.863 -27.44,-8.578 -25.73,5.141 1.72,12.016 34.31,37.762 39.48,36.047 3.43,0 29.16,-27.465 29.16,-37.754 0,-10.297 5.15,-13.73 10.29,-10.297 5.17,3.438 75.51,51.477 96.1,85.809 20.59,32.601 24.03,37.75 24.03,53.191 1.72,17.16 5.16,25.75 -3.44,20.594 -6.86,-3.434 -82.37,-73.785 -84.08,-80.656 -1.72,-8.586 8.58,-18.875 6.87,-25.742 -3.43,-6.864 -5.16,1.714 -17.18,5.14 -11.99,3.438 -22.3,12.016 -20.57,22.324 0,10.293 46.33,42.899 58.33,54.911 12.01,12.007 53.2,56.636 66.94,80.648 13.72,25.746 15.43,30.894 17.16,27.465 1.7,-3.434 5.14,-80.66 3.43,-87.524 -1.73,-6.855 1.71,1.719 1.71,1.719 m -193.92,-159.59 c 3.44,-3.441 30.9,-37.761 39.48,-37.761 8.58,-1.707 34.31,15.445 39.46,18.875 5.16,3.437 13.74,0 17.17,-5.145 3.42,-5.144 12.01,-12.004 5.15,-15.437 -6.87,-1.719 -63.51,-8.582 -94.39,5.144 -30.88,13.731 -25.73,18.875 -22.31,22.309 3.43,3.437 13.73,13.73 15.44,12.015 m -164.72,6.86 c 13.71,8.582 60.05,46.332 65.19,44.621 5.15,-3.434 66.94,-66.93 75.52,-78.934 6.85,-13.734 29.18,-24.023 51.47,-25.75 22.33,0 94.39,0 94.39,6.871 -1.72,8.571 -13.73,24.016 -15.45,29.172 0,6.871 5.15,17.16 10.29,13.719 5.16,-1.703 49.78,-56.633 53.22,-65.199 3.42,-8.582 1.71,-8.582 -1.73,-8.582 -3.43,0 -145.85,-6.867 -161.31,-1.727 -15.45,3.438 -51.47,37.762 -72.07,56.633 -20.59,18.875 -24.02,27.469 -29.18,36.035 -5.15,6.871 -12,3.438 -17.14,-1.707 -5.17,-3.434 -37.78,-22.301 -49.77,-22.301 -10.31,0 -17.18,8.571 -3.43,17.149 m 61.75,-5.145 c -3.41,0 -54.9,-30.89 -54.9,-36.039 1.72,-3.437 10.3,-6.863 17.15,-5.144 6.87,3.433 48.06,25.746 46.34,29.179 0,1.711 -5.15,13.715 -8.59,12.004 m -96.08,-63.496 c 6.86,-3.433 32.6,-22.308 29.17,-22.308 -3.44,0 -39.47,12.007 -46.34,13.726 -6.87,0 12.01,10.289 17.17,8.582 m -84.09,48.059 c 1.73,3.433 18.86,13.722 29.17,6.863 10.3,-8.59 20.6,-12.027 13.75,-17.172 -6.88,-3.422 -30.91,-12.004 -36.05,-6.859 -6.87,3.437 -6.87,15.441 -6.87,17.168 m -1.71,42.894 c -6.87,-5.144 -42.91,-39.461 -42.91,-44.621 -1.71,-6.867 22.3,-41.187 36.04,-46.332 12.01,-5.144 36.03,-5.144 44.62,-3.433 8.58,0 18.87,1.722 18.87,6.863 0,5.148 -5.14,13.738 -11.99,13.738 -6.88,0 -27.47,-6.863 -39.49,1.707 -12.01,8.582 -25.75,20.59 -24.02,27.457 3.43,6.871 37.75,29.168 44.62,24.027 6.85,-3.425 75.5,-70.359 85.79,-77.218 8.6,-6.871 46.35,-12.016 65.21,3.426 20.6,13.738 24.03,17.164 25.76,20.601 0,3.426 -12.03,15.438 -17.18,13.723 -3.44,-3.434 -24.01,-25.746 -36.04,-24.02 -12,0 -48.04,22.309 -61.76,37.75 -12.02,15.442 -46.34,49.766 -63.51,49.766 -17.14,0 -17.14,0 -24.01,-3.434 m 300.3,1518.7 c -1.71,-8.58 -82.37,-434.17 -175.03,-710.46 -94.39,-276.27 -108.11,-356.94 -132.14,-533.69 -22.3,-176.75 -17.16,-211.07 -6.87,-211.07 8.58,0 156.17,-3.429 157.87,10.301 1.71,15.445 1.71,288.28 39.48,447.89 37.76,157.88 138.99,533.71 154.46,634.95 13.7,101.24 44.61,372.38 44.61,410.15 0,37.75 -5.15,46.33 -18.89,32.59 -13.72,-13.73 -61.76,-70.36 -63.49,-80.65 M 763.7,97.2642 c 5.16,22.308 8.594,39.464 5.16,41.184 -3.433,0 -10.304,-17.156 -15.449,-37.75 -6.871,-22.297 -8.578,-41.184 -5.168,-41.184 3.442,0 10.313,15.445 15.457,37.75 m 290.03,104.69 3.41,-73.797 c 0,0 12.02,5.145 48.06,-5.144 36.05,-10.297 65.22,-25.746 87.52,-24.028 22.3,1.7148 44.62,22.309 29.17,29.172 -15.45,6.871 -168.16,82.371 -168.16,73.797 m -87.536,63.484 c -6.871,-5.144 -142.43,-130.41 -133.85,-132.14 10.285,-1.711 32.605,3.429 46.328,-6.856 13.742,-12.019 99.535,-22.308 125.26,0 25.76,20.586 24.04,25.731 25.76,41.18 1.71,17.156 3.42,77.23 -8.58,85.797 -13.74,10.301 -48.062,18.879 -54.926,12.015 m -133.85,159.61 c 0,-8.578 -56.621,-149.31 -66.922,-193.93 -10.313,-44.617 -18.887,-46.332 -5.145,-54.902 12.012,-8.586 24.008,-27.473 32.59,-20.602 8.59,6.871 181.92,144.14 185.34,159.6 3.434,15.441 -17.16,29.164 -22.305,36.023 -5.164,8.598 -17.156,18.887 -41.187,24.043 -24.028,5.141 -82.371,49.766 -82.371,49.766 m 72.066,-25.75 c -18.867,10.301 -34.316,15.445 -34.316,13.73 -1.711,-1.715 12.015,-12.015 30.898,-20.601 18.867,-10.297 34.317,-17.145 34.317,-13.715 1.73,1.711 -12.02,10.289 -30.899,20.586 m 29.192,257.41 c 0,0 63.468,-18.875 65.195,-29.168 1.71,-10.301 -8.582,-108.11 -32.606,-163.03 -22.304,-56.633 -15.453,-65.211 -42.902,-53.196 -27.441,10.301 -70.355,30.879 -82.367,46.332 -12.016,13.723 -5.145,22.301 -22.305,32.606 -18.887,12.004 -39.476,34.32 -42.894,51.484 -3.434,17.149 5.144,56.629 5.144,56.629 0,0 78.938,18.875 113.25,37.75 32.609,17.16 39.481,20.594 39.481,20.594 m 89.225,60.062 c -8.58,-3.429 -58.347,-37.75 -54.909,-42.898 3.43,-5.141 34.309,-13.73 41.179,-6.867 6.88,6.867 22.31,53.191 13.73,49.765 m -238.54,-87.523 c 18.883,5.152 29.188,0 66.938,15.445 37.757,15.45 42.898,18.875 53.187,24.039 10.305,3.418 10.305,-5.164 0,-10.308 -10.289,-5.149 -80.648,-41.184 -101.24,-41.184 -22.301,0 -37.746,6.871 -18.883,12.008 m 30.902,90.949 c 5.141,-1.711 56.614,-37.754 68.629,-39.461 12.032,-1.715 1.727,-10.297 -6.851,-13.73 -10.305,-3.438 -82.375,-29.172 -84.098,-22.313 -1.711,5.164 -1.711,32.606 6.863,39.477 8.586,6.855 8.586,6.855 3.438,15.441 -6.871,8.582 5.148,20.586 12.019,20.586 m 190.48,29.18 c -20.589,3.437 -108.11,-20.602 -120.12,-27.457 -12.016,-6.867 6.871,-10.293 17.156,-17.164 10.289,-5.145 22.305,-15.445 30.903,-8.574 10.285,6.863 92.655,51.484 72.065,53.195 m -169.89,8.578 c 17.157,6.863 135.57,10.297 132.14,5.152 -1.727,-5.152 -85.809,-30.878 -102.97,-29.168 -18.887,1.707 -48.035,18.875 -29.172,24.016 m 85.793,25.75 c 3.434,1.715 109.84,18.867 116.69,15.434 6.87,-3.43 18.88,-10.285 6.87,-17.157 -12.01,-6.859 -123.56,-6.859 -123.56,-3.421 -1.711,5.144 -3.422,5.144 0,5.144 m -360.36,554.29 v -3.44 c 0,0 -82.371,96.1 -87.535,106.4 -6.852,12.02 -15.449,41.19 -27.442,65.2 -10.308,24.03 -6.871,29.19 -12.015,24.03 -5.145,-3.42 -37.75,-94.38 -25.742,-164.73 13.726,-72.07 39.464,-175.04 90.937,-229.95 51.492,-56.64 66.941,-58.35 58.363,-61.78 -10.308,-3.44 -54.929,10.3 -89.242,56.62 -36.043,44.61 -53.203,70.36 -58.348,66.93 -3.437,-3.43 56.637,-82.37 75.524,-97.82 18.863,-15.43 75.5,-51.48 99.508,-54.92 24.031,-5.14 77.234,-24.02 96.117,-30.89 18.867,-5.14 120.12,-56.623 116.69,-63.483 -5.156,-6.871 -30.894,1.715 -37.746,5.156 -5.168,1.704 -8.597,3.418 -8.597,-5.156 0,-6.871 17.175,-51.476 27.461,-53.203 10.289,0 89.242,-8.578 120.12,-5.144 30.902,3.437 104.67,5.144 106.4,-6.872 3.43,-12.003 -78.937,-42.894 -101.26,-44.609 -24.012,0 -41.164,6.859 -36.027,8.574 5.144,1.719 96.097,18.879 101.24,25.742 3.434,6.872 0,6.872 -5.141,6.872 -5.16,-1.719 -133.86,1.714 -137.28,-5.145 -5.144,-6.871 -36.043,-77.234 -24.031,-85.809 13.746,-6.859 149.3,17.168 180.2,17.168 29.17,1.707 60.05,3.414 66.92,12.012 8.58,8.57 13.72,41.18 12.02,53.192 -1.73,13.722 -12.02,24.019 -8.58,30.89 1.71,6.86 18.86,68.629 18.86,84.082 0,17.163 0,24.033 -18.86,32.603 -18.88,6.87 -104.7,90.96 -221.38,151.02 -118.41,60.06 -226.51,108.11 -260.84,130.42 -32.605,22.31 -87.516,68.64 -94.387,78.94 -8.578,10.29 -3.437,17.16 0,15.45 3.43,-3.44 80.664,-70.37 82.371,-65.22 1.727,6.87 3.438,3.43 1.727,6.87 m 178.47,315.75 c 13.726,0 94.371,-13.72 113.25,-12.01 18.867,3.44 13.726,3.44 10.312,-6.87 -1.734,-8.58 -32.629,-25.73 -60.078,-17.15 -27.445,10.3 -37.746,-3.44 -46.332,-15.44 -8.598,-10.3 -30.895,49.76 -17.156,51.47 m -10.305,53.19 c 13.723,0 24.031,8.59 30.902,12.03 6.852,5.15 20.59,-3.44 6.852,-13.74 -13.723,-10.3 -39.461,-27.45 -42.899,-20.59 -1.71,5.15 -10.3,22.3 5.145,22.3 m -13.719,-257.4 c -6.871,15.44 -15.453,25.74 -18.886,24.02 -1.711,-1.71 1.726,-13.72 8.578,-29.17 6.871,-13.73 15.449,-24.02 18.882,-22.3 1.711,1.7 -1.71,13.72 -8.574,27.45 m -80.664,327.77 c -1.715,1.72 -128.71,-1.71 -128.71,-5.15 0,-3.43 -1.711,-12 -8.578,-18.87 -6.852,-6.87 -10.293,-10.3 -6.852,-13.74 3.418,-3.43 8.559,0 5.145,-8.57 -1.727,-6.86 0,-6.86 -5.145,-5.16 -5.144,1.73 -8.585,-1.7 -12.015,-8.58 -1.727,-8.58 0,-20.58 5.144,-25.74 5.145,-3.43 -3.441,-6.86 -8.582,-6.86 -3.433,0 -8.578,0 -8.578,-6.86 0,-6.87 8.578,-18.87 3.434,-20.6 -5.16,-1.71 -8.594,1.73 -10.305,-6.86 -1.726,-8.58 -10.285,-32.6 -5.144,-36.04 6.855,-3.43 12.015,-1.72 6.855,-6.87 -5.148,-5.13 -11.996,1.73 -15.43,-13.73 -3.437,-15.43 -15.453,-41.18 8.575,-70.34 24.031,-27.47 80.652,-116.7 92.66,-133.86 12.015,-15.44 54.929,-84.08 72.09,-89.25 15.433,-3.42 116.69,-61.77 116.69,-56.62 1.711,3.43 -80.664,92.67 -113.27,121.85 -30.883,27.45 -102.95,89.22 -104.67,102.95 -3.438,13.74 -3.438,15.46 3.433,8.59 5.161,-5.15 114.98,-111.54 135.58,-125.27 20.589,-15.45 82.371,-80.65 97.8,-102.97 15.453,-20.6 29.176,-32.61 30.903,-30.88 1.707,3.42 -41.184,113.25 -66.922,164.73 -27.465,51.49 -41.192,73.8 -36.047,73.8 5.144,0 46.332,-63.5 73.793,-126.99 27.449,-63.5 51.48,-125.27 54.91,-127 1.727,0 5.168,1.73 6.871,5.15 1.711,3.44 -3.43,73.8 -10.301,85.82 -8.586,13.71 -13.726,29.16 -12.019,39.46 3.433,12 22.32,66.92 25.758,84.08 3.418,15.46 10.289,54.92 3.418,63.5 -8.559,8.58 -51.477,25.73 -77.235,97.82 -27.441,72.07 -29.148,73.79 -29.148,73.79 0,0 -18.887,-1.72 -22.32,6.87 -1.711,8.57 0,8.57 6.871,13.71 6.851,5.16 6.851,3.43 8.578,6.88 0,3.43 -6.871,17.16 -6.871,17.16 0,0 -42.895,-5.16 -48.039,-8.59 -3.434,-3.43 -12.016,-1.7 -10.305,6.86 0,6.87 17.16,24.04 8.578,20.6 -10.289,-1.72 -73.797,-17.16 -77.215,-15.43 -5.14,3.42 -8.574,15.43 1.715,20.58 10.289,5.14 56.633,56.63 54.91,56.63 m -152.72,1.72 c -18.883,0 -80.661,18.88 -73.793,27.46 6.855,8.58 54.91,3.44 58.347,12 3.434,10.3 -42.914,25.74 -56.637,36.04 -13.718,10.29 1.708,17.16 27.465,25.75 25.735,8.58 25.735,18.88 5.145,18.88 -22.32,0 -49.766,3.41 -53.199,-10.3 -3.438,-13.74 -5.145,-27.45 -13.743,-70.37 -6.855,-44.61 -63.468,-238.53 -92.644,-298.58 -29.188,-60.07 -41.188,-125.28 -41.188,-168.18 0,-42.9 10.289,-489.08 3.418,-552.58 -5.144,-61.77 -15.429,-171.6 -8.562,-228.22 5.144,-56.645 15.433,-54.93 17.144,-44.625 0,8.586 10.305,72.074 41.184,73.781 30.898,0 39.477,-17.148 51.496,-10.289 13.719,6.863 37.75,32.602 37.75,49.766 1.707,18.875 -6.871,-6.863 -6.871,207.64 0,214.51 -12,473.64 8.578,564.59 18.883,90.94 49.766,157.88 49.766,171.61 0,12.01 1.726,15.44 -3.434,17.15 -3.418,1.73 -6.855,10.3 0,12.01 6.871,1.72 13.742,1.72 15.449,17.17 0,15.45 5.141,30.89 1.727,32.61 -3.434,0 -6.871,0 -6.871,3.43 0,5.14 1.726,5.14 6.871,5.14 5.141,0 3.414,0 6.848,5.14 3.437,5.16 6.871,10.32 1.711,13.74 -5.145,3.44 -6.852,8.58 -5.145,8.58 1.727,0 8.582,-3.44 10.305,1.73 3.437,6.84 12.015,30.88 10.289,32.59 -1.707,1.72 -1.707,8.58 3.437,10.3 5.157,3.43 17.16,24.02 18.887,27.46 0,5.15 3.414,8.58 -13.73,8.58 m 746.49,-22.31 c -6.87,-13.73 -5.14,-17.17 1.71,-20.6 6.87,-1.71 176.74,-89.23 178.47,-85.8 1.71,1.72 10.31,12.02 1.71,17.16 8.6,-5.14 -175.03,102.97 -181.89,89.24 m 36.05,44.61 c 1.7,-3.42 8.57,-42.9 18.86,-41.17 12.01,0 48.04,8.57 53.2,10.29 5.14,0 8.58,-10.29 12.02,-17.16 3.43,-8.59 18.86,-29.17 32.61,-24.03 15.42,5.15 36.02,17.16 44.6,20.59 6.86,3.44 8.6,-5.15 8.6,-8.58 0,-3.42 -13.74,-56.63 -22.33,-54.9 -6.87,0 -166.45,73.79 -168.18,78.93 -3.43,5.15 20.62,39.48 20.62,36.03 m 197.33,12.02 c -3.43,-1.72 -56.64,-48.05 -73.79,-44.62 -15.45,3.43 -20.6,8.58 -20.6,-3.43 0,-10.3 -1.7,-29.18 12.02,-25.75 13.74,5.15 63.48,34.33 73.79,48.05 10.31,15.45 12.02,27.47 8.58,25.75 m -46.33,32.6 c -8.6,-1.72 3.44,-32.6 -13.74,-42.9 -18.86,-8.58 -10.29,-15.45 -6.86,-15.45 5.15,0 36.05,12.02 36.05,24.03 0,12.01 -5.16,36.05 -15.45,34.32 m -94.39,3.43 c -6.85,0 -20.59,-3.43 -20.59,-8.58 0,-6.87 -3.44,-32.6 8.59,-30.87 12,1.7 24.02,1.7 24.02,10.28 0,6.86 -3.44,29.17 -12.02,29.17 m 17.16,44.62 c -3.43,-3.43 -10.29,-32.59 1.73,-29.18 12.01,5.16 24.01,6.87 24.01,13.73 1.73,6.88 3.43,17.18 -6.86,20.61 -10.29,3.41 -15.45,0 -18.88,-5.16 m -22.3,0 -24.03,-37.75 c 0,0 22.32,-3.43 27.46,6.87 5.15,12 10.29,41.18 -3.43,30.88 m -32.61,-68.64 c 6.86,-6.87 12.01,-29.18 32.61,-27.45 22.3,1.71 65.22,27.45 65.22,32.59 0,3.43 15.42,-1.71 15.42,-8.57 -1.71,-5.15 -90.92,-54.92 -101.24,-53.2 -10.3,1.72 -18.88,39.47 -20.59,48.05 -1.71,8.58 1.71,17.15 8.58,8.58 m 60.07,25.75 c 3.43,5.14 96.1,44.62 102.95,29.17 8.58,-15.46 13.74,-54.92 1.71,-48.05 -11.99,5.14 -15.44,13.72 -15.44,18.88 0,5.14 3.45,10.3 -8.57,10.3 -12.02,0 -65.21,-22.32 -68.63,-29.18 -1.73,-5.16 -15.45,13.72 -12.02,18.88 m -12.03,58.33 c 1.73,3.44 24.05,42.91 42.91,25.75 18.89,-15.45 15.45,-32.62 10.31,-36.03 -3.43,-3.43 -10.31,-1.73 -15.47,5.14 -5.14,5.14 -17.14,12 -25.72,5.14 -10.3,-6.87 -12.03,-1.7 -12.03,0 m 60.07,39.48 c 0,-10.3 20.59,-60.06 29.18,-54.92 10.3,5.16 36.04,3.43 39.47,-5.14 3.44,-10.31 8.58,-54.93 17.16,-51.49 6.85,3.43 22.3,44.62 22.3,53.2 0,6.86 -106.38,66.93 -108.11,58.35 m -32.6,3.43 c 1.73,5.15 10.28,8.58 18.88,6.85 6.87,-3.41 10.29,-5.14 1.71,-6.85 -6.87,0 -20.59,-5.16 -20.59,0 m 25.75,41.18 c -3.43,-3.43 -15.47,-17.15 -10.31,-20.59 5.15,-3.43 132.14,-73.78 135.58,-68.64 3.43,5.14 13.72,22.31 5.14,25.75 -6.87,3.42 -125.27,66.91 -130.41,63.48 m -211.09,-475.35 c 1.72,34.32 1.72,63.5 0,63.5 -1.72,0 -5.15,-29.18 -6.86,-63.5 -1.72,-34.31 -1.72,-61.77 0,-61.77 1.71,-1.73 5.14,27.46 6.86,61.77 m 97.82,29.17 c 1.72,-6.86 10.28,-49.76 -15.45,-92.67 -27.45,-44.6 -54.91,-82.37 -49.77,-78.93 6.88,1.71 85.81,78.93 80.67,123.55 -5.17,46.34 -17.16,53.2 -15.45,48.05 m -298.6,312.33 c -1.707,-10.3 -29.168,-274.57 1.734,-377.53 29.148,-104.69 73.778,-175.05 92.658,-176.75 18.87,-3.44 48.04,15.44 56.62,22.31 6.87,6.85 8.59,12 17.18,10.29 10.28,0 130.41,25.73 171.6,90.96 39.47,63.48 85.8,204.2 82.36,209.35 -3.43,5.15 -175.03,87.51 -175.03,87.51 0,0 -32.6,-78.93 -30.9,-84.08 3.44,-3.43 46.34,-94.39 32.61,-159.59 -13.72,-63.5 -20.59,-65.22 -22.32,-58.36 -1.71,8.6 17.18,65.22 5.16,123.56 -12.01,56.64 -15.45,51.49 -15.45,41.19 0,-10.29 -5.14,-147.58 -18.86,-156.15 -13.74,-8.6 -13.74,5.14 -13.74,13.72 0,10.3 10.3,94.38 3.43,96.1 -6.87,0 -41.19,-92.67 -49.76,-92.67 -8.59,0 -6.85,6.87 -3.42,15.44 3.42,10.3 116.69,338.07 113.25,343.22 -1.72,3.43 -15.45,12.01 -24.02,5.15 -8.58,-5.15 -5.15,-12.02 -12.02,-8.57 -5.14,5.15 -18.88,15.43 -27.46,8.57 -10.29,-8.57 -10.29,-13.73 -13.73,-10.3 -3.43,3.44 -15.45,25.74 -25.73,13.73 -8.58,-10.29 -13.72,-3.43 -15.46,1.71 -3.43,5.15 -24.02,24.04 -30.88,17.17 -5.14,-8.59 -13.74,-18.88 -15.44,-8.59 0,10.3 1.7,12.02 -5.15,13.73 -5.16,3.43 -20.59,12.02 -24.03,5.15 -3.43,-6.86 -5.14,3.43 -10.28,5.16 -5.16,0 -8.6,1.71 -12.04,-5.16 -1.71,-8.58 -5.14,0 -8.574,5.16 -5.148,6.86 -22.308,17.15 -22.308,8.57 m 317.47,561.15 c -13.73,-15.44 -126.98,-44.62 -147.58,-54.91 -18.88,-12.02 -30.88,-20.59 -36.02,-17.16 -3.43,3.43 -10.31,3.43 3.42,13.73 12.01,8.58 30.9,37.76 41.18,46.33 12.02,8.58 12.02,13.74 -3.43,10.3 -17.16,-5.16 -37.75,-25.74 -58.35,-53.2 -20.59,-27.46 -70.36,-118.41 -78.93,-169.9 -6.88,-53.19 -12.02,-73.78 -10.31,-77.22 3.43,-1.71 20.61,18.89 24.05,27.46 5.14,10.3 18.86,66.93 34.31,94.39 13.72,29.17 22.3,36.04 20.57,24.03 -1.7,-13.74 -75.5,-228.25 -72.06,-240.25 5.16,-12.01 6.87,-22.32 1.72,-27.47 -5.16,-5.14 -39.476,-89.22 -37.749,-108.1 1.707,-18.88 6.859,-20.6 12.019,-20.6 6.848,1.72 13.703,13.73 17.14,5.15 1.72,-8.59 0,-10.29 12.03,-12 13.72,-1.73 20.58,-1.73 20.58,3.41 0,5.16 5.14,10.3 6.87,3.44 0,-6.85 -10.29,-6.85 0,-12.01 12.01,-3.43 22.32,-12.02 24.02,-6.87 3.44,5.15 13.73,12.03 13.73,5.15 1.7,-5.15 0,-12 6.87,-15.44 6.87,-1.72 17.15,-8.59 17.15,-3.43 0,5.14 5.17,8.57 10.31,1.71 5.15,-6.87 13.72,-8.58 17.16,-8.58 3.43,1.71 -1.73,10.3 8.58,5.14 10.29,-3.43 10.29,-6.86 20.58,-8.57 10.3,0 18.88,0 18.88,3.43 0,5.14 3.44,12.01 8.6,5.14 5.14,-8.57 8.56,-10.29 15.43,-10.29 8.58,1.72 15.45,1.72 13.72,6.86 -3.43,6.87 5.16,10.3 8.6,5.16 3.43,-5.16 8.58,-6.87 10.29,-1.73 0,6.87 51.47,127 49.76,130.43 0,5.15 -1.73,3.44 -12.01,-8.57 -8.58,-13.74 -51.48,-48.05 -60.07,-42.91 -10.29,3.42 -6.86,8.57 3.43,13.73 8.6,5.15 78.94,97.82 113.27,139.01 32.62,42.89 75.51,120.12 60.06,202.49 -15.45,80.65 -30.89,116.69 -41.18,133.85 -10.3,17.16 -8.59,22.31 -13.73,8.58 -3.44,-12.02 -37.76,-34.33 -39.48,-29.17 0,5.15 10.3,53.2 -3.43,39.46 m -334.62,-269.41 c -5.164,25.73 -12.015,46.32 -13.722,46.32 -1.727,-1.72 1.707,-22.3 6.851,-48.05 5.145,-25.74 12.016,-46.32 13.723,-46.32 1.726,1.7 0,22.31 -6.852,48.05 m -1.726,195.63 c -5.145,-20.61 -29.172,-96.11 -24.008,-159.6 5.141,-63.5 41.18,-132.13 49.758,-130.42 6.859,1.72 5.152,49.77 5.152,63.49 0,15.44 25.739,133.86 49.769,180.19 24.02,46.34 66.91,99.54 66.91,104.68 0,6.86 -15.44,5.15 -44.62,-5.14 -29.16,-8.59 -99.528,-32.62 -102.96,-53.2 m -37.754,-30.9 c -10.285,-12.01 -54.91,-66.93 -56.617,-108.1 0,-41.19 1.707,-89.25 22.304,-130.43 20.59,-41.19 24.028,-51.49 22.301,-68.64 -3.418,-17.16 -25.738,-42.91 -17.156,-42.91 10.301,0 42.914,3.44 54.926,6.87 11.996,3.44 18.867,8.58 25.738,6.86 6.871,0 8.574,0 8.574,5.15 1.715,3.43 8.586,20.6 6.875,25.74 -1.726,5.15 -48.058,72.07 -56.637,123.56 -8.582,51.49 -15.449,135.57 -15.449,159.59 0,24.03 5.141,22.31 5.141,22.31 m 574.88,-214.5 c 0,0 -34.31,5.15 -44.62,-10.29 -8.58,-13.74 -53.18,-77.23 -46.33,-82.38 6.85,-5.15 120.13,-70.36 121.85,-65.22 1.71,5.16 18.87,36.04 27.45,36.04 8.6,0 5.16,-5.14 5.16,-15.44 -1.73,-10.3 1.71,-24.03 25.73,-27.45 24.04,-1.72 75.51,1.71 92.67,12.01 17.16,8.58 25.74,17.15 34.31,10.28 6.87,-8.57 44.63,-15.44 63.51,-17.15 17.15,-3.43 29.17,-3.43 25.74,-12 -5.15,-8.6 -58.35,-20.61 -58.35,-30.89 0,-10.3 -1.73,-77.23 -8.58,-68.66 -6.87,6.87 -3.43,39.48 -6.87,49.78 -1.71,8.58 -32.6,17.15 -39.46,29.16 -6.87,13.74 -12.01,18.88 -12.01,8.59 0,-8.59 -1.73,-42.91 6.87,-56.62 6.85,-13.73 34.31,-51.48 42.89,-53.21 6.86,-1.71 37.76,20.59 80.65,82.37 42.91,61.78 48.06,60.06 42.91,72.07 -5.16,13.74 -5.16,34.32 -15.44,29.18 -10.31,-3.44 -46.36,-3.44 -65.22,15.44 -20.6,18.87 -12.01,30.9 -18.88,27.45 -8.59,-5.14 -30.89,-48.04 -60.06,-36.03 -29.17,12.01 -29.17,32.61 -46.33,30.89 -17.17,-3.44 -34.31,3.43 -41.19,10.29 -6.87,6.87 -8.57,17.17 -17.16,5.15 -8.59,-12.01 -36.04,-27.44 -60.06,-6.85 -25.74,20.59 -29.18,42.89 -29.18,49.76 0,8.58 1.71,15.45 0,13.73 m 295.16,-49.77 c 1.72,1.72 25.76,3.44 34.32,-6.87 6.87,-12.01 10.3,-13.72 3.43,-13.72 -6.85,0 -22.3,10.28 -30.88,12.01 -8.58,1.71 -10.31,8.58 -6.87,8.58 m 10.31,49.77 c -3.44,-5.15 -32.61,-30.9 -30.89,-56.64 1.71,-25.73 10.29,-32.59 22.3,-34.32 12.02,-1.71 32.6,-1.71 36.03,0 3.44,3.44 8.6,6.88 -1.71,6.88 -8.58,1.71 -13.72,0 -17.16,5.14 -3.43,5.15 -5.14,6.86 -15.44,6.86 -10.31,0 -18.87,8.59 -15.45,17.16 3.43,10.3 12.01,20.59 20.61,20.59 8.58,-1.7 36.02,-10.29 37.75,-8.57 1.71,3.43 5.14,13.73 0,20.59 -5.16,5.15 -24.03,17.16 -29.17,18.87 -5.17,1.72 -6.87,3.44 -6.87,3.44 m -127,-37.76 c -6.87,-1.71 -22.3,-13.72 -18.88,-18.88 1.72,-6.85 13.74,-27.44 17.17,-25.73 5.15,3.43 24.02,13.72 22.31,24.02 -1.72,8.58 -15.44,24.02 -20.6,20.59 m -48.05,37.76 c -13.73,-5.15 -29.16,-17.16 -24.02,-29.17 5.15,-13.73 13.73,-25.75 20.59,-24.04 6.86,3.44 24.03,24.04 24.03,30.9 0,8.58 -6.87,27.46 -20.6,22.31 m -101.24,-34.33 c 0,12.02 12.01,34.33 25.73,32.61 13.74,-3.43 20.6,-8.57 20.6,-18.88 1.73,-10.3 -3.42,-37.75 -10.29,-37.75 -5.14,0 -37.76,13.73 -36.04,24.02 m 233.4,73.8 c -17.19,-6.87 -77.24,-53.2 -72.09,-61.78 5.14,-6.86 27.46,-20.59 24.03,-34.33 -3.44,-13.72 -18.89,-27.44 -12.02,-27.44 5.15,0 70.36,58.34 72.08,66.92 1.71,8.58 15.44,18.88 20.58,22.31 5.16,3.44 -15.43,39.46 -32.58,34.32 m -65.23,56.62 c -8.57,-1.72 -92.65,-84.08 -80.66,-87.5 10.3,-3.44 20.59,6.85 27.46,0 6.87,-6.87 15.44,-18.88 13.73,-32.62 -1.71,-13.73 -3.44,-18.87 -1.71,-13.73 1.71,3.43 85.79,89.24 92.66,90.95 6.87,1.72 0,12.02 -12.01,22.31 -12,10.3 -30.88,24.03 -39.47,20.59 m -85.8,27.46 c -10.29,-12.01 -92.66,-114.96 -96.1,-128.7 -3.43,-13.74 -5.14,-22.31 1.71,-15.45 6.87,5.14 24.03,37.75 34.33,37.75 10.29,0 30.88,-5.14 32.59,-18.87 0,-15.44 -5.14,-48.05 0,-46.33 5.16,1.72 12.02,0 8.58,10.29 -3.42,12.02 -5.13,24.03 5.17,39.48 10.3,15.43 63.48,82.37 66.92,89.22 1.71,6.87 -10.31,29.18 -24.03,34.34 -12.02,3.42 -20.59,8.57 -29.17,-1.73 m 362.1,123.56 c -5.17,-5.14 -12.02,-29.18 -10.3,-61.77 3.43,-30.9 -6.88,-60.06 -5.15,-78.94 3.43,-20.6 17.15,-82.37 22.3,-73.8 3.44,8.58 32.61,109.82 15.45,152.74 -17.16,42.89 -17.16,66.91 -22.3,61.77 m -284.87,-22.32 c -8.58,39.48 -15.45,70.38 -18.89,70.38 -1.7,0 1.71,-32.61 8.58,-72.08 6.87,-39.48 15.45,-72.07 18.88,-70.36 1.72,0 -1.72,32.61 -8.57,72.06 m -113.27,418.72 c 25.75,-6.85 303.75,-58.33 293.44,-70.34 -10.28,-12.01 -118.41,-77.24 -142.42,-156.17 -24.03,-78.94 -32.61,-108.11 -27.46,-133.85 6.87,-27.46 13.72,-36.04 15.45,-27.46 1.7,8.58 -5.16,68.64 5.14,94.37 10.3,25.75 10.3,27.48 17.16,22.32 8.57,-5.14 48.05,-13.72 80.66,6.86 32.61,18.88 48.04,32.61 46.33,22.32 0,-10.3 -13.72,-22.32 -12.02,-41.19 1.73,-18.88 5.17,-15.45 0,-27.45 -5.14,-12.01 -39.45,-77.23 -48.03,-72.08 -8.6,6.86 -6.88,30.89 -3.44,53.2 3.44,24.02 12.02,49.77 12.02,49.77 0,0 -12.02,0 -13.74,-17.16 -3.44,-17.17 -18.87,-63.5 -15.45,-85.81 5.14,-20.59 12.01,-25.74 5.14,-39.47 -6.85,-12.02 -27.44,-58.34 -25.71,-89.24 3.43,-32.6 8.57,-54.9 13.71,-46.33 3.44,8.57 1.71,39.48 5.15,65.22 1.71,27.45 22.32,84.08 48.04,116.68 25.75,32.61 20.61,46.34 30.9,48.05 10.29,3.43 13.72,-1.71 20.59,-5.15 6.87,-5.15 17.16,-8.57 22.3,-25.73 3.43,-17.17 1.73,-101.26 -10.29,-127 -12.01,-25.74 -20.59,-49.77 -22.31,-65.2 -1.72,-15.44 -6.86,-60.07 -6.86,-75.52 1.71,-15.43 10.29,-22.3 12.02,-18.87 1.71,5.14 0,29.18 3.43,44.62 1.71,17.16 17.16,63.5 34.32,89.23 15.45,24.03 24.03,41.18 24.03,24.03 0,-17.16 18.86,-135.57 30.87,-176.76 12.02,-41.19 51.5,-240.25 18.89,-327.76 -30.9,-85.81 -48.06,-118.42 -60.07,-128.7 -12.01,-10.31 -24.03,-3.44 -22.3,-17.18 0,-15.43 -12.02,-65.2 -22.3,-96.09 -10.31,-29.17 -25.74,-24.03 -22.32,-15.45 3.43,6.86 8.57,36.04 12.01,49.77 5.15,15.45 8.58,37.76 -1.72,29.17 -10.29,-10.29 -85.8,-101.25 -90.94,-128.7 -6.87,-27.46 -12.01,-51.48 -6.87,-73.8 5.14,-22.29 -3.44,-22.29 -12.01,-12 -8.59,8.58 -37.76,53.2 -30.89,132.13 8.58,77.23 56.62,156.16 78.94,211.08 22.3,56.64 44.62,94.39 46.33,111.55 1.73,15.43 -8.58,24.02 -12.01,17.16 -1.71,-6.87 -34.32,-66.93 -46.34,-72.07 -13.73,-3.44 -13.73,10.29 -5.16,18.87 8.6,8.57 24.05,39.46 25.76,51.47 0,12.03 1.71,15.45 8.58,27.47 5.14,12.01 58.35,85.79 56.64,102.96 0,18.87 -15.45,41.18 -15.45,63.5 0,24.01 12.01,41.19 6.85,48.05 -5.15,8.57 -25.74,44.61 -42.9,49.76 -18.86,3.44 -46.33,44.62 -53.2,53.2 -8.58,8.58 -48.04,56.63 -68.64,48.04 -20.58,-8.57 -20.58,-10.29 -29.16,-3.41 -6.87,8.56 -13.74,6.86 -18.89,48.04 -6.87,39.47 -12.01,90.95 -12.01,116.69 -1.71,25.74 5.14,39.47 -1.71,36.03 -6.87,-1.71 -17.17,-53.2 -24.03,-85.8 -6.87,-32.59 0,-65.21 -8.57,-73.78 -8.59,-8.58 -42.9,-36.05 -44.63,-41.18 0,-5.16 -10.28,-6.88 -6.85,5.13 3.44,12.01 5.14,108.12 18.86,114.99 13.73,5.14 46.33,51.47 49.77,73.77 5.14,24.04 8.58,32.61 3.44,32.61 -6.88,0 -6.88,-6.86 -22.3,-13.73 -15.45,-8.57 -8.58,12.01 0,20.6 6.85,6.87 13.71,51.49 17.14,72.08 5.16,20.58 6.86,37.75 3.43,29.17 -5.15,-8.59 -27.45,-30.89 -32.59,-39.47 -6.87,-8.58 -10.3,-10.29 -12.02,0 -1.71,10.3 -3.43,10.3 -12,24.03 -6.88,15.44 5.13,44.6 5.13,70.35 0,25.74 -5.13,42.9 0,53.21 5.16,12.01 0,18.88 -5.13,12.01 -5.15,-6.86 -18.89,-30.89 -25.75,-22.32 -6.87,10.31 -3.43,44.62 -12.02,60.07 -6.86,15.44 10.3,37.75 36.04,32.59 m 427.29,-151 c -6.85,1.71 -32.59,-6.87 -32.59,-13.73 -1.73,-6.86 1.71,-29.17 22.3,-30.9 18.89,-1.7 36.05,-5.13 36.05,0 -1.73,5.16 -15.45,6.87 -18.89,24.04 -3.43,15.44 -6.87,20.59 -6.87,20.59 m -238.52,-61.79 c -5.15,-3.43 -37.75,-41.18 -17.16,-46.32 20.6,-3.43 78.94,12.01 97.81,24.03 18.88,13.72 49.78,13.72 65.21,5.14 13.72,-10.29 44.62,-30.89 41.19,-39.47 -5.14,-10.29 -6.87,-8.58 -12.02,-3.43 -5.14,5.14 -36.04,42.9 -53.2,25.74 -15.44,-15.44 -32.59,-39.47 -10.28,-51.49 24.02,-12 108.11,-54.91 128.7,-48.05 18.88,6.87 37.75,25.75 27.45,36.05 -10.29,10.28 -32.6,17.14 -46.33,48.05 -12,30.88 -25.74,75.51 -27.45,82.36 -3.44,6.87 -3.44,6.87 -8.6,3.43 -6.85,-3.43 -65.19,-27.45 -84.08,-37.75 -17.16,-12.01 -32.61,-20.58 -51.48,-18.88 -18.88,1.72 -30.89,6.87 -20.59,6.87 10.31,1.72 37.75,5.15 36.03,6.87 0,3.42 -60.06,10.29 -65.2,6.85 m 0,18.89 c 3.44,5.14 32.6,39.46 36.04,34.32 3.44,-5.15 18.87,-22.31 30.88,-29.18 13.73,-5.14 27.47,-10.3 20.59,-15.44 -6.86,-3.43 -68.64,0 -77.21,3.44 -8.57,3.43 -13.73,3.43 -10.3,6.86 m 46.33,51.47 c 5.16,8.59 30.9,25.75 44.62,20.6 13.72,-3.43 54.91,-15.44 75.51,-15.44 22.3,0 27.46,6.86 25.73,0 0,-8.57 -25.73,-41.19 -51.47,-37.76 -27.46,1.72 -72.09,22.32 -85.81,24.03 -13.72,0 -13.72,6.86 -6.85,10.29 8.58,5.15 -1.73,-1.72 -1.73,-1.72 m -231.67,187.06 c 1.71,5.16 60.07,78.94 120.13,85.8 60.06,5.14 151.02,-3.43 178.47,-20.6 27.46,-17.15 70.35,-70.35 68.65,-80.64 -1.73,-10.3 -27.47,-68.65 -46.34,-68.65 -17.15,1.71 -320.91,72.07 -322.61,75.51 0,5.14 0,3.43 1.7,8.58 m 319.19,-114.97 c 3.43,-1.72 121.85,-25.75 121.85,-32.62 0,-6.86 -13.74,-15.44 -27.47,-24.01 -12.01,-8.59 -13.72,-8.59 -13.72,-5.16 -1.71,5.16 3.43,29.17 1.71,34.32 -3.42,3.43 -5.15,-1.71 -10.29,-8.58 -5.16,-5.14 -20.61,-17.17 -56.63,-15.44 -36.04,0 -72.07,10.3 -66.93,12.01 3.44,3.43 48.06,41.19 51.48,39.48 m 61.78,75.5 -1.71,-1.72 c 0,-6.87 -13.74,-34.32 -22.3,-41.19 -8.6,-6.85 -1.73,-10.29 8.56,-12.01 10.3,0 58.34,-17.16 56.64,-12.01 -1.72,6.87 -29.18,73.8 -41.19,66.93 m 27.46,17.16 c -15.45,20.6 -29.17,36.04 -34.33,32.61 -3.44,-3.43 5.16,-22.32 20.61,-42.9 15.43,-22.32 30.88,-36.04 34.32,-34.33 3.43,3.42 -5.17,22.3 -20.6,44.62 m -168.18,133.85 c -39.46,-1.71 -75.5,15.45 -130.41,-5.14 -54.93,-20.6 -113.27,-56.64 -127,-82.37 -15.45,-27.47 -15.45,-36.05 -12.01,-41.19 3.43,-5.15 -10.3,-24.03 -17.16,-20.6 -6.85,1.73 -29.17,49.77 -41.18,77.23 -13.73,27.46 -32.62,70.36 -39.49,58.34 -6.84,-12.01 10.31,-97.81 0,-94.38 -8.55,3.44 -42.89,41.19 -56.61,48.06 -15.45,8.57 -17.18,5.13 -15.45,-5.16 1.71,-8.58 27.46,-51.48 17.16,-41.17 -10.29,8.57 -82.35,39.46 -159.59,36.02 -77.23,-1.71 -80.66,12.02 -96.1,18.88 -13.74,6.87 -20.59,8.59 -17.17,-3.44 1.73,-10.29 25.76,-42.89 37.75,-66.92 12.02,-24.02 39.48,-25.73 29.19,-32.6 -10.31,-5.16 -32.61,-6.87 -66.94,-1.73 -34.32,5.16 -58.35,10.31 -68.64,18.89 -10.3,8.58 -12,12.01 -12,5.15 0,-6.87 17.15,-48.05 22.29,-53.2 6.87,-5.15 18.89,-12.02 8.6,-13.74 -12.01,-1.7 -111.56,66.94 -168.18,77.23 -54.926,8.59 -82.368,6.86 -89.239,1.72 -6.859,-5.15 6.871,-3.44 13.739,-10.3 6.851,-6.86 41.191,-25.75 48.039,-34.32 6.871,-8.58 13.722,-10.31 -3.434,-8.58 -15.437,1.72 -65.203,24.02 -73.793,18.88 -8.582,-6.87 1.723,-12.02 10.301,-15.45 8.578,-5.16 27.449,-18.87 30.883,-30.88 5.164,-12.03 -10.289,3.42 -34.321,6.85 -22.3,5.16 -22.3,6.87 -24.007,0 -1.727,-5.15 5.144,-3.43 10.289,-12.01 3.418,-10.3 18.863,-8.57 -5.145,-5.14 -24.031,1.71 -78.953,-5.16 -104.7,-12.02 -27.445,-8.58 -29.168,-13.72 -65.195,-13.72 -36.043,-1.71 -41.184,6.87 -42.911,1.71 0,-6.87 20.59,-30.89 42.911,-46.33 22.3,-13.73 46.332,-20.58 56.621,-24.03 10.3,-3.42 29.172,1.71 17.172,-8.58 -13.739,-10.29 -54.926,-1.71 -48.055,-10.29 5.148,-10.3 34.316,-25.74 56.637,-30.9 22.304,-5.14 37.75,0 37.75,-6.85 0,-6.88 -109.84,-37.75 -128.7,-44.63 -18.886,-8.57 -36.043,-17.16 -80.664,-8.57 -44.621,8.57 -58.347,12.01 -65.218,8.57 -8.575,-1.71 8.582,-24.02 20.597,-30.89 12.016,-6.86 32.606,-3.42 24.028,-12.02 -6.868,-10.27 -24.028,1.73 -65.215,-18.87 -41.184,-20.59 -46.328,-25.74 -37.75,-27.45 8.574,0 27.461,6.86 39.476,0 13.723,-6.87 61.762,-29.18 75.504,-29.18 13.739,-1.71 -5.144,-5.14 -20.594,-6.86 -17.16,0 -116.71,-30.89 -144.15,-60.05 -29.172,-30.91 -61.781,-72.09 -82.371,-89.23 -18.871,-17.18 -27.449,-25.75 -20.598,-25.75 8.582,0 54.911,6.86 63.504,18.87 8.586,12.01 30.887,25.74 27.45,13.74 -3.434,-12.02 -60.051,-96.11 -51.477,-97.82 8.582,0 6.855,8.58 17.16,12.01 10.309,1.71 24.027,0 17.16,-6.87 -6.851,-6.86 -48.039,-84.08 -72.07,-114.97 -22.316,-29.18 -61.781,-51.48 -48.051,-54.92 13.719,-5.16 53.195,10.3 78.934,27.46 24.027,15.44 32.609,12.01 25.738,5.14 -6.871,-6.86 -58.348,-49.77 -44.621,-51.47 13.742,-3.44 53.219,8.57 66.937,10.3 13.727,1.71 30.879,5.14 22.305,0 -8.578,-6.87 -97.824,-39.49 -77.211,-48.05 22.301,-6.87 32.59,3.42 51.477,-1.73 18.863,-5.14 36.035,0 34.308,-10.28 -3.433,-10.3 -13.718,-135.57 -49.765,-229.96 -37.746,-96.1 -75.5,-169.9 -84.078,-243.68 -8.579,-73.8 -10.305,-389.55 -8.579,-482.21 1.708,-92.68 -3.433,-228.24 -6.871,-257.43 -3.433,-30.879 -1.711,-46.328 0,-73.773 0,-29.188 17.161,-187.06 32.606,-178.48 15.453,8.571 24.031,61.782 25.742,75.508 3.434,13.731 13.734,60.055 22.316,48.043 8.563,-12.004 13.723,-17.148 24.032,-8.574 12.008,8.574 6.851,24.023 20.574,17.152 13.742,-6.851 37.766,-8.578 37.766,-3.433 0,5.16 39.46,63.5 32.609,84.101 -5.16,18.875 -10.305,18.875 -3.434,27.453 6.848,6.86 24.008,37.754 24.008,60.063 1.727,24.019 -12.015,278 -8.578,322.62 3.434,44.63 5.145,54.91 10.305,44.63 5.144,-10.31 152.73,-183.62 159.58,-193.92 6.871,-12.015 8.586,-15.449 13.742,-39.465 5.144,-22.316 8.582,-29.175 27.445,-34.328 18.887,-5.144 42.899,-18.887 10.309,-24.031 -34.317,-5.145 -54.93,-15.438 -68.649,-37.75 -12.015,-24.02 -99.531,-114.98 -113.26,-145.87 -15.446,-30.883 -15.446,-44.617 -8.575,-63.5 8.575,-17.149 20.59,-25.727 20.59,-36.028 -1.726,-12.011 -6.871,-18.875 0,-27.461 5.145,-6.855 -1.726,-18.882 -8.597,-32.601 -6.852,-13.731 -18.864,-36.043 -36.024,-46.324 -15.453,-10.301 -18.867,-30.903 -15.453,-41.188 3.437,-10.301 -22.297,-42.906 -36.023,-58.355 -13.743,-17.168 -49.766,-72.067 -49.766,-90.953 0,-18.875 5.144,-34.317 8.582,-39.473 1.707,-6.859 6.852,-8.574 5.141,-17.152 -1.723,-8.582 -36.039,-66.934 -32.606,-89.239 5.141,-22.309 -269.42,-32.606 -290.02,-32.606 -22.305,-1.7187 82.371,-18.883 90.958,-17.156 6.867,0 614.34,18.875 622.92,15.438 8.598,-3.4219 12.016,-24.016 36.039,-27.453 24.032,-1.7188 180.2,1.707 193.92,6.8711 12.016,5.1445 25.739,-10.305 39.461,-15.461 15.454,-3.4141 178.47,8.5899 228.25,13.734 49.76,6.8711 132.14,18.887 144.13,29.18 13.75,10.297 15.46,13.715 15.46,13.715 0,0 466.77,3.4532 489.07,3.4532 22.3,1.7109 142.44,-12.024 144.15,3.414 1.71,15.461 3.44,132.14 -3.43,147.59 -5.15,15.449 -27.47,24.031 -22.31,29.176 5.15,5.148 6.86,1.715 17.16,5.148 10.29,5.145 0,87.52 -17.16,121.83 -18.88,34.328 -22.3,41.188 -18.88,53.203 1.72,12.004 10.29,48.051 0,63.497 -10.29,15.441 -13.72,22.3 -5.15,29.171 6.87,5.149 -8.57,111.54 -17.15,121.84 -8.6,10.305 -13.74,12.016 -29.17,12.016 -13.74,0 -15.45,5.152 -6.87,8.586 10.3,1.711 18.88,1.711 22.3,13.726 1.73,13.731 -13.72,118.41 -20.6,144.15 -6.85,25.734 1.73,34.324 -32.58,32.601 -34.32,0 -192.21,-25.738 -193.93,-34.316 -1.72,-8.582 5.15,-216.22 -3.43,-262.57 -10.29,-44.614 -37.75,-142.41 -139.01,-190.47 -101.24,-48.051 -106.38,-54.922 -108.11,-44.617 -3.41,10.297 -3.41,219.65 17.16,331.2 18.88,111.55 96.12,394.69 118.41,497.65 22.33,102.97 82.38,429.02 87.52,502.81 5.15,75.51 15.45,159.6 20.6,154.46 3.43,-6.88 18.87,-37.77 42.91,-32.62 22.3,5.14 41.18,27.47 39.46,15.44 0,-12.01 -32.61,-60.06 -37.75,-73.78 -5.15,-12.03 -8.58,-13.74 20.59,-10.31 29.17,1.71 12.02,-15.43 0,-46.32 -12.01,-30.9 -49.76,-128.72 -46.34,-207.66 5.16,-80.64 30.89,-149.28 66.93,-149.28 34.32,0 49.77,6.86 58.35,12.01 6.87,5.14 30.88,0 6.87,10.3 -24.03,10.29 -34.34,13.72 -36.04,39.46 -1.71,25.74 -1.71,75.51 18.86,101.24 20.6,27.46 18.89,25.75 17.18,13.74 -1.73,-10.3 -36.04,-49.76 -1.73,-41.19 34.32,6.87 54.93,39.47 73.8,63.5 20.59,25.73 20.59,85.81 24.03,96.09 5.14,10.3 111.54,128.71 94.37,278 -17.15,149.31 -34.32,183.63 -34.32,199.07 0,17.17 39.48,139 32.61,188.77 -6.86,49.76 -13.73,85.8 -20.6,92.67 -5.14,8.57 -8.57,17.15 -1.7,15.44 8.57,-3.43 24.01,-6.87 32.59,1.71 8.59,10.31 36.04,61.79 27.46,72.09 -8.58,12.01 -39.46,13.72 -53.19,44.61 -15.45,29.17 -17.17,36.03 -6.86,32.61 12.01,-1.72 46.32,5.14 54.9,20.58 8.58,15.46 5.15,42.91 -3.43,32.61 -10.29,-10.3 -15.45,-6.86 -18.88,1.72 -3.42,8.58 -1.71,90.96 3.43,114.97 3.44,24.04 -34.32,111.55 -94.39,149.3 -61.76,37.76 -89.22,56.63 -130.41,56.63 z m -888.93,-1254.4 c 1.719,-3.43 6.867,-8.58 5.16,-34.33 -1.726,-25.74 24.008,-149.29 32.59,-188.77 8.598,-39.46 87.527,-142.42 97.817,-149.29 10.31,-8.58 58.35,8.59 75.52,22.31 15.44,12.02 60.06,18.88 77.22,17.17 18.88,0 53.2,-37.76 68.65,-42.9 13.72,-3.44 42.89,3.42 53.18,36.02 8.6,32.61 34.34,36.05 60.07,53.21 25.74,18.87 58.34,41.18 78.94,118.41 22.3,75.5 54.91,350.07 56.64,377.53 3.42,27.45 6.85,32.61 18.86,32.61 10.31,0 -3.42,-70.37 -5.14,-102.97 -3.44,-30.89 -30.88,-166.46 -37.75,-231.67 -6.87,-65.21 -75.5,-281.43 -87.52,-324.33 -12.01,-42.91 -54.9,-176.76 -126.99,-362.1 -70.36,-187.05 -77.23,-506.23 -80.65,-530.25 -3.44,-24.039 -6.87,-20.601 -22.3,-24.039 -13.75,-1.703 -27.48,-5.144 -32.63,-17.148 -3.42,-12.016 -10.29,-97.813 -10.29,-97.813 0,0 -6.87,0 -44.62,13.715 -37.75,15.442 -39.46,17.164 -44.6,44.621 -3.44,27.461 -34.34,18.875 -49.79,24.02 -13.722,6.871 0,18.875 6.88,39.476 8.57,20.594 -30.891,44.621 -37.762,60.063 -6.864,13.73 15.457,53.195 29.172,97.816 13.75,44.617 44.62,250.54 58.35,267.7 15.45,15.438 32.61,126.99 29.17,142.43 -3.43,17.16 13.75,46.328 20.6,82.375 8.57,36.029 -46.34,80.649 -56.62,82.369 -8.6,3.44 -199.07,147.58 -205.94,147.58 -8.574,0 0,37.75 -6.867,72.08 -5.145,34.31 -29.176,51.48 -10.305,68.64 18.887,15.45 24.043,116.69 24.043,147.58 -1.726,29.17 -66.941,58.34 -73.793,72.08 -6.871,12.01 1.711,17.16 20.59,17.16 18.871,0 53.203,-5.15 70.344,15.43 17.179,20.6 46.347,54.92 49.769,53.21 z m -231.66,-1089.7 c 5.145,3.433 6.856,5.14 10.289,6.867 3.438,0 1.711,327.77 6.856,329.48 6.871,1.727 10.304,-314.04 10.304,-322.6 0,-6.871 10.305,-10.305 18.883,-13.738 10.289,-1.711 13.719,-5.145 18.863,-30.887 6.871,-25.742 37.758,-58.352 46.348,-73.793 8.586,-17.152 -72.082,-231.67 -72.082,-235.1 -1.707,-5.152 -15.445,-6.863 -22.316,5.141 -5.145,12.016 -24.016,3.438 -32.594,3.438 -6.867,0 0,5.144 -3.434,18.886 -1.726,15.438 -30.883,29.172 -53.199,42.895 -24.027,12.004 -46.332,-3.43 -56.621,-8.582 -12.031,-3.434 -5.16,6.871 5.144,24.027 12.012,17.16 20.598,41.18 20.598,51.477 1.703,12.015 -6.871,17.164 -8.586,36.043 -1.726,18.879 106.4,161.31 111.55,166.46"
             color="#000000"
             id="path186" />
        </g>
      </g>
    </g>
    <path
       d="m 7.9213637,26.612896 h 1.8254079 v 1.709293 H 6.5523657 V 1.8120781 h 1.3690559 z"
       color="#000000"
       style="stroke-width:0.136089;-inkscape-stroke:none"
       id="path405" />
    <path
       d="m 15.612053,24.354302 h -1.095245 v -0.870776 q -0.798616,0.96749 -1.734138,0.96749 -1.209332,0 -2.053583,-1.193291 -0.8670692,-1.161034 -0.8670692,-2.934841 0,-1.741551 0.8670692,-2.967099 0.844251,-1.193291 2.053583,-1.193291 1.026792,0 1.734138,0.999805 v -0.903033 h 1.095245 z M 12.78267,22.677266 q 0.730164,0 1.163698,-0.709488 0.433534,-0.645032 0.433534,-1.644836 0,-0.96749 -0.433534,-1.677036 -0.456346,-0.677289 -1.163698,-0.677289 -0.707345,0 -1.140879,0.677289 -0.456347,0.741746 -0.456347,1.677036 0,0.935289 0.456347,1.644836 0.433534,0.709488 1.140879,0.709488 z"
       color="#000000"
       style="stroke-width:0.136089;-inkscape-stroke:none"
       id="path402" />
    <path
       d="m 20.517257,18.098573 q -0.342252,-0.225755 -0.889886,-0.225755 -0.479158,0 -0.752981,0.45151 -0.273811,0.483757 -0.273811,1.257806 v 4.773048 h -1.323421 v -8.062604 h 1.323421 v 0.709488 q 0.456346,-0.838518 1.346238,-0.838518 0.251,0 0.57044,0.09676 z"
       color="#000000"
       style="stroke-width:0.136089;-inkscape-stroke:none"
       id="path399" />
    <path
       d="M 67.807362,27.517444 V 4.9209141 q 2.929789,1.1664629 4.340157,3.526483 1.383471,2.4142649 1.383471,5.3983549 0,2.25153 -1.11219,4.47591 -1.085067,2.143012 -2.984033,3.770726 v 5.425337 z m 1.627601,-7.486926 q 2.522784,-2.441416 2.468539,-6.184766 0,-2.305775 -0.759542,-3.824971 -0.786664,-1.5733558 -1.708997,-2.3328973 z"
       id="path443"
       style="stroke-width:0.0743634" />
    <path
       d="m 78.983787,18.919762 q -0.406893,-0.189889 -1.057945,-0.189889 -0.569656,0 -0.895182,0.379771 -0.325526,0.406893 -0.325526,1.057945 v 4.014688 h -1.573356 v -6.781742 h 1.573356 v 0.596779 q 0.542534,-0.705297 1.600479,-0.705297 0.298403,0 0.678174,0.08138 z"
       id="path440"
       style="stroke-width:0.0743634" />
    <path
       d="M 86.308821,24.181239 H 85.006746 V 23.44882 q -0.949427,0.813787 -2.061617,0.813787 -1.437716,0 -2.441416,-1.003672 -1.030822,-0.976577 -1.030822,-2.468538 0,-1.464838 1.030822,-2.495661 1.0037,-1.0037 2.441416,-1.0037 1.220708,0 2.061617,0.840937 v -0.759541 h 1.302075 z m -3.363748,-1.410593 q 0.868059,0 1.38347,-0.596778 0.515412,-0.542534 0.515412,-1.383471 0,-0.813787 -0.515412,-1.410593 -0.542533,-0.569656 -1.38347,-0.569656 -0.840937,0 -1.356349,0.569656 -0.542533,0.623901 -0.542533,1.410593 0,0.786692 0.542533,1.383471 0.515412,0.596778 1.356349,0.596778 z"
       id="path437"
       style="stroke-width:0.0743634" />
    <path
       d="m 94.310652,24.209346 h -1.573356 v -0.678174 q -0.786664,0.759541 -1.898882,0.759541 -1.464839,0 -2.387143,-1.0037 -0.976578,-0.976549 -0.976578,-2.49566 0,-1.464839 0.976578,-2.495661 0.922304,-1.0037 2.387143,-1.0037 1.085067,0 1.898882,0.813815 V 4.9493013 h 1.573356 z M 90.946903,22.77163 q 0.86806,0 1.383471,-0.596779 0.515411,-0.542533 0.515411,-1.38347 0,-0.813787 -0.515411,-1.410594 -0.542533,-0.569656 -1.383471,-0.569656 -0.868059,0 -1.38347,0.569656 -0.542534,0.623902 -0.542534,1.410594 0,0.786692 0.542534,1.38347 0.515411,0.596779 1.38347,0.596779 z"
       id="path434"
       style="stroke-width:0.0743634" />
    <path
       d="m 97.565348,21.443697 q 0.108507,0.461166 0.434016,0.786664 0.244141,0.271267 0.596778,0.406893 0.352649,0.135632 0.705297,0.135632 0.949431,0 1.573351,-0.37977 v 1.464838 q -0.70529,0.406893 -1.573351,0.406893 -1.437716,0 -2.332898,-1.003672 -0.922304,-0.922304 -0.922304,-2.468538 0,-1.464838 0.922304,-2.468538 0.434016,-0.488289 1.030823,-0.732419 0.596778,-0.244142 1.220707,-0.244142 1.166459,0 1.980249,0.786664 0.81382,0.759542 0.81382,1.926005 v 1.38347 z m 1.681846,-2.631301 q -0.623901,0 -1.085067,0.379771 -0.434016,0.379771 -0.569657,0.922304 h 2.95677 q 0.0271,-0.406893 -0.35265,-0.840937 -0.379768,-0.461166 -0.949424,-0.461166 z"
       id="path431"
       style="stroke-width:0.0743634" />
    <path
       d="m 109.79997,24.209346 h -1.57336 v -0.678174 q -0.78666,0.759541 -1.89888,0.759541 -1.46484,0 -2.38714,-1.0037 -0.97655,-0.976549 -0.97655,-2.49566 0,-1.464839 0.97655,-2.495661 0.9223,-1.0037 2.38714,-1.0037 1.08507,0 1.89888,0.813815 V 4.9493013 h 1.57336 z m -3.36375,-1.437716 q 0.86806,0 1.38347,-0.596779 0.51541,-0.542533 0.51541,-1.38347 0,-0.813787 -0.51541,-1.410594 -0.54253,-0.569656 -1.38347,-0.569656 -0.86806,0 -1.38347,0.569656 -0.54253,0.623902 -0.54253,1.410594 0,0.786692 0.54253,1.38347 0.51541,0.596779 1.38347,0.596779 z"
       id="path428"
       style="stroke-width:0.0743634" />
    <path
       d="m 117.8018,24.181239 h -1.30207 V 23.44882 q -0.94943,0.813787 -2.06165,0.813787 -1.43771,0 -2.44141,-1.003672 -1.03083,-0.976577 -1.03083,-2.468538 0,-1.464838 1.03083,-2.495661 1.0037,-1.0037 2.44141,-1.0037 1.22071,0 2.06165,0.840937 v -0.759541 h 1.30207 z m -3.36375,-1.410593 q 0.86806,0 1.38347,-0.596778 0.51541,-0.542534 0.51541,-1.383471 0,-0.813787 -0.51541,-1.410593 -0.54253,-0.569656 -1.38347,-0.569656 -0.84093,0 -1.35635,0.569656 -0.54253,0.623901 -0.54253,1.410593 0,0.786692 0.54253,1.383471 0.51542,0.596778 1.35635,0.596778 z"
       id="path425"
       style="stroke-width:0.0743634" />
  </g>
</svg>
