<?xml version="1.0" encoding="UTF-8"?>
<!DOCTYPE svg PUBLIC "-//W3C//DTD SVG 1.1//EN" "http://www.w3.org/Graphics/SVG/1.1/DTD/svg11.dtd">
<!-- Creator: CorelDRAW -->
<svg xmlns="http://www.w3.org/2000/svg" xml:space="preserve" width="512px" height="512px" version="1.1" style="shape-rendering:geometricPrecision; text-rendering:geometricPrecision; image-rendering:optimizeQuality; fill-rule:evenodd; clip-rule:evenodd"
viewBox="0 0 512 512"
 xmlns:xlink="http://www.w3.org/1999/xlink">
 <defs>
  <style type="text/css">
   <![CDATA[
    .fil0 {fill:black}
   ]]>
  </style>
 </defs>
 <g id="Layer_x0020_1">
  <metadata id="CorelCorpID_0Corel-Layer"/>
  <g id="_463535688">
   <g>
    <g>
     <g>
      <path class="fil0" d="M202 163c-4,0 -7,-3 -7,-7l0 -71c0,-4 3,-7 7,-7 4,0 7,3 7,7l0 71c0,4 -3,7 -7,7z"/>
     </g>
     <g>
      <path class="fil0" d="M313 163c-4,0 -7,-3 -7,-7l0 -71c0,-4 3,-7 7,-7 4,0 7,3 7,7l0 71c0,4 -3,7 -7,7z"/>
     </g>
     <g>
      <g>
       <path class="fil0" d="M256 434c-68,0 -131,-15 -180,-41 -49,-27 -76,-64 -76,-103 0,-4 3,-7 7,-7 4,0 7,3 7,7 0,34 25,66 69,91 46,25 108,39 173,39 65,0 127,-14 173,-39 44,-25 69,-57 69,-91 0,-4 3,-7 7,-7 4,0 7,3 7,7 0,39 -27,76 -76,103 -49,26 -112,41 -180,41zm-241 -173c-1,0 -2,0 -3,-1 -4,-1 -5,-6 -3,-9 25,-52 99,-91 192,-102 4,0 7,2 8,6 0,4 -2,7 -6,8 -44,5 -84,17 -116,34 -32,17 -55,37 -66,60 -1,3 -3,4 -6,4zm482 0c-3,0 -5,-1 -6,-4 -12,-22 -34,-43 -65,-59 -31,-17 -71,-29 -114,-35 -4,-1 -6,-4 -6,-8 1,-4 4,-6 8,-6 91,12 164,51 189,102 2,3 1,7 -3,9 -1,1 -2,1 -3,1z"/>
      </g>
      <g>
       <path class="fil0" d="M256 363c-68,0 -132,-15 -180,-41 -49,-27 -76,-64 -76,-103 0,-34 21,-66 59,-92 36,-25 87,-42 142,-49 4,0 8,2 8,6 1,4 -2,8 -6,8 -110,14 -189,67 -189,127 0,72 109,130 242,130 133,0 242,-58 242,-130 0,-29 -18,-57 -52,-80 -33,-23 -81,-39 -134,-46 -4,0 -6,-4 -6,-8 0,-4 4,-6 8,-6 117,15 198,72 198,140 0,39 -27,76 -76,103 -48,26 -112,41 -180,41z"/>
      </g>
      <g>
       <path class="fil0" d="M7 297c-4,0 -7,-3 -7,-7l0 -71c0,-4 3,-7 7,-7 4,0 7,3 7,7l0 71c0,4 -3,7 -7,7z"/>
      </g>
      <g>
       <path class="fil0" d="M505 297c-4,0 -7,-3 -7,-7l0 -71c0,-4 3,-7 7,-7 4,0 7,3 7,7l0 71c0,4 -3,7 -7,7z"/>
      </g>
     </g>
    </g>
    <g>
     <path class="fil0" d="M219 432c-4,0 -7,-3 -7,-7l0 -71c0,-4 3,-7 7,-7 4,0 7,3 7,7l0 71c0,4 -3,7 -7,7zm-73 -12c-4,0 -7,-3 -7,-7l0 -71c0,-4 3,-7 7,-7 4,0 7,3 7,7l0 71c0,4 -3,7 -7,7z"/>
    </g>
    <g>
     <path class="fil0" d="M293 432c-4,0 -7,-3 -7,-7l0 -71c0,-4 3,-7 7,-7 4,0 7,3 7,7l0 71c0,4 -3,7 -7,7z"/>
    </g>
    <g>
     <path class="fil0" d="M366 420c-4,0 -7,-3 -7,-7l0 -71c0,-4 3,-7 7,-7 4,0 7,3 7,7l0 71c0,4 -3,7 -7,7z"/>
    </g>
   </g>
  </g>
 </g>
</svg>
