<svg width="64" height="64" version="1.1" viewBox="0 0 16.933 16.933" xmlns="http://www.w3.org/2000/svg">
 <g transform="translate(-6.6659 -143.02)">
  <g transform="matrix(.0099195 0 0 .0099195 6.6679 143.02)" style="clip-rule:evenodd;fill-rule:evenodd;image-rendering:optimizeQuality;shape-rendering:geometricPrecision">
   <g>
    <path class="fil0" d="m1403 1319.3c44.57-131.35 13.74-339.76-183.2-623.62-31.9 31.88-58.69 31.79-90.54-0.06-196.98 283.9-227.8 492.31-183.23 623.68 77.59 228.68 379.38 228.68 456.98 0z" style="fill:#000000"/>
    <path class="fil0" d="m1222.4 1519.4c-31.65 5.7-64.13 5.71-95.78 0.02-110.78 250.16 206.58 250.14 95.78-0.02z" style="fill:#000000"/>
    <path class="fil0" d="m1160.5 680.24c7.69 7.7 20.35 7.7 28.06 0l80.18-80.19c7.7-7.69 7.69-20.36 0-28.06l-58.68-58.68 0.77-73.47c54.51-29.11 54.52-107.35 0-136.46v-79.73c117.85-36.67 97.58-223.66-36.31-223.66-63.23 0-114.7 51.48-114.7 114.7 0 47.81 72.61 47.81 72.61 0 0-23.21 18.87-42.09 42.09-42.09 37.36 0 56.16 45.37 29.73 71.81-20.14 20.14-66.04 3.89-66.04 48.67v110.29c-54.52 29.11-54.51 107.35 0 136.46l0.76 73.48-58.67 58.67c-7.7 7.84-7.7 20.35 0 28.06l80.19 80.19z" style="fill:#000000"/>
    <path class="fil0" d="m760.68 1319.3c44.57-131.35 13.74-339.76-183.2-623.62-31.9 31.88-58.69 31.79-90.54-0.06-196.98 283.9-227.8 492.31-183.23 623.68 77.59 228.68 379.38 228.68 456.98 0z" style="fill:#000000"/>
    <path class="fil0" d="m580.12 1519.4c-31.65 5.7-64.13 5.71-95.78 0.02-110.78 250.16 206.58 250.14 95.78-0.02z" style="fill:#000000"/>
    <path class="fil0" d="m518.2 680.24c7.69 7.7 20.35 7.7 28.06 0l80.18-80.19c7.7-7.69 7.69-20.36 0-28.06l-58.68-58.68 0.77-73.47c54.51-29.11 54.52-107.35 0-136.46v-79.73c117.85-36.67 97.58-223.66-36.31-223.66-63.23 0-114.7 51.48-114.7 114.7 0 47.81 72.61 47.81 72.61 0 0-23.21 18.87-42.09 42.09-42.09 37.36 0 56.16 45.37 29.73 71.81-20.14 20.14-66.04 3.89-66.04 48.67v110.29c-54.52 29.11-54.51 107.35 0 136.46l0.76 73.48-58.67 58.67c-7.7 7.84-7.7 20.35 0 28.06l80.19 80.19z" style="fill:#000000"/>
   </g>
  </g>
 </g>
</svg>
