<svg width="64" height="64" version="1.1" viewBox="0 0 16.933 16.933" xmlns="http://www.w3.org/2000/svg">
 <g transform="translate(-6.6659 -143.02)">
  <path d="m12.833 153.09c-0.95752 0-1.7362-0.77796-1.7362-1.7346 0-0.95662 0.77869-1.7346 1.7362-1.7346s1.7362 0.77796 1.7362 1.7346c0 0.95661-0.77868 1.7346-1.7362 1.7346m6.5376-7.6886c-0.19976 6.1e-4 -0.40122 0.0624-0.57472 0.18987-0.34219 0.2513-0.4724 0.68346-0.35818 1.0709l-0.61481 0.4516c-0.33291-0.22681-0.78682-0.23006-1.129 0.0212-0.34219 0.2513-0.4724 0.68347-0.35818 1.0709l-0.6148 0.4516c-0.33291-0.22681-0.78682-0.23006-1.129 0.0212-0.17225 0.1265-0.29065 0.29879-0.35132 0.48817-0.40594-0.26108-0.88878-0.41327-1.4075-0.41327-1.4385 0-2.6044 1.1648-2.6044 2.6018 0 0.56374 0.18143 1.0845 0.48658 1.5108l-3.9911 3.9873 0.61385 0.61321 0.61896-0.61832 0.60155 0.60108 0.61417-0.61322-0.60203-0.60107 0.85897-0.85817 0.61033 0.60969 0.61369-0.6132-0.61018-0.6097 1.2869-1.2857c0.42493 0.30094 0.94232 0.47923 1.5027 0.47923 1.4385 0 2.6042-1.1649 2.6042-2.602 0-0.32322-0.0594-0.63237-0.1672-0.9179 0.16763-0.0173 0.33293-0.0777 0.47811-0.18428 0.34219-0.2513 0.47224-0.68346 0.35802-1.0709l0.61496-0.4516c0.33291 0.22681 0.78682 0.23006 1.129-0.0212 0.34219-0.2513 0.47224-0.68346 0.35802-1.0709l0.61496-0.4516c0.49841 0.33893 1.1783 0.14841 1.4321-0.39044l0.61209 0.59612c-0.19867 0.32808-0.19347 0.75593 0.04839 1.0852 0.23807 0.32418 0.64223 0.45918 1.0115 0.37415l0.35739 0.76715c-0.57053 0.10216-0.93134 0.68395-0.7614 1.2443l-0.61481 0.4516c-0.33291-0.22681-0.78682-0.23006-1.129 0.0212-0.22412 0.16459-0.35686 0.40683-0.38996 0.66319-1.2164-0.40243-2.6064 0.82612-1.7564 2.4632 0.51701 0.99425 1.9 2.3464 2.6866 3.0667 0.08409 0.076 0.21189 0.076 0.29606 0 0.78216-0.72029 2.1653-2.0724 2.6823-3.0667 0.89907-1.7317-0.70811-3.0058-1.965-2.3765-0.0029-0.0827-0.01546-0.16542-0.03928-0.24624l0.61496-0.4516c0.33291 0.22681 0.78682 0.23006 1.129-0.0212 0.49913-0.36656 0.53729-1.1074 0.06835-1.5194-0.01411-0.057 0.01319 0.0181-0.62614-1.354 0.25684-0.33516 0.27318-0.8145 0.01054-1.1721-0.26075-0.35505-0.71852-0.48223-1.1119-0.34382l-1.2362-1.2033c-0.19163-0.24492-0.47983-0.37421-0.77178-0.37319zm0.71676 6.9207c-0.10581-0.14408-0.07438-0.34934 0.0697-0.45515 0.14408-0.10581 0.34935-0.0744 0.45516 0.0697 0.10581 0.14408 0.07438 0.34935-0.0697 0.45516-0.14408 0.10581-0.34935 0.0744-0.45516-0.0697zm2.5572-1.474c-0.14408 0.10581-0.34935 0.0744-0.45516-0.0697-0.10581-0.14407-0.07438-0.34934 0.0697-0.45515s0.34935-0.0744 0.45516 0.0697c0.10581 0.14408 0.07437 0.34935-0.0697 0.45516zm-0.68482-3.1328c0.10581 0.14408 0.07438 0.34934-0.0697 0.45515-0.14408 0.10581-0.34934 0.0744-0.45516-0.0697-0.10581-0.14408-0.07437-0.34935 0.0697-0.45516 0.14219-0.10838 0.34746-0.0769 0.45516 0.0697zm-2.331-1.5238c0.10581 0.14408 0.07438 0.34935-0.0697 0.45516-0.14408 0.10581-0.34935 0.0744-0.45516-0.0697-0.10581-0.14408-0.07438-0.34934 0.0697-0.45515 0.14408-0.10581 0.34935-0.0744 0.45516 0.0697zm-2.102 1.5437c0.10581 0.14408 0.07438 0.34935-0.0697 0.45516-0.14408 0.10581-0.34934 0.0744-0.45516-0.0697-0.10581-0.14408-0.07438-0.34934 0.0697-0.45515 0.14665-0.1077 0.34935-0.0744 0.45516 0.0697zm-2.0994 1.5418c0.10581 0.14408 0.07437 0.34935-0.0697 0.45516-0.14408 0.10581-0.34934 0.0744-0.45516-0.0697-0.10581-0.14408-0.07437-0.34934 0.0697-0.45515 0.14408-0.10581 0.34934-0.0744 0.45516 0.0697z" style="fill-rule:evenodd;fill:#000000;stroke-width:.081761;stroke:#000000"/>
 </g>
</svg>
