<?xml version="1.0" encoding="UTF-8" standalone="no"?>
<!-- Created with Inkscape (http://www.inkscape.org/) -->

<svg
   width="64"
   height="64"
   viewBox="0 0 16.933333 16.933333"
   version="1.1"
   id="svg4261"
   inkscape:version="1.2.1 (9c6d41e410, 2022-07-14)"
   sodipodi:docname="necklace.svg"
   xmlns:inkscape="http://www.inkscape.org/namespaces/inkscape"
   xmlns:sodipodi="http://sodipodi.sourceforge.net/DTD/sodipodi-0.dtd"
   xmlns="http://www.w3.org/2000/svg"
   xmlns:svg="http://www.w3.org/2000/svg">
  <sodipodi:namedview
     id="namedview4263"
     pagecolor="#ffffff"
     bordercolor="#666666"
     borderopacity="1.0"
     inkscape:showpageshadow="2"
     inkscape:pageopacity="0.0"
     inkscape:pagecheckerboard="0"
     inkscape:deskcolor="#d1d1d1"
     inkscape:document-units="mm"
     showgrid="false"
     inkscape:zoom="11.930303"
     inkscape:cx="29.630429"
     inkscape:cy="23.469647"
     inkscape:window-width="1920"
     inkscape:window-height="1017"
     inkscape:window-x="-8"
     inkscape:window-y="-8"
     inkscape:window-maximized="1"
     inkscape:current-layer="layer1" />
  <defs
     id="defs4258">
	


	
	
</defs>
  <g
     inkscape:label="Layer 1"
     inkscape:groupmode="layer"
     id="layer1"
     transform="translate(-6.6659484,-143.02312)">
    <g
       id="Guides"
       style="fill:none;fill-opacity:1;stroke:#000000;stroke-width:0.135939;stroke-dasharray:none;stroke-opacity:1"
       transform="matrix(0.58390006,0,0,0.58390006,5.7892484,142.14738)">
</g>
    <g
       id="g33558"
       transform="matrix(0.03762963,0,0,0.03762963,5.4994218,141.8566)">
      <g
         id="_x31_33_x2C__necklace_x2C__jewellery_x2C__heart__x2C__love_and_romance_x2C__miscellaneous_x2C__valentines_day_x2C__valentine">
	<g
   id="XMLID_14946_">
		<g
   id="XMLID_15205_">
			<path
   id="XMLID_15232_"
   d="M 173.002,408.701 C 99.569,438.075 163.045,481 255.998,481 c 92.169,0 156.874,-42.748 82.996,-72.299 -45.715,-18.285 -120.283,-18.283 -165.992,0 z" />

			<path
   id="XMLID_15231_"
   d="m 270.998,153.747 c 0,-8.271 -6.729,-15 -15,-15 -8.271,0 -15,6.729 -15,15 0,8.271 6.729,15 15,15 8.271,0 15,-6.729 15,-15 z" />

			<path
   id="XMLID_15230_"
   d="m 252.421,224.203 c -1.482,-1.52 -5.797,-8.719 -15.151,-8.719 -10.714,0 -18.712,8.788 -18.712,20.509 0,15.505 15.715,26.011 37.441,45.001 21.814,-19.077 37.439,-29.541 37.439,-45.001 0,-17.638 -17.558,-25.791 -28.988,-16.95 -2.997,2.317 -4.115,4.43 -4.993,5.274 -2.029,1.949 -5.157,1.813 -7.036,-0.114 z" />

			
			
			<path
   id="XMLID_15227_"
   d="m 255.998,128.747 c 11.307,0 20.88,7.547 23.958,17.867 20.973,-3.759 40.751,-12.473 57.754,-25.421 C 314.227,98.002 299.248,66.219 297.947,31 h -83.899 c -1.301,35.219 -16.28,67.001 -39.762,90.193 17.003,12.947 36.781,21.662 57.754,25.421 3.078,-10.32 12.651,-17.867 23.958,-17.867 z" />

			<path
   id="XMLID_15226_"
   d="m 222.998,332.542 c -0.262,3.219 1.863,26.288 -9.288,55.468 27.216,-4.012 57.338,-4.015 84.568,-10e-4 -11.129,-29.13 -9.021,-52.251 -9.281,-55.438 -21.323,3.913 -43.726,4.097 -65.999,-0.029 z" />

			<path
   id="XMLID_15208_"
   d="m 426.643,159.762 c -30.982,-1.16 -59.3,-12.908 -81.447,-31.713 -18.818,14.702 -40.912,24.504 -64.366,28.557 -1.234,10.781 -9.347,19.501 -19.832,21.638 v 31.08 c 18.187,-11.05 42.44,2.244 42.44,26.67 0,20.855 -18.862,33.291 -40.867,52.539 -3.758,3.287 -9.386,3.294 -13.15,-0.006 -22.038,-19.268 -40.862,-31.717 -40.862,-52.533 0,-24.954 24.773,-37.402 42.44,-26.67 v -31.079 c -10.484,-2.137 -18.598,-10.857 -19.832,-21.638 -23.455,-4.052 -45.548,-13.855 -64.367,-28.557 -22.147,18.805 -50.465,30.553 -81.447,31.713 2.609,91.869 78.156,165.809 170.645,165.809 92.489,0 168.035,-73.941 170.645,-165.81 z" />

			
			
		</g>

	</g>

</g>
      <g
         id="Layer_1">
</g>
    </g>
    <g
       id="_x31_9"
       style="fill:none;fill-opacity:1;stroke:#000000;stroke-width:0.135939;stroke-dasharray:none;stroke-opacity:1"
       transform="matrix(0.58390006,0,0,0.58390006,5.7892484,142.14738)">
</g>
    <g
       id="_x31_8"
       style="fill:none;fill-opacity:1;stroke:#000000;stroke-width:0.135939;stroke-dasharray:none;stroke-opacity:1"
       transform="matrix(0.58390006,0,0,0.58390006,5.7892484,142.14738)">
</g>
    <g
       id="_x31_7"
       style="fill:none;fill-opacity:1;stroke:#000000;stroke-width:0.135939;stroke-dasharray:none;stroke-opacity:1"
       transform="matrix(0.58390006,0,0,0.58390006,5.7892484,142.14738)">
</g>
    <g
       id="_x31_6"
       style="fill:none;fill-opacity:1;stroke:#000000;stroke-width:0.135939;stroke-dasharray:none;stroke-opacity:1"
       transform="matrix(0.58390006,0,0,0.58390006,5.7892484,142.14738)">
</g>
    <g
       id="_x31_5"
       style="fill:none;fill-opacity:1;stroke:#000000;stroke-width:0.135939;stroke-dasharray:none;stroke-opacity:1"
       transform="matrix(0.58390006,0,0,0.58390006,5.7892484,142.14738)">
</g>
    <g
       id="_x31_4"
       style="fill:none;fill-opacity:1;stroke:#000000;stroke-width:0.135939;stroke-dasharray:none;stroke-opacity:1"
       transform="matrix(0.58390006,0,0,0.58390006,5.7892484,142.14738)">
</g>
    <g
       id="_x31_3"
       style="fill:none;fill-opacity:1;stroke:#000000;stroke-width:0.135939;stroke-dasharray:none;stroke-opacity:1"
       transform="matrix(0.58390006,0,0,0.58390006,5.7892484,142.14738)">
</g>
    <g
       id="_x31_2"
       style="fill:none;fill-opacity:1;stroke:#000000;stroke-width:0.135939;stroke-dasharray:none;stroke-opacity:1"
       transform="matrix(0.58390006,0,0,0.58390006,5.7892484,142.14738)">
</g>
    <g
       id="_x31_1"
       style="fill:none;fill-opacity:1;stroke:#000000;stroke-width:0.135939;stroke-dasharray:none;stroke-opacity:1"
       transform="matrix(0.58390006,0,0,0.58390006,5.7892484,142.14738)">
</g>
    <g
       id="_x31_0"
       style="fill:none;fill-opacity:1;stroke:#000000;stroke-width:0.135939;stroke-dasharray:none;stroke-opacity:1"
       transform="matrix(0.58390006,0,0,0.58390006,5.7892484,142.14738)">
</g>
    <g
       id="_x30_9"
       style="fill:none;fill-opacity:1;stroke:#000000;stroke-width:0.135939;stroke-dasharray:none;stroke-opacity:1"
       transform="matrix(0.58390006,0,0,0.58390006,5.7892484,142.14738)">
</g>
    <g
       id="_x30_8"
       style="fill:none;fill-opacity:1;stroke:#000000;stroke-width:0.135939;stroke-dasharray:none;stroke-opacity:1"
       transform="matrix(0.58390006,0,0,0.58390006,5.7892484,142.14738)">
</g>
    <g
       id="_x30_7"
       style="fill:none;fill-opacity:1;stroke:#000000;stroke-width:0.135939;stroke-dasharray:none;stroke-opacity:1"
       transform="matrix(0.58390006,0,0,0.58390006,5.7892484,142.14738)">
</g>
    <g
       id="_x30_6"
       style="fill:none;fill-opacity:1;stroke:#000000;stroke-width:0.135939;stroke-dasharray:none;stroke-opacity:1"
       transform="matrix(0.58390006,0,0,0.58390006,5.7892484,142.14738)">
</g>
    <g
       id="_x30_5"
       style="fill:none;fill-opacity:1;stroke:#000000;stroke-width:0.135939;stroke-dasharray:none;stroke-opacity:1"
       transform="matrix(0.58390006,0,0,0.58390006,5.7892484,142.14738)">
</g>
    <g
       id="_x30_4"
       style="fill:none;fill-opacity:1;stroke:#000000;stroke-width:0.135939;stroke-dasharray:none;stroke-opacity:1"
       transform="matrix(0.58390006,0,0,0.58390006,5.7892484,142.14738)">
</g>
    <g
       id="_x30_3"
       style="fill:none;fill-opacity:1;stroke:#000000;stroke-width:0.135939;stroke-dasharray:none;stroke-opacity:1"
       transform="matrix(0.58390006,0,0,0.58390006,5.7892484,142.14738)">
</g>
    <g
       id="_x30_2"
       style="fill:none;fill-opacity:1;stroke:#000000;stroke-width:0.135939;stroke-dasharray:none;stroke-opacity:1"
       transform="matrix(0.58390006,0,0,0.58390006,5.7892484,142.14738)">
</g>
    <g
       id="_x30_1"
       style="fill:none;fill-opacity:1;stroke:#000000;stroke-width:0.135939;stroke-dasharray:none;stroke-opacity:1"
       transform="matrix(0.58390006,0,0,0.58390006,5.7892484,142.14738)">
</g>
  </g>
</svg>
