<?xml version="1.0" encoding="UTF-8" standalone="no"?> <svg id="element" xmlns="http://www.w3.org/2000/svg" viewBox="0 0 500 500"><path d="M369.744,38.113c-35.457,2.158-67.334-10.321-95.46-21.332-43.433-18.62-82.652-27.46-97.231,25.172C120.926,32.168,57.894,38.317,23.036,86.127-6.615,127.2-1.991,180.093,30.384,220.1c41.5,56.535,145.085,69.206,214.244,58.541,2.4,6.662,8.178,10.746,13.583,11.335l.569,35.856a4,4,0,0,0,8,0l.955-35.979c9.548-1.9,14.565-8.826,14.77-21.1,64.341-28.73,26.483-78.454-36.5-125.118-.806-.566-80.247-57.268-58.631-107.559,16.457-38.286,43.326-27.768,84-11.844,28.9,11.313,61.646,24.148,98.863,21.867,73.9-4.591,127.22,40.584,117.395,116.277-11.712,82.552-110.869,20.9-165.954-44.316a217.367,217.367,0,0,0-81.418-59.2c-23.409-9.644-39.979-11.47-40.673-11.543a4,4,0,0,0-.841,7.956C298.876,72.485,311.1,141.791,395.92,192.2c43.838,24.7,91.7,30.114,99.661-28.95C505.818,82.907,448.517,32.991,369.744,38.113ZM262.78,282.521A11.839,11.839,0,0,1,250.955,270.7c.556-15.649,23.1-15.645,23.649,0A11.839,11.839,0,0,1,262.78,282.521ZM201.942,113.484a230.622,230.622,0,0,0,39.382,36.641c68.743,51.837,88.409,88.942,38.774,110.948-9.876-17.673-37.1-10.8-37.138,9.72C-51.683,309.872-56.1,9.007,175.849,49.866,174.322,69.374,183.136,91.035,201.942,113.484Z"/><path d="M203.271,426.436c-1.9,62.815,76.1,95.107,119.167,50.687A3.126,3.126,0,0,0,319.115,472c-29.909,11.6-64.211-12.079-63.563-44.348-.655-31.833,32.311-55.221,62.141-44.85a3.12,3.12,0,0,0,3.212-5.177C278.212,336.3,204.55,366.272,203.271,426.436Z"/><path d="M263.567,349.054c5.609-1,4.267-9.365-1.372-8.558C256.586,341.493,257.928,349.86,263.567,349.054Z"/></svg>