<svg width="64" height="64" version="1.1" viewBox="0 0 16.933 16.933" xmlns="http://www.w3.org/2000/svg">
 <g transform="translate(-6.6659 -143.02)">
  <path d="m15.846 145a0.71308 1.8105 0 0 1-0.71308 1.8105 0.71308 1.8105 0 0 1-0.71308-1.8105 0.71308 1.8105 0 0 1 0.71308-1.8105 0.71308 1.8105 0 0 1 0.71308 1.8105zm4.1116 11.096c-0.06462-0.0497-0.10963-0.12064-0.12684-0.20034-0.1161-0.5381-0.54202-1.0653-1.1394-1.41-0.10488-0.061-0.2225-0.11163-0.36041-0.1554-0.14287-0.0453-0.23991-0.17783-0.24004-0.32772s0.09676-0.2825 0.23949-0.32814c0.13633-0.0435 0.25436-0.0945 0.36075-0.15608 0.59742-0.34485 1.0234-0.87201 1.1396-1.4102 0.01721-0.0796 0.06201-0.15051 0.12656-0.20007 0.0034-3e-3 0.0064-6e-3 0.0098-8e-3 0.08286-0.13 0.18279-0.2481 0.29765-0.35194 0.09593-0.18623 0.11238-0.37892 0.02794-0.52523-0.08802-0.15224-0.27535-0.23971-0.51367-0.23971-0.13661 0-0.28216 0.0302-0.42083 0.0875-0.07515 0.031-0.15877 0.0344-0.23626 0.01-0.16035-0.0514-0.33777-0.0774-0.52716-0.0774-0.41354 0-0.86238 0.12766-1.264 0.35952-0.10578 0.0613-0.21148 0.13997-0.31382 0.23385-0.11046 0.10158-0.27404 0.11953-0.40411 0.0448-0.13007-0.0747-0.19669-0.22511-0.16476-0.37163 0.03062-0.14067 0.04556-0.26854 0.04556-0.39104 0-0.68902-0.24362-1.3215-0.65179-1.6919-0.06022-0.0547-0.0991-0.1289-0.10984-0.20949-0.05547-0.41759-0.31299-0.73258-0.59908-0.73258-0.28615 0-0.54368 0.31492-0.59914 0.73258-0.01074 0.0806-0.04962 0.15485-0.10984 0.20949-0.4081 0.37046-0.65172 1.0029-0.65172 1.6919 0 0.12195 0.01507 0.24941 0.04597 0.38946 0.03235 0.14651-0.03386 0.29702-0.16372 0.3721-0.12993 0.0752-0.29352 0.0575-0.40418-0.0437-0.10412-0.095-0.2099-0.17357-0.3143-0.23351-0.40246-0.23227-0.85137-0.35993-1.2648-0.35993-0.18946 0-0.36681 0.026-0.52723 0.0774-0.07742 0.0248-0.16118 0.0214-0.23626-0.01-0.13867-0.0573-0.28423-0.0875-0.42083-0.0875-0.23832 0-0.42565 0.0875-0.51381 0.24005-0.084097 0.14583-0.067853 0.3379 0.027527 0.52371 0.11562 0.10441 0.2161 0.22319 0.2993 0.35401 3e-3 2e-3 0.0057 5e-3 0.0087 7e-3 0.06448 0.0495 0.10922 0.12029 0.12649 0.19971 0.11686 0.53852 0.54285 1.0658 1.1395 1.4105 0.10474 0.0604 0.22621 0.11273 0.36055 0.1554 0.14301 0.0454 0.24004 0.17824 0.23991 0.32826-1.38e-4 0.1501-0.09745 0.28265-0.24046 0.32786-0.13248 0.0419-0.25353 0.0942-0.35986 0.15574-0.59694 0.34486-1.0229 0.87215-1.1397 1.4105-0.0172 0.0796-0.06215 0.15044-0.1267 0.19998-0.33405 0.25657-0.47816 0.637-0.33515 0.88495 0.087952 0.1521 0.275 0.2395 0.51305 0.2395 0.13675 0 0.28237-0.0303 0.42118-0.0877 0.07536-0.0312 0.15925-0.0345 0.23681-0.01 0.16056 0.0516 0.33811 0.0778 0.52785 0.0778 0.41306 0 0.86162-0.12758 1.2631-0.35937 0.10502-0.0605 0.20777-0.13716 0.31444-0.23447 0.06497-0.0593 0.14817-0.09 0.23213-0.09 0.05891 0 0.11816 0.0151 0.17171 0.0459 0.12986 0.0748 0.19634 0.22504 0.16441 0.37135-0.03022 0.13888-0.04563 0.27026-0.04563 0.39048 0 0.68944 0.24369 1.3221 0.65172 1.6926 0.06022 0.0547 0.0991 0.1289 0.10984 0.20949 0.05547 0.41759 0.31299 0.73258 0.59914 0.73258 0.28608 0 0.54361-0.31492 0.59908-0.73258 0.01067-0.0806 0.04962-0.15485 0.10984-0.20949 0.40817-0.37046 0.65179-1.0032 0.65179-1.6926 0-0.12174-0.01507-0.24892-0.04597-0.38876-0.03242-0.14652 0.03379-0.2971 0.16372-0.37218 0.12979-0.0751 0.29338-0.0575 0.40425 0.0437 0.10275 0.0939 0.2088 0.1726 0.31513 0.23392 0.40136 0.23172 0.84992 0.35938 1.263 0.35938 0.18967 0 0.36729-0.0262 0.52778-0.0778 0.07777-0.025 0.16152-0.0215 0.23688 0.01 0.13881 0.0575 0.28443 0.0877 0.42111 0.0877 0.23805 0 0.4251-0.0875 0.51326-0.23983 0.14294-0.24762-0.0012-0.62812-0.33515-0.88462z" style="stroke-linecap:round;stroke-linejoin:round;stroke-width:.30214;stroke:#000000"/>
 </g>
</svg>
