<svg width="64" height="64" version="1.1" viewBox="0 0 16.933 16.933" xmlns="http://www.w3.org/2000/svg">
 <g transform="translate(-6.6659 -143.02)">
  <path d="m20.679 155.29c0.64687 0 1.1678 0.52093 1.1678 1.1678s-0.52093 1.1678-1.1678 1.1678h-0.17106c-0.78265 0-1.5008-0.41367-1.9536-1.0458 0.42614-0.79221 1.2198-1.2898 2.1246-1.2898zm-5.4241-12.262c-0.72584 0-1.4196 0.32096-1.9053 0.87591-0.98951 1.1297-1.7639 2.4144-2.3012 3.7905-0.63692-1.6342-1.6113-3.1334-2.8877-4.4096-0.1698-0.16976-0.39484-0.25424-0.6196-0.25425-0.22476 0-0.4493 0.0844-0.61908 0.25425-0.33953 0.33961-0.33957 0.8986 0 1.2382 2.0955 2.0956 3.2468 4.8758 3.2468 7.8393v3.2194c0 0.03 0.0016 0.0601 0.0047 0.0894 3e-3 0.0293 0.0076 0.0579 0.01344 0.0863 0.0059 0.0284 0.01311 0.0564 0.0217 0.0837 0.0086 0.0274 0.01831 0.0539 0.02946 0.0801s0.02365 0.0517 0.03721 0.0765 0.02812 0.049 0.04393 0.0724c0.01581 0.0233 0.03273 0.046 0.05064 0.0677 0.01792 0.0217 0.03698 0.0421 0.05684 0.062 0.01987 0.0199 0.04035 0.0389 0.06201 0.0568 0.02167 0.0179 0.04438 0.0348 0.0677 0.0506s0.04754 0.0304 0.07235 0.0439c0.02481 0.0136 0.05033 0.0261 0.07648 0.0372 0.02616 0.0111 0.05275 0.0209 0.0801 0.0295 0.02735 9e-3 0.05533 0.0163 0.08372 0.0222 0.02839 6e-3 0.05754 0.01 0.08682 0.0129 0.02928 3e-3 0.05887 5e-3 0.08888 5e-3 0.03002 0 0.0596-2e-3 0.08888-5e-3s0.05791-7e-3 0.0863-0.0129c0.02839-6e-3 0.05637-0.0136 0.08371-0.0222 0.02735-9e-3 0.05446-0.0183 0.08062-0.0295 0.02615-0.0111 0.05167-0.0237 0.07648-0.0372 0.02481-0.0136 0.04852-0.0281 0.07183-0.0439 0.02332-0.0158 0.04603-0.0327 0.0677-0.0506s0.04266-0.037 0.06253-0.0568c0.01987-0.0199 0.03841-0.0403 0.05633-0.062 0.01791-0.0217 0.03483-0.0444 0.05064-0.0677s0.03089-0.0475 0.04444-0.0724c0.01355-0.0248 0.02554-0.0503 0.03669-0.0765s0.02138-0.0528 0.02997-0.0801c0.0086-0.0273 0.01583-0.0553 0.0217-0.0837 0.0059-0.0284 0.01042-0.057 0.01344-0.0863 3e-3 -0.0293 0.0047-0.0594 0.0047-0.0894v-3.2194c0-2.6881 0.97579-5.282 2.7471-7.3045 0.15719-0.17981 0.37192-0.27802 0.58704-0.27802 0.41755 0 0.75293 0.33487 0.75293 0.75241v8.5168c0 0.88617 0.19799 1.7558 0.55087 2.5626l-0.68678 1.371c-0.07132 0.14228-0.20782 0.22686-0.3669 0.22686h-0.3731c-0.48026 0-0.87592 0.39566-0.87592 0.87592 0 0.48027 0.39565 0.87591 0.87592 0.87591h0.3731c0.82034 0 1.565-0.46003 1.9327-1.1942l0.27595-0.54984c0.76334 0.70061 1.7355 1.1601 2.7941 1.1601h0.17105c1.6072 0 2.9197-1.3125 2.9197-2.9197s-1.3125-2.9192-2.9197-2.9192c-1.0964 0-2.065 0.49198-2.8283 1.2201-0.03664-0.23585-0.09095-0.46931-0.09095-0.70952v-8.5168c0-1.3782-1.1266-2.5042-2.5048-2.5042z" style="color:#000000;fill:#000000"/>
 </g>
</svg>
